<svg width="417" height="277" viewBox="0 0 417 277" fill="none" xmlns="http://www.w3.org/2000/svg">
<rect x="39.6406" y="50.6389" width="257.501" height="174.285" stroke="#C6C6C6" stroke-width="2" stroke-linejoin="round" stroke-dasharray="3 3"/>
<rect x="78.0586" y="0.366943" width="268.26" height="202.564" fill="#F1F1F1"/>
<rect x="84.6289" y="29.9302" width="255.121" height="168.621" fill="white"/>
<rect x="105.432" y="51.8293" width="211.323" height="122.633" rx="8" fill="#F1F1F1"/>
<rect x="322.23" y="13.5061" width="16.4241" height="4.37976" rx="2.18988" fill="#C4C4C4"/>
<rect x="201.787" y="130.665" width="47.0824" height="4.37976" rx="2.18988" fill="white"/>
<rect x="117.477" y="72.6328" width="47.0824" height="4.37976" rx="2.18988" fill="white"/>
<rect x="258.724" y="130.665" width="47.0824" height="4.37976" rx="2.18988" fill="white"/>
<rect x="201.787" y="138.329" width="47.0824" height="4.37976" rx="2.18988" fill="white"/>
<rect x="117.477" y="80.2971" width="47.0824" height="4.37976" rx="2.18988" fill="white"/>
<rect x="258.724" y="138.329" width="47.0824" height="4.37976" rx="2.18988" fill="white"/>
<rect x="201.787" y="145.994" width="26.2786" height="4.37976" rx="2.18988" fill="white"/>
<rect x="117.477" y="87.9624" width="26.2786" height="4.37976" rx="2.18988" fill="white"/>
<rect x="258.724" y="145.994" width="26.2786" height="4.37976" rx="2.18988" fill="white"/>
<circle cx="87.3663" cy="15.1485" r="2.73735" fill="#C4C4C4"/>
<circle cx="95.0303" cy="15.1485" r="2.73735" fill="#C4C4C4"/>
<circle cx="102.694" cy="15.1485" r="2.73735" fill="#C4C4C4"/>
<g filter="url(#filter0_d_1_3710)">
<rect x="16.7422" y="110.956" width="167.526" height="134.678" rx="15" fill="white"/>
</g>
<rect x="34.2617" y="141.614" width="130.298" height="19.7089" rx="4" fill="#EEEEEE"/>
<rect x="34.2617" y="183.222" width="130.298" height="19.7089" rx="4" fill="#EEEEEE"/>
<rect x="34.2617" y="213.88" width="41.6077" height="19.7089" rx="4" fill="#5236FF"/>
<path d="M35.1577 133.225C35.0691 133.225 34.9991 133.199 34.9477 133.148C34.8964 133.092 34.8707 133.019 34.8707 132.931V128.535C34.8707 128.451 34.8964 128.383 34.9477 128.332C35.0037 128.28 35.0761 128.255 35.1647 128.255H36.8237C37.3417 128.255 37.7431 128.381 38.0277 128.633C38.3171 128.885 38.4617 129.242 38.4617 129.704C38.4617 130.166 38.3171 130.525 38.0277 130.782C37.7384 131.038 37.3371 131.167 36.8237 131.167H35.4447V132.931C35.4447 133.019 35.4191 133.092 35.3677 133.148C35.3164 133.199 35.2464 133.225 35.1577 133.225ZM36.7677 130.691C37.5191 130.691 37.8947 130.362 37.8947 129.704C37.8947 129.055 37.5191 128.731 36.7677 128.731H35.4447V130.691H36.7677ZM40.6162 129.697C41.4702 129.697 41.8972 130.145 41.8972 131.041V132.945C41.8972 133.029 41.8716 133.096 41.8202 133.148C41.7736 133.199 41.7082 133.225 41.6242 133.225C41.5402 133.225 41.4726 133.199 41.4212 133.148C41.3699 133.096 41.3442 133.029 41.3442 132.945V132.609C41.2556 132.809 41.1202 132.966 40.9382 133.078C40.7562 133.185 40.5462 133.239 40.3082 133.239C40.0889 133.239 39.8859 133.194 39.6992 133.106C39.5172 133.017 39.3726 132.893 39.2652 132.735C39.1579 132.576 39.1042 132.401 39.1042 132.21C39.1042 131.953 39.1696 131.755 39.3002 131.615C39.4309 131.47 39.6456 131.367 39.9442 131.307C40.2429 131.241 40.6582 131.209 41.1902 131.209H41.3442V130.978C41.3442 130.698 41.2859 130.492 41.1692 130.362C41.0572 130.231 40.8729 130.166 40.6162 130.166C40.2989 130.166 39.9769 130.252 39.6502 130.425C39.5242 130.504 39.4356 130.544 39.3842 130.544C39.3282 130.544 39.2816 130.523 39.2442 130.481C39.2069 130.439 39.1882 130.385 39.1882 130.32C39.1882 130.254 39.2069 130.198 39.2442 130.152C39.2862 130.1 39.3516 130.049 39.4402 129.998C39.6036 129.904 39.7879 129.832 39.9932 129.781C40.2032 129.725 40.4109 129.697 40.6162 129.697ZM40.3852 132.791C40.6652 132.791 40.8939 132.697 41.0712 132.511C41.2532 132.319 41.3442 132.074 41.3442 131.776V131.573H41.2182C40.8076 131.573 40.4949 131.591 40.2802 131.629C40.0656 131.661 39.9116 131.72 39.8182 131.804C39.7296 131.883 39.6852 132.002 39.6852 132.161C39.6852 132.343 39.7506 132.494 39.8812 132.616C40.0166 132.732 40.1846 132.791 40.3852 132.791ZM44.0832 133.239C43.8685 133.239 43.6632 133.213 43.4672 133.162C43.2758 133.11 43.1055 133.038 42.9562 132.945C42.8722 132.889 42.8115 132.837 42.7742 132.791C42.7415 132.739 42.7252 132.679 42.7252 132.609C42.7252 132.548 42.7415 132.499 42.7742 132.462C42.8115 132.42 42.8582 132.399 42.9142 132.399C42.9702 132.399 43.0518 132.434 43.1592 132.504C43.2992 132.588 43.4368 132.655 43.5722 132.707C43.7122 132.753 43.8848 132.777 44.0902 132.777C44.3422 132.777 44.5382 132.732 44.6782 132.644C44.8182 132.555 44.8882 132.427 44.8882 132.259C44.8882 132.156 44.8625 132.074 44.8112 132.014C44.7598 131.948 44.6712 131.892 44.5452 131.846C44.4192 131.794 44.2348 131.743 43.9922 131.692C43.5815 131.603 43.2875 131.484 43.1102 131.335C42.9328 131.185 42.8442 130.982 42.8442 130.726C42.8442 130.525 42.9002 130.348 43.0122 130.194C43.1242 130.04 43.2782 129.918 43.4742 129.83C43.6748 129.741 43.9012 129.697 44.1532 129.697C44.3352 129.697 44.5102 129.722 44.6782 129.774C44.8508 129.82 45.0025 129.888 45.1332 129.977C45.2918 130.089 45.3712 130.205 45.3712 130.327C45.3712 130.387 45.3525 130.439 45.3152 130.481C45.2778 130.523 45.2335 130.544 45.1822 130.544C45.1262 130.544 45.0422 130.504 44.9302 130.425C44.7995 130.341 44.6758 130.275 44.5592 130.229C44.4425 130.182 44.2978 130.159 44.1252 130.159C43.9058 130.159 43.7285 130.208 43.5932 130.306C43.4625 130.404 43.3972 130.534 43.3972 130.698C43.3972 130.8 43.4205 130.884 43.4672 130.95C43.5185 131.01 43.6002 131.066 43.7122 131.118C43.8288 131.164 43.9945 131.211 44.2092 131.258C44.5265 131.328 44.7715 131.405 44.9442 131.489C45.1215 131.573 45.2475 131.675 45.3222 131.797C45.3968 131.918 45.4342 132.072 45.4342 132.259C45.4342 132.553 45.3105 132.791 45.0632 132.973C44.8158 133.15 44.4892 133.239 44.0832 133.239ZM47.4464 133.239C47.2318 133.239 47.0264 133.213 46.8304 133.162C46.6391 133.11 46.4688 133.038 46.3194 132.945C46.2354 132.889 46.1748 132.837 46.1374 132.791C46.1048 132.739 46.0884 132.679 46.0884 132.609C46.0884 132.548 46.1048 132.499 46.1374 132.462C46.1748 132.42 46.2214 132.399 46.2774 132.399C46.3334 132.399 46.4151 132.434 46.5224 132.504C46.6624 132.588 46.8001 132.655 46.9354 132.707C47.0754 132.753 47.2481 132.777 47.4534 132.777C47.7054 132.777 47.9014 132.732 48.0414 132.644C48.1814 132.555 48.2514 132.427 48.2514 132.259C48.2514 132.156 48.2258 132.074 48.1744 132.014C48.1231 131.948 48.0344 131.892 47.9084 131.846C47.7824 131.794 47.5981 131.743 47.3554 131.692C46.9448 131.603 46.6508 131.484 46.4734 131.335C46.2961 131.185 46.2074 130.982 46.2074 130.726C46.2074 130.525 46.2634 130.348 46.3754 130.194C46.4874 130.04 46.6414 129.918 46.8374 129.83C47.0381 129.741 47.2644 129.697 47.5164 129.697C47.6984 129.697 47.8734 129.722 48.0414 129.774C48.2141 129.82 48.3658 129.888 48.4964 129.977C48.6551 130.089 48.7344 130.205 48.7344 130.327C48.7344 130.387 48.7158 130.439 48.6784 130.481C48.6411 130.523 48.5968 130.544 48.5454 130.544C48.4894 130.544 48.4054 130.504 48.2934 130.425C48.1628 130.341 48.0391 130.275 47.9224 130.229C47.8058 130.182 47.6611 130.159 47.4884 130.159C47.2691 130.159 47.0918 130.208 46.9564 130.306C46.8258 130.404 46.7604 130.534 46.7604 130.698C46.7604 130.8 46.7838 130.884 46.8304 130.95C46.8818 131.01 46.9634 131.066 47.0754 131.118C47.1921 131.164 47.3578 131.211 47.5724 131.258C47.8898 131.328 48.1348 131.405 48.3074 131.489C48.4848 131.573 48.6108 131.675 48.6854 131.797C48.7601 131.918 48.7974 132.072 48.7974 132.259C48.7974 132.553 48.6738 132.791 48.4264 132.973C48.1791 133.15 47.8524 133.239 47.4464 133.239ZM54.2622 129.893C54.3089 129.781 54.3859 129.725 54.4932 129.725C54.5632 129.725 54.6262 129.748 54.6822 129.795C54.7382 129.841 54.7662 129.9 54.7662 129.97C54.7662 130.002 54.7592 130.037 54.7452 130.075L53.5832 133.015C53.5552 133.075 53.5132 133.124 53.4572 133.162C53.4059 133.194 53.3475 133.211 53.2822 133.211C53.2215 133.211 53.1632 133.194 53.1072 133.162C53.0559 133.124 53.0162 133.075 52.9882 133.015L52.0222 130.558L51.0632 133.015C51.0399 133.075 51.0002 133.124 50.9442 133.162C50.8882 133.194 50.8275 133.211 50.7622 133.211C50.7015 133.211 50.6432 133.194 50.5872 133.162C50.5312 133.124 50.4892 133.075 50.4612 133.015L49.2992 130.082C49.2852 130.044 49.2782 130.012 49.2782 129.984C49.2782 129.909 49.3085 129.846 49.3692 129.795C49.4345 129.743 49.5045 129.718 49.5792 129.718C49.6912 129.718 49.7705 129.774 49.8172 129.886L50.7762 132.469L51.7632 129.907C51.7912 129.846 51.8285 129.799 51.8752 129.767C51.9265 129.734 51.9802 129.718 52.0362 129.718C52.0969 129.718 52.1505 129.734 52.1972 129.767C52.2485 129.799 52.2859 129.846 52.3092 129.907L53.2962 132.462L54.2622 129.893ZM56.8658 133.239C56.5438 133.239 56.2591 133.166 56.0118 133.022C55.7691 132.877 55.5801 132.672 55.4448 132.406C55.3141 132.135 55.2488 131.822 55.2488 131.468C55.2488 131.113 55.3141 130.803 55.4448 130.537C55.5801 130.266 55.7691 130.058 56.0118 129.914C56.2591 129.769 56.5438 129.697 56.8658 129.697C57.1878 129.697 57.4724 129.769 57.7198 129.914C57.9671 130.058 58.1561 130.266 58.2868 130.537C58.4221 130.803 58.4898 131.113 58.4898 131.468C58.4898 131.822 58.4221 132.135 58.2868 132.406C58.1561 132.672 57.9671 132.877 57.7198 133.022C57.4724 133.166 57.1878 133.239 56.8658 133.239ZM56.8658 132.77C57.2018 132.77 57.4584 132.66 57.6358 132.441C57.8178 132.217 57.9088 131.892 57.9088 131.468C57.9088 131.052 57.8178 130.733 57.6358 130.509C57.4538 130.28 57.1971 130.166 56.8658 130.166C56.5344 130.166 56.2778 130.28 56.0958 130.509C55.9138 130.733 55.8228 131.052 55.8228 131.468C55.8228 131.888 55.9114 132.21 56.0888 132.434C56.2708 132.658 56.5298 132.77 56.8658 132.77ZM61.0216 129.711C61.2176 129.697 61.3156 129.776 61.3156 129.949C61.3156 130.023 61.2946 130.084 61.2526 130.131C61.2106 130.173 61.1382 130.198 61.0356 130.208L60.8256 130.229C60.5129 130.257 60.2796 130.369 60.1256 130.565C59.9762 130.756 59.9016 130.982 59.9016 131.244V132.945C59.9016 133.038 59.8759 133.108 59.8246 133.155C59.7732 133.201 59.7056 133.225 59.6216 133.225C59.5376 133.225 59.4676 133.201 59.4116 133.155C59.3602 133.103 59.3346 133.033 59.3346 132.945V129.991C59.3346 129.902 59.3626 129.834 59.4186 129.788C59.4746 129.736 59.5422 129.711 59.6216 129.711C59.6962 129.711 59.7592 129.736 59.8106 129.788C59.8619 129.834 59.8876 129.9 59.8876 129.984V130.376C59.9856 130.17 60.1232 130.014 60.3006 129.907C60.4826 129.799 60.6902 129.736 60.9236 129.718L61.0216 129.711ZM64.471 128.22C64.5597 128.22 64.6297 128.245 64.681 128.297C64.7323 128.348 64.758 128.413 64.758 128.493V132.945C64.758 133.029 64.7323 133.096 64.681 133.148C64.6297 133.199 64.5597 133.225 64.471 133.225C64.3823 133.225 64.3123 133.199 64.261 133.148C64.2143 133.096 64.191 133.029 64.191 132.945V132.567C64.0883 132.781 63.9367 132.947 63.736 133.064C63.54 133.18 63.309 133.239 63.043 133.239C62.7443 133.239 62.4807 133.164 62.252 133.015C62.0233 132.865 61.846 132.658 61.72 132.392C61.594 132.121 61.531 131.808 61.531 131.454C61.531 131.104 61.594 130.796 61.72 130.53C61.846 130.264 62.0233 130.058 62.252 129.914C62.4807 129.769 62.7443 129.697 63.043 129.697C63.309 129.697 63.54 129.755 63.736 129.872C63.9367 129.988 64.0883 130.154 64.191 130.369V128.493C64.191 128.409 64.2143 128.343 64.261 128.297C64.3123 128.245 64.3823 128.22 64.471 128.22ZM63.155 132.77C63.4863 132.77 63.7407 132.658 63.918 132.434C64.1 132.205 64.191 131.883 64.191 131.468C64.191 131.052 64.1 130.733 63.918 130.509C63.7407 130.285 63.4863 130.173 63.155 130.173C62.8237 130.173 62.5647 130.285 62.378 130.509C62.196 130.733 62.105 131.048 62.105 131.454C62.105 131.869 62.196 132.193 62.378 132.427C62.5647 132.655 62.8237 132.77 63.155 132.77Z" fill="black"/>
<path d="M36.9637 174.853C36.4971 174.853 36.0934 174.753 35.7527 174.552C35.4121 174.347 35.1484 174.055 34.9617 173.677C34.7797 173.295 34.6887 172.844 34.6887 172.326C34.6887 171.813 34.7797 171.367 34.9617 170.989C35.1484 170.607 35.4121 170.315 35.7527 170.114C36.0934 169.909 36.4971 169.806 36.9637 169.806C37.2764 169.806 37.5704 169.858 37.8457 169.96C38.1257 170.058 38.3684 170.201 38.5737 170.387C38.6484 170.457 38.6857 170.539 38.6857 170.632C38.6857 170.698 38.6671 170.756 38.6297 170.807C38.5924 170.854 38.5481 170.877 38.4967 170.877C38.4407 170.877 38.3731 170.852 38.2937 170.8C38.0557 170.614 37.8387 170.483 37.6427 170.408C37.4514 170.334 37.2297 170.296 36.9777 170.296C36.4364 170.296 36.0187 170.474 35.7247 170.828C35.4354 171.178 35.2907 171.678 35.2907 172.326C35.2907 172.98 35.4354 173.484 35.7247 173.838C36.0187 174.188 36.4364 174.363 36.9777 174.363C37.2251 174.363 37.4467 174.326 37.6427 174.251C37.8387 174.177 38.0557 174.046 38.2937 173.859C38.3731 173.808 38.4407 173.782 38.4967 173.782C38.5481 173.782 38.5924 173.806 38.6297 173.852C38.6671 173.899 38.6857 173.957 38.6857 174.027C38.6857 174.121 38.6484 174.202 38.5737 174.272C38.3684 174.459 38.1257 174.604 37.8457 174.706C37.5704 174.804 37.2764 174.853 36.9637 174.853ZM40.8697 174.846C40.5477 174.846 40.263 174.774 40.0157 174.629C39.773 174.485 39.584 174.279 39.4487 174.013C39.318 173.743 39.2527 173.43 39.2527 173.075C39.2527 172.721 39.318 172.41 39.4487 172.144C39.584 171.874 39.773 171.666 40.0157 171.521C40.263 171.377 40.5477 171.304 40.8697 171.304C41.1917 171.304 41.4763 171.377 41.7237 171.521C41.971 171.666 42.16 171.874 42.2907 172.144C42.426 172.41 42.4937 172.721 42.4937 173.075C42.4937 173.43 42.426 173.743 42.2907 174.013C42.16 174.279 41.971 174.485 41.7237 174.629C41.4763 174.774 41.1917 174.846 40.8697 174.846ZM40.8697 174.377C41.2057 174.377 41.4623 174.268 41.6397 174.048C41.8217 173.824 41.9127 173.5 41.9127 173.075C41.9127 172.66 41.8217 172.34 41.6397 172.116C41.4577 171.888 41.201 171.773 40.8697 171.773C40.5383 171.773 40.2817 171.888 40.0997 172.116C39.9177 172.34 39.8267 172.66 39.8267 173.075C39.8267 173.495 39.9153 173.817 40.0927 174.041C40.2747 174.265 40.5337 174.377 40.8697 174.377ZM45.0535 171.304C45.8701 171.304 46.2785 171.755 46.2785 172.655V174.552C46.2785 174.641 46.2528 174.711 46.2015 174.762C46.1548 174.809 46.0871 174.832 45.9985 174.832C45.9098 174.832 45.8398 174.809 45.7885 174.762C45.7371 174.711 45.7115 174.641 45.7115 174.552V172.69C45.7115 172.373 45.6485 172.142 45.5225 171.997C45.4011 171.853 45.2051 171.78 44.9345 171.78C44.6218 171.78 44.3721 171.876 44.1855 172.067C43.9988 172.259 43.9055 172.518 43.9055 172.844V174.552C43.9055 174.641 43.8798 174.711 43.8285 174.762C43.7818 174.809 43.7141 174.832 43.6255 174.832C43.5368 174.832 43.4668 174.809 43.4155 174.762C43.3641 174.711 43.3385 174.641 43.3385 174.552V171.598C43.3385 171.514 43.3641 171.447 43.4155 171.395C43.4668 171.344 43.5368 171.318 43.6255 171.318C43.7095 171.318 43.7748 171.344 43.8215 171.395C43.8728 171.447 43.8985 171.512 43.8985 171.591V171.948C44.0105 171.738 44.1668 171.58 44.3675 171.472C44.5681 171.36 44.7968 171.304 45.0535 171.304ZM49.928 171.388C50.0073 171.388 50.068 171.409 50.11 171.451C50.152 171.493 50.173 171.549 50.173 171.619V174.552C50.173 174.641 50.145 174.711 50.089 174.762C50.0377 174.809 49.9723 174.832 49.893 174.832C49.809 174.832 49.739 174.809 49.683 174.762C49.6317 174.711 49.606 174.641 49.606 174.552V171.836H48.073V174.552C48.073 174.641 48.045 174.711 47.989 174.762C47.9377 174.809 47.8723 174.832 47.793 174.832C47.709 174.832 47.639 174.809 47.583 174.762C47.5317 174.711 47.506 174.641 47.506 174.552V171.836H47.037C46.9577 171.836 46.8947 171.818 46.848 171.78C46.806 171.738 46.785 171.685 46.785 171.619C46.785 171.549 46.806 171.493 46.848 171.451C46.8947 171.409 46.9577 171.388 47.037 171.388H47.506V171.269C47.506 170.849 47.611 170.52 47.821 170.282C48.031 170.04 48.332 169.902 48.724 169.869L48.892 169.855C49.116 169.837 49.228 169.907 49.228 170.065C49.228 170.201 49.1487 170.278 48.99 170.296L48.822 170.31C48.5747 170.329 48.388 170.408 48.262 170.548C48.136 170.684 48.073 170.889 48.073 171.164V171.388H49.928ZM49.893 169.876C50.0003 169.876 50.089 169.909 50.159 169.974C50.2337 170.04 50.271 170.124 50.271 170.226C50.271 170.334 50.236 170.42 50.166 170.485C50.096 170.551 50.005 170.583 49.893 170.583C49.781 170.583 49.69 170.551 49.62 170.485C49.55 170.42 49.515 170.334 49.515 170.226C49.515 170.124 49.55 170.04 49.62 169.974C49.69 169.909 49.781 169.876 49.893 169.876ZM52.9141 171.318C53.1101 171.304 53.2081 171.384 53.2081 171.556C53.2081 171.631 53.1871 171.692 53.1451 171.738C53.1031 171.78 53.0308 171.806 52.9281 171.815L52.7181 171.836C52.4055 171.864 52.1721 171.976 52.0181 172.172C51.8688 172.364 51.7941 172.59 51.7941 172.851V174.552C51.7941 174.646 51.7685 174.716 51.7171 174.762C51.6658 174.809 51.5981 174.832 51.5141 174.832C51.4301 174.832 51.3601 174.809 51.3041 174.762C51.2528 174.711 51.2271 174.641 51.2271 174.552V171.598C51.2271 171.51 51.2551 171.442 51.3111 171.395C51.3671 171.344 51.4348 171.318 51.5141 171.318C51.5888 171.318 51.6518 171.344 51.7031 171.395C51.7545 171.442 51.7801 171.507 51.7801 171.591V171.983C51.8781 171.778 52.0158 171.622 52.1931 171.514C52.3751 171.407 52.5828 171.344 52.8161 171.325L52.9141 171.318ZM57.4889 171.304C58.2449 171.304 58.6229 171.755 58.6229 172.655V174.552C58.6229 174.641 58.5973 174.711 58.5459 174.762C58.4946 174.809 58.4269 174.832 58.3429 174.832C58.2589 174.832 58.1889 174.809 58.1329 174.762C58.0816 174.711 58.0559 174.641 58.0559 174.552V172.669C58.0559 172.357 57.9999 172.13 57.8879 171.99C57.7759 171.85 57.6009 171.78 57.3629 171.78C57.0783 171.78 56.8543 171.876 56.6909 172.067C56.5276 172.259 56.4459 172.518 56.4459 172.844V174.552C56.4459 174.641 56.4179 174.711 56.3619 174.762C56.3106 174.809 56.2429 174.832 56.1589 174.832C56.0749 174.832 56.0073 174.809 55.9559 174.762C55.9046 174.711 55.8789 174.641 55.8789 174.552V172.669C55.8789 172.357 55.8229 172.13 55.7109 171.99C55.5989 171.85 55.4216 171.78 55.1789 171.78C54.8989 171.78 54.6749 171.876 54.5069 172.067C54.3436 172.259 54.2619 172.518 54.2619 172.844V174.552C54.2619 174.641 54.2363 174.711 54.1849 174.762C54.1336 174.809 54.0659 174.832 53.9819 174.832C53.8979 174.832 53.8279 174.809 53.7719 174.762C53.7206 174.711 53.6949 174.641 53.6949 174.552V171.598C53.6949 171.514 53.7206 171.447 53.7719 171.395C53.8279 171.344 53.8979 171.318 53.9819 171.318C54.0613 171.318 54.1266 171.344 54.1779 171.395C54.2293 171.442 54.2549 171.507 54.2549 171.591V171.927C54.3576 171.727 54.4999 171.573 54.6819 171.465C54.8639 171.358 55.0739 171.304 55.3119 171.304C55.8439 171.304 56.1916 171.528 56.3549 171.976C56.4529 171.771 56.6023 171.608 56.8029 171.486C57.0036 171.365 57.2323 171.304 57.4889 171.304ZM61.8315 174.832C61.7429 174.832 61.6729 174.807 61.6215 174.755C61.5702 174.699 61.5445 174.627 61.5445 174.538V170.142C61.5445 170.058 61.5702 169.991 61.6215 169.939C61.6775 169.888 61.7499 169.862 61.8385 169.862H63.4975C64.0155 169.862 64.4169 169.988 64.7015 170.24C64.9909 170.492 65.1355 170.849 65.1355 171.311C65.1355 171.773 64.9909 172.133 64.7015 172.389C64.4122 172.646 64.0109 172.774 63.4975 172.774H62.1185V174.538C62.1185 174.627 62.0929 174.699 62.0415 174.755C61.9902 174.807 61.9202 174.832 61.8315 174.832ZM63.4415 172.298C64.1929 172.298 64.5685 171.969 64.5685 171.311C64.5685 170.663 64.1929 170.338 63.4415 170.338H62.1185V172.298H63.4415ZM67.2901 171.304C68.1441 171.304 68.5711 171.752 68.5711 172.648V174.552C68.5711 174.636 68.5454 174.704 68.4941 174.755C68.4474 174.807 68.3821 174.832 68.2981 174.832C68.2141 174.832 68.1464 174.807 68.0951 174.755C68.0437 174.704 68.0181 174.636 68.0181 174.552V174.216C67.9294 174.417 67.7941 174.573 67.6121 174.685C67.4301 174.793 67.2201 174.846 66.9821 174.846C66.7627 174.846 66.5597 174.802 66.3731 174.713C66.1911 174.625 66.0464 174.501 65.9391 174.342C65.8317 174.184 65.7781 174.009 65.7781 173.817C65.7781 173.561 65.8434 173.362 65.9741 173.222C66.1047 173.078 66.3194 172.975 66.6181 172.914C66.9167 172.849 67.3321 172.816 67.8641 172.816H68.0181V172.585C68.0181 172.305 67.9597 172.1 67.8431 171.969C67.7311 171.839 67.5467 171.773 67.2901 171.773C66.9727 171.773 66.6507 171.86 66.3241 172.032C66.1981 172.112 66.1094 172.151 66.0581 172.151C66.0021 172.151 65.9554 172.13 65.9181 172.088C65.8807 172.046 65.8621 171.993 65.8621 171.927C65.8621 171.862 65.8807 171.806 65.9181 171.759C65.9601 171.708 66.0254 171.657 66.1141 171.605C66.2774 171.512 66.4617 171.44 66.6671 171.388C66.8771 171.332 67.0847 171.304 67.2901 171.304ZM67.0591 174.398C67.3391 174.398 67.5677 174.305 67.7451 174.118C67.9271 173.927 68.0181 173.682 68.0181 173.383V173.18H67.8921C67.4814 173.18 67.1687 173.199 66.9541 173.236C66.7394 173.269 66.5854 173.327 66.4921 173.411C66.4034 173.491 66.3591 173.61 66.3591 173.768C66.3591 173.95 66.4244 174.102 66.5551 174.223C66.6904 174.34 66.8584 174.398 67.0591 174.398ZM70.757 174.846C70.5423 174.846 70.337 174.821 70.141 174.769C69.9497 174.718 69.7793 174.646 69.63 174.552C69.546 174.496 69.4853 174.445 69.448 174.398C69.4153 174.347 69.399 174.286 69.399 174.216C69.399 174.156 69.4153 174.107 69.448 174.069C69.4853 174.027 69.532 174.006 69.588 174.006C69.644 174.006 69.7257 174.041 69.833 174.111C69.973 174.195 70.1107 174.263 70.246 174.314C70.386 174.361 70.5587 174.384 70.764 174.384C71.016 174.384 71.212 174.34 71.352 174.251C71.492 174.163 71.562 174.034 71.562 173.866C71.562 173.764 71.5363 173.682 71.485 173.621C71.4337 173.556 71.345 173.5 71.219 173.453C71.093 173.402 70.9087 173.351 70.666 173.299C70.2553 173.211 69.9613 173.092 69.784 172.942C69.6067 172.793 69.518 172.59 69.518 172.333C69.518 172.133 69.574 171.955 69.686 171.801C69.798 171.647 69.952 171.526 70.148 171.437C70.3487 171.349 70.575 171.304 70.827 171.304C71.009 171.304 71.184 171.33 71.352 171.381C71.5247 171.428 71.6763 171.496 71.807 171.584C71.9657 171.696 72.045 171.813 72.045 171.934C72.045 171.995 72.0263 172.046 71.989 172.088C71.9517 172.13 71.9073 172.151 71.856 172.151C71.8 172.151 71.716 172.112 71.604 172.032C71.4733 171.948 71.3497 171.883 71.233 171.836C71.1163 171.79 70.9717 171.766 70.799 171.766C70.5797 171.766 70.4023 171.815 70.267 171.913C70.1363 172.011 70.071 172.142 70.071 172.305C70.071 172.408 70.0943 172.492 70.141 172.557C70.1923 172.618 70.274 172.674 70.386 172.725C70.5027 172.772 70.6683 172.819 70.883 172.865C71.2003 172.935 71.4453 173.012 71.618 173.096C71.7953 173.18 71.9213 173.283 71.996 173.404C72.0707 173.526 72.108 173.68 72.108 173.866C72.108 174.16 71.9843 174.398 71.737 174.58C71.4897 174.758 71.163 174.846 70.757 174.846ZM74.1203 174.846C73.9056 174.846 73.7003 174.821 73.5043 174.769C73.3129 174.718 73.1426 174.646 72.9933 174.552C72.9093 174.496 72.8486 174.445 72.8113 174.398C72.7786 174.347 72.7623 174.286 72.7623 174.216C72.7623 174.156 72.7786 174.107 72.8113 174.069C72.8486 174.027 72.8953 174.006 72.9513 174.006C73.0073 174.006 73.0889 174.041 73.1963 174.111C73.3363 174.195 73.4739 174.263 73.6093 174.314C73.7493 174.361 73.9219 174.384 74.1273 174.384C74.3793 174.384 74.5753 174.34 74.7153 174.251C74.8553 174.163 74.9253 174.034 74.9253 173.866C74.9253 173.764 74.8996 173.682 74.8483 173.621C74.7969 173.556 74.7083 173.5 74.5823 173.453C74.4563 173.402 74.2719 173.351 74.0293 173.299C73.6186 173.211 73.3246 173.092 73.1473 172.942C72.9699 172.793 72.8813 172.59 72.8813 172.333C72.8813 172.133 72.9373 171.955 73.0493 171.801C73.1613 171.647 73.3153 171.526 73.5113 171.437C73.7119 171.349 73.9383 171.304 74.1903 171.304C74.3723 171.304 74.5473 171.33 74.7153 171.381C74.8879 171.428 75.0396 171.496 75.1703 171.584C75.3289 171.696 75.4083 171.813 75.4083 171.934C75.4083 171.995 75.3896 172.046 75.3523 172.088C75.3149 172.13 75.2706 172.151 75.2193 172.151C75.1633 172.151 75.0793 172.112 74.9673 172.032C74.8366 171.948 74.7129 171.883 74.5963 171.836C74.4796 171.79 74.3349 171.766 74.1623 171.766C73.9429 171.766 73.7656 171.815 73.6303 171.913C73.4996 172.011 73.4343 172.142 73.4343 172.305C73.4343 172.408 73.4576 172.492 73.5043 172.557C73.5556 172.618 73.6373 172.674 73.7493 172.725C73.8659 172.772 74.0316 172.819 74.2463 172.865C74.5636 172.935 74.8086 173.012 74.9813 173.096C75.1586 173.18 75.2846 173.283 75.3593 173.404C75.4339 173.526 75.4713 173.68 75.4713 173.866C75.4713 174.16 75.3476 174.398 75.1003 174.58C74.8529 174.758 74.5263 174.846 74.1203 174.846ZM80.936 171.5C80.9827 171.388 81.0597 171.332 81.167 171.332C81.237 171.332 81.3 171.356 81.356 171.402C81.412 171.449 81.44 171.507 81.44 171.577C81.44 171.61 81.433 171.645 81.419 171.682L80.257 174.622C80.229 174.683 80.187 174.732 80.131 174.769C80.0797 174.802 80.0214 174.818 79.956 174.818C79.8954 174.818 79.837 174.802 79.781 174.769C79.7297 174.732 79.69 174.683 79.662 174.622L78.696 172.165L77.737 174.622C77.7137 174.683 77.674 174.732 77.618 174.769C77.562 174.802 77.5014 174.818 77.436 174.818C77.3754 174.818 77.317 174.802 77.261 174.769C77.205 174.732 77.163 174.683 77.135 174.622L75.973 171.689C75.959 171.652 75.952 171.619 75.952 171.591C75.952 171.517 75.9824 171.454 76.043 171.402C76.1084 171.351 76.1784 171.325 76.253 171.325C76.365 171.325 76.4444 171.381 76.491 171.493L77.45 174.076L78.437 171.514C78.465 171.454 78.5024 171.407 78.549 171.374C78.6004 171.342 78.654 171.325 78.71 171.325C78.7707 171.325 78.8244 171.342 78.871 171.374C78.9224 171.407 78.9597 171.454 78.983 171.514L79.97 174.069L80.936 171.5ZM83.5396 174.846C83.2176 174.846 82.9329 174.774 82.6856 174.629C82.4429 174.485 82.2539 174.279 82.1186 174.013C81.9879 173.743 81.9226 173.43 81.9226 173.075C81.9226 172.721 81.9879 172.41 82.1186 172.144C82.2539 171.874 82.4429 171.666 82.6856 171.521C82.9329 171.377 83.2176 171.304 83.5396 171.304C83.8616 171.304 84.1463 171.377 84.3936 171.521C84.6409 171.666 84.8299 171.874 84.9606 172.144C85.0959 172.41 85.1636 172.721 85.1636 173.075C85.1636 173.43 85.0959 173.743 84.9606 174.013C84.8299 174.279 84.6409 174.485 84.3936 174.629C84.1463 174.774 83.8616 174.846 83.5396 174.846ZM83.5396 174.377C83.8756 174.377 84.1323 174.268 84.3096 174.048C84.4916 173.824 84.5826 173.5 84.5826 173.075C84.5826 172.66 84.4916 172.34 84.3096 172.116C84.1276 171.888 83.8709 171.773 83.5396 171.773C83.2083 171.773 82.9516 171.888 82.7696 172.116C82.5876 172.34 82.4966 172.66 82.4966 173.075C82.4966 173.495 82.5853 173.817 82.7626 174.041C82.9446 174.265 83.2036 174.377 83.5396 174.377ZM87.6954 171.318C87.8914 171.304 87.9894 171.384 87.9894 171.556C87.9894 171.631 87.9684 171.692 87.9264 171.738C87.8844 171.78 87.8121 171.806 87.7094 171.815L87.4994 171.836C87.1867 171.864 86.9534 171.976 86.7994 172.172C86.6501 172.364 86.5754 172.59 86.5754 172.851V174.552C86.5754 174.646 86.5497 174.716 86.4984 174.762C86.4471 174.809 86.3794 174.832 86.2954 174.832C86.2114 174.832 86.1414 174.809 86.0854 174.762C86.0341 174.711 86.0084 174.641 86.0084 174.552V171.598C86.0084 171.51 86.0364 171.442 86.0924 171.395C86.1484 171.344 86.2161 171.318 86.2954 171.318C86.3701 171.318 86.4331 171.344 86.4844 171.395C86.5357 171.442 86.5614 171.507 86.5614 171.591V171.983C86.6594 171.778 86.7971 171.622 86.9744 171.514C87.1564 171.407 87.3641 171.344 87.5974 171.325L87.6954 171.318ZM91.1448 169.827C91.2335 169.827 91.3035 169.853 91.3548 169.904C91.4061 169.956 91.4318 170.021 91.4318 170.1V174.552C91.4318 174.636 91.4061 174.704 91.3548 174.755C91.3035 174.807 91.2335 174.832 91.1448 174.832C91.0561 174.832 90.9861 174.807 90.9348 174.755C90.8881 174.704 90.8648 174.636 90.8648 174.552V174.174C90.7621 174.389 90.6105 174.555 90.4098 174.671C90.2138 174.788 89.9828 174.846 89.7168 174.846C89.4181 174.846 89.1545 174.772 88.9258 174.622C88.6971 174.473 88.5198 174.265 88.3938 173.999C88.2678 173.729 88.2048 173.416 88.2048 173.061C88.2048 172.711 88.2678 172.403 88.3938 172.137C88.5198 171.871 88.6971 171.666 88.9258 171.521C89.1545 171.377 89.4181 171.304 89.7168 171.304C89.9828 171.304 90.2138 171.363 90.4098 171.479C90.6105 171.596 90.7621 171.762 90.8648 171.976V170.1C90.8648 170.016 90.8881 169.951 90.9348 169.904C90.9861 169.853 91.0561 169.827 91.1448 169.827ZM89.8288 174.377C90.1601 174.377 90.4145 174.265 90.5918 174.041C90.7738 173.813 90.8648 173.491 90.8648 173.075C90.8648 172.66 90.7738 172.34 90.5918 172.116C90.4145 171.892 90.1601 171.78 89.8288 171.78C89.4975 171.78 89.2385 171.892 89.0518 172.116C88.8698 172.34 88.7788 172.655 88.7788 173.061C88.7788 173.477 88.8698 173.801 89.0518 174.034C89.2385 174.263 89.4975 174.377 89.8288 174.377Z" fill="black"/>
<path d="M48.0903 225.354C47.9743 225.354 47.8843 225.322 47.8203 225.258C47.7563 225.194 47.7243 225.106 47.7243 224.994V221.478C47.7243 221.362 47.7583 221.27 47.8263 221.202C47.8983 221.13 47.9923 221.094 48.1083 221.094C48.2283 221.094 48.3223 221.13 48.3903 221.202C48.4623 221.27 48.4983 221.362 48.4983 221.478V224.718H50.1843C50.4243 224.718 50.5443 224.824 50.5443 225.036C50.5443 225.248 50.4243 225.354 50.1843 225.354H48.0903ZM52.3069 225.402C52.0069 225.402 51.7429 225.34 51.5149 225.216C51.2909 225.092 51.1169 224.914 50.9929 224.682C50.8689 224.45 50.8069 224.18 50.8069 223.872C50.8069 223.564 50.8689 223.296 50.9929 223.068C51.1169 222.836 51.2909 222.658 51.5149 222.534C51.7429 222.41 52.0069 222.348 52.3069 222.348C52.6069 222.348 52.8689 222.41 53.0929 222.534C53.3209 222.658 53.4949 222.836 53.6149 223.068C53.7389 223.296 53.8009 223.564 53.8009 223.872C53.8009 224.18 53.7389 224.45 53.6149 224.682C53.4949 224.914 53.3209 225.092 53.0929 225.216C52.8689 225.34 52.6069 225.402 52.3069 225.402ZM52.3009 224.82C52.5449 224.82 52.7309 224.74 52.8589 224.58C52.9869 224.42 53.0509 224.184 53.0509 223.872C53.0509 223.564 52.9869 223.33 52.8589 223.17C52.7309 223.006 52.5469 222.924 52.3069 222.924C52.0669 222.924 51.8809 223.006 51.7489 223.17C51.6209 223.33 51.5569 223.564 51.5569 223.872C51.5569 224.184 51.6209 224.42 51.7489 224.58C51.8769 224.74 52.0609 224.82 52.3009 224.82ZM56.904 222.36C57.016 222.36 57.106 222.392 57.174 222.456C57.242 222.52 57.276 222.606 57.276 222.714V225.084C57.276 225.544 57.148 225.892 56.892 226.128C56.636 226.364 56.258 226.482 55.758 226.482C55.322 226.482 54.958 226.4 54.666 226.236C54.518 226.148 54.444 226.042 54.444 225.918C54.444 225.83 54.464 225.76 54.504 225.708C54.548 225.656 54.604 225.63 54.672 225.63C54.708 225.63 54.752 225.638 54.804 225.654C54.856 225.674 54.91 225.696 54.966 225.72C55.11 225.78 55.238 225.826 55.35 225.858C55.466 225.89 55.598 225.906 55.746 225.906C56.27 225.906 56.532 225.65 56.532 225.138V224.754C56.444 224.918 56.316 225.046 56.148 225.138C55.98 225.226 55.788 225.27 55.572 225.27C55.316 225.27 55.088 225.21 54.888 225.09C54.692 224.966 54.538 224.794 54.426 224.574C54.314 224.354 54.258 224.1 54.258 223.812C54.258 223.524 54.312 223.27 54.42 223.05C54.532 222.826 54.688 222.654 54.888 222.534C55.088 222.41 55.316 222.348 55.572 222.348C55.788 222.348 55.98 222.394 56.148 222.486C56.316 222.574 56.444 222.7 56.532 222.864V222.708C56.532 222.604 56.566 222.52 56.634 222.456C56.702 222.392 56.792 222.36 56.904 222.36ZM55.77 224.688C56.01 224.688 56.196 224.61 56.328 224.454C56.464 224.298 56.532 224.084 56.532 223.812C56.532 223.536 56.464 223.32 56.328 223.164C56.196 223.008 56.01 222.93 55.77 222.93C55.534 222.93 55.348 223.008 55.212 223.164C55.076 223.32 55.008 223.536 55.008 223.812C55.008 224.084 55.076 224.298 55.212 224.454C55.348 224.61 55.534 224.688 55.77 224.688ZM58.5028 225.39C58.3868 225.39 58.2928 225.354 58.2208 225.282C58.1528 225.21 58.1188 225.116 58.1188 225V221.478C58.1188 221.362 58.1528 221.27 58.2208 221.202C58.2928 221.13 58.3868 221.094 58.5028 221.094C58.6228 221.094 58.7168 221.13 58.7848 221.202C58.8568 221.27 58.8928 221.362 58.8928 221.478V225C58.8928 225.116 58.8568 225.21 58.7848 225.282C58.7168 225.354 58.6228 225.39 58.5028 225.39ZM61.4443 222.348C61.7963 222.348 62.0583 222.448 62.2303 222.648C62.4023 222.848 62.4883 223.15 62.4883 223.554V225.03C62.4883 225.142 62.4543 225.23 62.3863 225.294C62.3223 225.358 62.2323 225.39 62.1163 225.39C62.0003 225.39 61.9083 225.358 61.8403 225.294C61.7723 225.23 61.7383 225.142 61.7383 225.03V223.596C61.7383 223.368 61.6943 223.202 61.6063 223.098C61.5223 222.994 61.3883 222.942 61.2043 222.942C60.9883 222.942 60.8143 223.01 60.6823 223.146C60.5543 223.282 60.4903 223.464 60.4903 223.692V225.03C60.4903 225.142 60.4563 225.23 60.3883 225.294C60.3203 225.358 60.2283 225.39 60.1123 225.39C59.9963 225.39 59.9043 225.358 59.8363 225.294C59.7723 225.23 59.7403 225.142 59.7403 225.03V222.708C59.7403 222.604 59.7743 222.52 59.8423 222.456C59.9103 222.392 60.0023 222.36 60.1183 222.36C60.2223 222.36 60.3063 222.392 60.3703 222.456C60.4383 222.516 60.4723 222.596 60.4723 222.696V222.858C60.5723 222.694 60.7063 222.568 60.8743 222.48C61.0423 222.392 61.2323 222.348 61.4443 222.348Z" fill="white"/>
<path d="M48.0052 151.354C48.1119 151.347 48.1952 151.374 48.2552 151.434C48.3219 151.494 48.3552 151.567 48.3552 151.654C48.3552 151.734 48.3219 151.807 48.2552 151.874C48.1952 151.934 48.1119 151.96 48.0052 151.954L46.8152 151.914L47.4452 152.924C47.4852 152.99 47.5052 153.054 47.5052 153.114C47.5052 153.194 47.4719 153.264 47.4052 153.324C47.3452 153.377 47.2752 153.404 47.1952 153.404C47.0819 153.404 46.9919 153.344 46.9252 153.224L46.3652 152.164L45.8052 153.234C45.7386 153.354 45.6486 153.414 45.5352 153.414C45.4552 153.414 45.3819 153.384 45.3152 153.324C45.2486 153.264 45.2152 153.194 45.2152 153.114C45.2152 153.054 45.2352 152.994 45.2752 152.934L45.9252 151.914L44.7152 151.954C44.6152 151.96 44.5352 151.934 44.4752 151.874C44.4152 151.807 44.3852 151.734 44.3852 151.654C44.3852 151.567 44.4119 151.494 44.4652 151.434C44.5252 151.374 44.6086 151.347 44.7152 151.354L45.9252 151.394L45.2752 150.384C45.2352 150.324 45.2152 150.26 45.2152 150.194C45.2152 150.114 45.2486 150.044 45.3152 149.984C45.3819 149.924 45.4552 149.894 45.5352 149.894C45.6486 149.894 45.7386 149.954 45.8052 150.074L46.3652 151.144L46.9252 150.084C46.9919 149.957 47.0852 149.894 47.2052 149.894C47.2852 149.894 47.3552 149.924 47.4152 149.984C47.4752 150.037 47.5052 150.104 47.5052 150.184C47.5052 150.244 47.4852 150.31 47.4452 150.384L46.8152 151.394L48.0052 151.354ZM55.8072 151.354C55.9139 151.347 55.9972 151.374 56.0572 151.434C56.1239 151.494 56.1572 151.567 56.1572 151.654C56.1572 151.734 56.1239 151.807 56.0572 151.874C55.9972 151.934 55.9139 151.96 55.8072 151.954L54.6172 151.914L55.2472 152.924C55.2872 152.99 55.3072 153.054 55.3072 153.114C55.3072 153.194 55.2739 153.264 55.2072 153.324C55.1472 153.377 55.0772 153.404 54.9972 153.404C54.8839 153.404 54.7939 153.344 54.7272 153.224L54.1672 152.164L53.6072 153.234C53.5405 153.354 53.4505 153.414 53.3372 153.414C53.2572 153.414 53.1839 153.384 53.1172 153.324C53.0505 153.264 53.0172 153.194 53.0172 153.114C53.0172 153.054 53.0372 152.994 53.0772 152.934L53.7272 151.914L52.5172 151.954C52.4172 151.96 52.3372 151.934 52.2772 151.874C52.2172 151.807 52.1872 151.734 52.1872 151.654C52.1872 151.567 52.2139 151.494 52.2672 151.434C52.3272 151.374 52.4105 151.347 52.5172 151.354L53.7272 151.394L53.0772 150.384C53.0372 150.324 53.0172 150.26 53.0172 150.194C53.0172 150.114 53.0505 150.044 53.1172 149.984C53.1839 149.924 53.2572 149.894 53.3372 149.894C53.4505 149.894 53.5405 149.954 53.6072 150.074L54.1672 151.144L54.7272 150.084C54.7939 149.957 54.8872 149.894 55.0072 149.894C55.0872 149.894 55.1572 149.924 55.2172 149.984C55.2772 150.037 55.3072 150.104 55.3072 150.184C55.3072 150.244 55.2872 150.31 55.2472 150.384L54.6172 151.394L55.8072 151.354ZM63.6091 151.354C63.7158 151.347 63.7991 151.374 63.8591 151.434C63.9258 151.494 63.9591 151.567 63.9591 151.654C63.9591 151.734 63.9258 151.807 63.8591 151.874C63.7991 151.934 63.7158 151.96 63.6091 151.954L62.4191 151.914L63.0491 152.924C63.0891 152.99 63.1091 153.054 63.1091 153.114C63.1091 153.194 63.0758 153.264 63.0091 153.324C62.9491 153.377 62.8791 153.404 62.7991 153.404C62.6858 153.404 62.5958 153.344 62.5291 153.224L61.9691 152.164L61.4091 153.234C61.3425 153.354 61.2525 153.414 61.1391 153.414C61.0591 153.414 60.9858 153.384 60.9191 153.324C60.8525 153.264 60.8191 153.194 60.8191 153.114C60.8191 153.054 60.8391 152.994 60.8791 152.934L61.5291 151.914L60.3191 151.954C60.2191 151.96 60.1391 151.934 60.0791 151.874C60.0191 151.807 59.9891 151.734 59.9891 151.654C59.9891 151.567 60.0158 151.494 60.0691 151.434C60.1291 151.374 60.2125 151.347 60.3191 151.354L61.5291 151.394L60.8791 150.384C60.8391 150.324 60.8191 150.26 60.8191 150.194C60.8191 150.114 60.8525 150.044 60.9191 149.984C60.9858 149.924 61.0591 149.894 61.1391 149.894C61.2525 149.894 61.3425 149.954 61.4091 150.074L61.9691 151.144L62.5291 150.084C62.5958 149.957 62.6891 149.894 62.8091 149.894C62.8891 149.894 62.9591 149.924 63.0191 149.984C63.0791 150.037 63.1091 150.104 63.1091 150.184C63.1091 150.244 63.0891 150.31 63.0491 150.384L62.4191 151.394L63.6091 151.354ZM71.4111 151.354C71.5178 151.347 71.6011 151.374 71.6611 151.434C71.7278 151.494 71.7611 151.567 71.7611 151.654C71.7611 151.734 71.7278 151.807 71.6611 151.874C71.6011 151.934 71.5178 151.96 71.4111 151.954L70.2211 151.914L70.8511 152.924C70.8911 152.99 70.9111 153.054 70.9111 153.114C70.9111 153.194 70.8778 153.264 70.8111 153.324C70.7511 153.377 70.6811 153.404 70.6011 153.404C70.4878 153.404 70.3978 153.344 70.3311 153.224L69.7711 152.164L69.2111 153.234C69.1444 153.354 69.0544 153.414 68.9411 153.414C68.8611 153.414 68.7878 153.384 68.7211 153.324C68.6544 153.264 68.6211 153.194 68.6211 153.114C68.6211 153.054 68.6411 152.994 68.6811 152.934L69.3311 151.914L68.1211 151.954C68.0211 151.96 67.9411 151.934 67.8811 151.874C67.8211 151.807 67.7911 151.734 67.7911 151.654C67.7911 151.567 67.8178 151.494 67.8711 151.434C67.9311 151.374 68.0144 151.347 68.1211 151.354L69.3311 151.394L68.6811 150.384C68.6411 150.324 68.6211 150.26 68.6211 150.194C68.6211 150.114 68.6544 150.044 68.7211 149.984C68.7878 149.924 68.8611 149.894 68.9411 149.894C69.0544 149.894 69.1444 149.954 69.2111 150.074L69.7711 151.144L70.3311 150.084C70.3978 149.957 70.4911 149.894 70.6111 149.894C70.6911 149.894 70.7611 149.924 70.8211 149.984C70.8811 150.037 70.9111 150.104 70.9111 150.184C70.9111 150.244 70.8911 150.31 70.8511 150.384L70.2211 151.394L71.4111 151.354ZM79.213 151.354C79.3197 151.347 79.403 151.374 79.463 151.434C79.5297 151.494 79.563 151.567 79.563 151.654C79.563 151.734 79.5297 151.807 79.463 151.874C79.403 151.934 79.3197 151.96 79.213 151.954L78.023 151.914L78.653 152.924C78.693 152.99 78.713 153.054 78.713 153.114C78.713 153.194 78.6797 153.264 78.613 153.324C78.553 153.377 78.483 153.404 78.403 153.404C78.2897 153.404 78.1997 153.344 78.133 153.224L77.573 152.164L77.013 153.234C76.9464 153.354 76.8564 153.414 76.743 153.414C76.663 153.414 76.5897 153.384 76.523 153.324C76.4564 153.264 76.423 153.194 76.423 153.114C76.423 153.054 76.443 152.994 76.483 152.934L77.133 151.914L75.923 151.954C75.823 151.96 75.743 151.934 75.683 151.874C75.623 151.807 75.593 151.734 75.593 151.654C75.593 151.567 75.6197 151.494 75.673 151.434C75.733 151.374 75.8164 151.347 75.923 151.354L77.133 151.394L76.483 150.384C76.443 150.324 76.423 150.26 76.423 150.194C76.423 150.114 76.4564 150.044 76.523 149.984C76.5897 149.924 76.663 149.894 76.743 149.894C76.8564 149.894 76.9464 149.954 77.013 150.074L77.573 151.144L78.133 150.084C78.1997 149.957 78.293 149.894 78.413 149.894C78.493 149.894 78.563 149.924 78.623 149.984C78.683 150.037 78.713 150.104 78.713 150.184C78.713 150.244 78.693 150.31 78.653 150.384L78.023 151.394L79.213 151.354ZM87.015 151.354C87.1217 151.347 87.205 151.374 87.265 151.434C87.3317 151.494 87.365 151.567 87.365 151.654C87.365 151.734 87.3317 151.807 87.265 151.874C87.205 151.934 87.1217 151.96 87.015 151.954L85.825 151.914L86.455 152.924C86.495 152.99 86.515 153.054 86.515 153.114C86.515 153.194 86.4817 153.264 86.415 153.324C86.355 153.377 86.285 153.404 86.205 153.404C86.0917 153.404 86.0017 153.344 85.935 153.224L85.375 152.164L84.815 153.234C84.7483 153.354 84.6583 153.414 84.545 153.414C84.465 153.414 84.3917 153.384 84.325 153.324C84.2583 153.264 84.225 153.194 84.225 153.114C84.225 153.054 84.245 152.994 84.285 152.934L84.935 151.914L83.725 151.954C83.625 151.96 83.545 151.934 83.485 151.874C83.425 151.807 83.395 151.734 83.395 151.654C83.395 151.567 83.4217 151.494 83.475 151.434C83.535 151.374 83.6183 151.347 83.725 151.354L84.935 151.394L84.285 150.384C84.245 150.324 84.225 150.26 84.225 150.194C84.225 150.114 84.2583 150.044 84.325 149.984C84.3917 149.924 84.465 149.894 84.545 149.894C84.6583 149.894 84.7483 149.954 84.815 150.074L85.375 151.144L85.935 150.084C86.0017 149.957 86.095 149.894 86.215 149.894C86.295 149.894 86.365 149.924 86.425 149.984C86.485 150.037 86.515 150.104 86.515 150.184C86.515 150.244 86.495 150.31 86.455 150.384L85.825 151.394L87.015 151.354ZM94.817 151.354C94.9236 151.347 95.007 151.374 95.067 151.434C95.1336 151.494 95.167 151.567 95.167 151.654C95.167 151.734 95.1336 151.807 95.067 151.874C95.007 151.934 94.9236 151.96 94.817 151.954L93.627 151.914L94.257 152.924C94.297 152.99 94.317 153.054 94.317 153.114C94.317 153.194 94.2836 153.264 94.217 153.324C94.157 153.377 94.087 153.404 94.007 153.404C93.8936 153.404 93.8036 153.344 93.737 153.224L93.177 152.164L92.617 153.234C92.5503 153.354 92.4603 153.414 92.347 153.414C92.267 153.414 92.1936 153.384 92.127 153.324C92.0603 153.264 92.027 153.194 92.027 153.114C92.027 153.054 92.047 152.994 92.087 152.934L92.737 151.914L91.527 151.954C91.427 151.96 91.347 151.934 91.287 151.874C91.227 151.807 91.197 151.734 91.197 151.654C91.197 151.567 91.2236 151.494 91.277 151.434C91.337 151.374 91.4203 151.347 91.527 151.354L92.737 151.394L92.087 150.384C92.047 150.324 92.027 150.26 92.027 150.194C92.027 150.114 92.0603 150.044 92.127 149.984C92.1936 149.924 92.267 149.894 92.347 149.894C92.4603 149.894 92.5503 149.954 92.617 150.074L93.177 151.144L93.737 150.084C93.8036 149.957 93.897 149.894 94.017 149.894C94.097 149.894 94.167 149.924 94.227 149.984C94.287 150.037 94.317 150.104 94.317 150.184C94.317 150.244 94.297 150.31 94.257 150.384L93.627 151.394L94.817 151.354ZM102.619 151.354C102.726 151.347 102.809 151.374 102.869 151.434C102.936 151.494 102.969 151.567 102.969 151.654C102.969 151.734 102.936 151.807 102.869 151.874C102.809 151.934 102.726 151.96 102.619 151.954L101.429 151.914L102.059 152.924C102.099 152.99 102.119 153.054 102.119 153.114C102.119 153.194 102.086 153.264 102.019 153.324C101.959 153.377 101.889 153.404 101.809 153.404C101.696 153.404 101.606 153.344 101.539 153.224L100.979 152.164L100.419 153.234C100.352 153.354 100.262 153.414 100.149 153.414C100.069 153.414 99.9956 153.384 99.9289 153.324C99.8622 153.264 99.8289 153.194 99.8289 153.114C99.8289 153.054 99.8489 152.994 99.8889 152.934L100.539 151.914L99.3289 151.954C99.2289 151.96 99.1489 151.934 99.0889 151.874C99.0289 151.807 98.9989 151.734 98.9989 151.654C98.9989 151.567 99.0256 151.494 99.0789 151.434C99.1389 151.374 99.2222 151.347 99.3289 151.354L100.539 151.394L99.8889 150.384C99.8489 150.324 99.8289 150.26 99.8289 150.194C99.8289 150.114 99.8622 150.044 99.9289 149.984C99.9956 149.924 100.069 149.894 100.149 149.894C100.262 149.894 100.352 149.954 100.419 150.074L100.979 151.144L101.539 150.084C101.606 149.957 101.699 149.894 101.819 149.894C101.899 149.894 101.969 149.924 102.029 149.984C102.089 150.037 102.119 150.104 102.119 150.184C102.119 150.244 102.099 150.31 102.059 150.384L101.429 151.394L102.619 151.354ZM110.421 151.354C110.528 151.347 110.611 151.374 110.671 151.434C110.738 151.494 110.771 151.567 110.771 151.654C110.771 151.734 110.738 151.807 110.671 151.874C110.611 151.934 110.528 151.96 110.421 151.954L109.231 151.914L109.861 152.924C109.901 152.99 109.921 153.054 109.921 153.114C109.921 153.194 109.888 153.264 109.821 153.324C109.761 153.377 109.691 153.404 109.611 153.404C109.498 153.404 109.408 153.344 109.341 153.224L108.781 152.164L108.221 153.234C108.154 153.354 108.064 153.414 107.951 153.414C107.871 153.414 107.798 153.384 107.731 153.324C107.664 153.264 107.631 153.194 107.631 153.114C107.631 153.054 107.651 152.994 107.691 152.934L108.341 151.914L107.131 151.954C107.031 151.96 106.951 151.934 106.891 151.874C106.831 151.807 106.801 151.734 106.801 151.654C106.801 151.567 106.828 151.494 106.881 151.434C106.941 151.374 107.024 151.347 107.131 151.354L108.341 151.394L107.691 150.384C107.651 150.324 107.631 150.26 107.631 150.194C107.631 150.114 107.664 150.044 107.731 149.984C107.798 149.924 107.871 149.894 107.951 149.894C108.064 149.894 108.154 149.954 108.221 150.074L108.781 151.144L109.341 150.084C109.408 149.957 109.501 149.894 109.621 149.894C109.701 149.894 109.771 149.924 109.831 149.984C109.891 150.037 109.921 150.104 109.921 150.184C109.921 150.244 109.901 150.31 109.861 150.384L109.231 151.394L110.421 151.354ZM118.223 151.354C118.329 151.347 118.413 151.374 118.473 151.434C118.539 151.494 118.573 151.567 118.573 151.654C118.573 151.734 118.539 151.807 118.473 151.874C118.413 151.934 118.329 151.96 118.223 151.954L117.033 151.914L117.663 152.924C117.703 152.99 117.723 153.054 117.723 153.114C117.723 153.194 117.689 153.264 117.623 153.324C117.563 153.377 117.493 153.404 117.413 153.404C117.299 153.404 117.209 153.344 117.143 153.224L116.583 152.164L116.023 153.234C115.956 153.354 115.866 153.414 115.753 153.414C115.673 153.414 115.599 153.384 115.533 153.324C115.466 153.264 115.433 153.194 115.433 153.114C115.433 153.054 115.453 152.994 115.493 152.934L116.143 151.914L114.933 151.954C114.833 151.96 114.753 151.934 114.693 151.874C114.633 151.807 114.603 151.734 114.603 151.654C114.603 151.567 114.629 151.494 114.683 151.434C114.743 151.374 114.826 151.347 114.933 151.354L116.143 151.394L115.493 150.384C115.453 150.324 115.433 150.26 115.433 150.194C115.433 150.114 115.466 150.044 115.533 149.984C115.599 149.924 115.673 149.894 115.753 149.894C115.866 149.894 115.956 149.954 116.023 150.074L116.583 151.144L117.143 150.084C117.209 149.957 117.303 149.894 117.423 149.894C117.503 149.894 117.573 149.924 117.633 149.984C117.693 150.037 117.723 150.104 117.723 150.184C117.723 150.244 117.703 150.31 117.663 150.384L117.033 151.394L118.223 151.354Z" fill="#5236FF"/>
<path d="M48.0052 192.961C48.1119 192.955 48.1952 192.981 48.2552 193.041C48.3219 193.101 48.3552 193.175 48.3552 193.261C48.3552 193.341 48.3219 193.415 48.2552 193.481C48.1952 193.541 48.1119 193.568 48.0052 193.561L46.8152 193.521L47.4452 194.531C47.4852 194.598 47.5052 194.661 47.5052 194.721C47.5052 194.801 47.4719 194.871 47.4052 194.931C47.3452 194.985 47.2752 195.011 47.1952 195.011C47.0819 195.011 46.9919 194.951 46.9252 194.831L46.3652 193.771L45.8052 194.841C45.7386 194.961 45.6486 195.021 45.5352 195.021C45.4552 195.021 45.3819 194.991 45.3152 194.931C45.2486 194.871 45.2152 194.801 45.2152 194.721C45.2152 194.661 45.2352 194.601 45.2752 194.541L45.9252 193.521L44.7152 193.561C44.6152 193.568 44.5352 193.541 44.4752 193.481C44.4152 193.415 44.3852 193.341 44.3852 193.261C44.3852 193.175 44.4119 193.101 44.4652 193.041C44.5252 192.981 44.6086 192.955 44.7152 192.961L45.9252 193.001L45.2752 191.991C45.2352 191.931 45.2152 191.868 45.2152 191.801C45.2152 191.721 45.2486 191.651 45.3152 191.591C45.3819 191.531 45.4552 191.501 45.5352 191.501C45.6486 191.501 45.7386 191.561 45.8052 191.681L46.3652 192.751L46.9252 191.691C46.9919 191.565 47.0852 191.501 47.2052 191.501C47.2852 191.501 47.3552 191.531 47.4152 191.591C47.4752 191.645 47.5052 191.711 47.5052 191.791C47.5052 191.851 47.4852 191.918 47.4452 191.991L46.8152 193.001L48.0052 192.961ZM55.8072 192.961C55.9139 192.955 55.9972 192.981 56.0572 193.041C56.1239 193.101 56.1572 193.175 56.1572 193.261C56.1572 193.341 56.1239 193.415 56.0572 193.481C55.9972 193.541 55.9139 193.568 55.8072 193.561L54.6172 193.521L55.2472 194.531C55.2872 194.598 55.3072 194.661 55.3072 194.721C55.3072 194.801 55.2739 194.871 55.2072 194.931C55.1472 194.985 55.0772 195.011 54.9972 195.011C54.8839 195.011 54.7939 194.951 54.7272 194.831L54.1672 193.771L53.6072 194.841C53.5405 194.961 53.4505 195.021 53.3372 195.021C53.2572 195.021 53.1839 194.991 53.1172 194.931C53.0505 194.871 53.0172 194.801 53.0172 194.721C53.0172 194.661 53.0372 194.601 53.0772 194.541L53.7272 193.521L52.5172 193.561C52.4172 193.568 52.3372 193.541 52.2772 193.481C52.2172 193.415 52.1872 193.341 52.1872 193.261C52.1872 193.175 52.2139 193.101 52.2672 193.041C52.3272 192.981 52.4105 192.955 52.5172 192.961L53.7272 193.001L53.0772 191.991C53.0372 191.931 53.0172 191.868 53.0172 191.801C53.0172 191.721 53.0505 191.651 53.1172 191.591C53.1839 191.531 53.2572 191.501 53.3372 191.501C53.4505 191.501 53.5405 191.561 53.6072 191.681L54.1672 192.751L54.7272 191.691C54.7939 191.565 54.8872 191.501 55.0072 191.501C55.0872 191.501 55.1572 191.531 55.2172 191.591C55.2772 191.645 55.3072 191.711 55.3072 191.791C55.3072 191.851 55.2872 191.918 55.2472 191.991L54.6172 193.001L55.8072 192.961ZM63.6091 192.961C63.7158 192.955 63.7991 192.981 63.8591 193.041C63.9258 193.101 63.9591 193.175 63.9591 193.261C63.9591 193.341 63.9258 193.415 63.8591 193.481C63.7991 193.541 63.7158 193.568 63.6091 193.561L62.4191 193.521L63.0491 194.531C63.0891 194.598 63.1091 194.661 63.1091 194.721C63.1091 194.801 63.0758 194.871 63.0091 194.931C62.9491 194.985 62.8791 195.011 62.7991 195.011C62.6858 195.011 62.5958 194.951 62.5291 194.831L61.9691 193.771L61.4091 194.841C61.3425 194.961 61.2525 195.021 61.1391 195.021C61.0591 195.021 60.9858 194.991 60.9191 194.931C60.8525 194.871 60.8191 194.801 60.8191 194.721C60.8191 194.661 60.8391 194.601 60.8791 194.541L61.5291 193.521L60.3191 193.561C60.2191 193.568 60.1391 193.541 60.0791 193.481C60.0191 193.415 59.9891 193.341 59.9891 193.261C59.9891 193.175 60.0158 193.101 60.0691 193.041C60.1291 192.981 60.2125 192.955 60.3191 192.961L61.5291 193.001L60.8791 191.991C60.8391 191.931 60.8191 191.868 60.8191 191.801C60.8191 191.721 60.8525 191.651 60.9191 191.591C60.9858 191.531 61.0591 191.501 61.1391 191.501C61.2525 191.501 61.3425 191.561 61.4091 191.681L61.9691 192.751L62.5291 191.691C62.5958 191.565 62.6891 191.501 62.8091 191.501C62.8891 191.501 62.9591 191.531 63.0191 191.591C63.0791 191.645 63.1091 191.711 63.1091 191.791C63.1091 191.851 63.0891 191.918 63.0491 191.991L62.4191 193.001L63.6091 192.961ZM71.4111 192.961C71.5178 192.955 71.6011 192.981 71.6611 193.041C71.7278 193.101 71.7611 193.175 71.7611 193.261C71.7611 193.341 71.7278 193.415 71.6611 193.481C71.6011 193.541 71.5178 193.568 71.4111 193.561L70.2211 193.521L70.8511 194.531C70.8911 194.598 70.9111 194.661 70.9111 194.721C70.9111 194.801 70.8778 194.871 70.8111 194.931C70.7511 194.985 70.6811 195.011 70.6011 195.011C70.4878 195.011 70.3978 194.951 70.3311 194.831L69.7711 193.771L69.2111 194.841C69.1444 194.961 69.0544 195.021 68.9411 195.021C68.8611 195.021 68.7878 194.991 68.7211 194.931C68.6544 194.871 68.6211 194.801 68.6211 194.721C68.6211 194.661 68.6411 194.601 68.6811 194.541L69.3311 193.521L68.1211 193.561C68.0211 193.568 67.9411 193.541 67.8811 193.481C67.8211 193.415 67.7911 193.341 67.7911 193.261C67.7911 193.175 67.8178 193.101 67.8711 193.041C67.9311 192.981 68.0144 192.955 68.1211 192.961L69.3311 193.001L68.6811 191.991C68.6411 191.931 68.6211 191.868 68.6211 191.801C68.6211 191.721 68.6544 191.651 68.7211 191.591C68.7878 191.531 68.8611 191.501 68.9411 191.501C69.0544 191.501 69.1444 191.561 69.2111 191.681L69.7711 192.751L70.3311 191.691C70.3978 191.565 70.4911 191.501 70.6111 191.501C70.6911 191.501 70.7611 191.531 70.8211 191.591C70.8811 191.645 70.9111 191.711 70.9111 191.791C70.9111 191.851 70.8911 191.918 70.8511 191.991L70.2211 193.001L71.4111 192.961ZM79.213 192.961C79.3197 192.955 79.403 192.981 79.463 193.041C79.5297 193.101 79.563 193.175 79.563 193.261C79.563 193.341 79.5297 193.415 79.463 193.481C79.403 193.541 79.3197 193.568 79.213 193.561L78.023 193.521L78.653 194.531C78.693 194.598 78.713 194.661 78.713 194.721C78.713 194.801 78.6797 194.871 78.613 194.931C78.553 194.985 78.483 195.011 78.403 195.011C78.2897 195.011 78.1997 194.951 78.133 194.831L77.573 193.771L77.013 194.841C76.9464 194.961 76.8564 195.021 76.743 195.021C76.663 195.021 76.5897 194.991 76.523 194.931C76.4564 194.871 76.423 194.801 76.423 194.721C76.423 194.661 76.443 194.601 76.483 194.541L77.133 193.521L75.923 193.561C75.823 193.568 75.743 193.541 75.683 193.481C75.623 193.415 75.593 193.341 75.593 193.261C75.593 193.175 75.6197 193.101 75.673 193.041C75.733 192.981 75.8164 192.955 75.923 192.961L77.133 193.001L76.483 191.991C76.443 191.931 76.423 191.868 76.423 191.801C76.423 191.721 76.4564 191.651 76.523 191.591C76.5897 191.531 76.663 191.501 76.743 191.501C76.8564 191.501 76.9464 191.561 77.013 191.681L77.573 192.751L78.133 191.691C78.1997 191.565 78.293 191.501 78.413 191.501C78.493 191.501 78.563 191.531 78.623 191.591C78.683 191.645 78.713 191.711 78.713 191.791C78.713 191.851 78.693 191.918 78.653 191.991L78.023 193.001L79.213 192.961ZM87.015 192.961C87.1217 192.955 87.205 192.981 87.265 193.041C87.3317 193.101 87.365 193.175 87.365 193.261C87.365 193.341 87.3317 193.415 87.265 193.481C87.205 193.541 87.1217 193.568 87.015 193.561L85.825 193.521L86.455 194.531C86.495 194.598 86.515 194.661 86.515 194.721C86.515 194.801 86.4817 194.871 86.415 194.931C86.355 194.985 86.285 195.011 86.205 195.011C86.0917 195.011 86.0017 194.951 85.935 194.831L85.375 193.771L84.815 194.841C84.7483 194.961 84.6583 195.021 84.545 195.021C84.465 195.021 84.3917 194.991 84.325 194.931C84.2583 194.871 84.225 194.801 84.225 194.721C84.225 194.661 84.245 194.601 84.285 194.541L84.935 193.521L83.725 193.561C83.625 193.568 83.545 193.541 83.485 193.481C83.425 193.415 83.395 193.341 83.395 193.261C83.395 193.175 83.4217 193.101 83.475 193.041C83.535 192.981 83.6183 192.955 83.725 192.961L84.935 193.001L84.285 191.991C84.245 191.931 84.225 191.868 84.225 191.801C84.225 191.721 84.2583 191.651 84.325 191.591C84.3917 191.531 84.465 191.501 84.545 191.501C84.6583 191.501 84.7483 191.561 84.815 191.681L85.375 192.751L85.935 191.691C86.0017 191.565 86.095 191.501 86.215 191.501C86.295 191.501 86.365 191.531 86.425 191.591C86.485 191.645 86.515 191.711 86.515 191.791C86.515 191.851 86.495 191.918 86.455 191.991L85.825 193.001L87.015 192.961ZM94.817 192.961C94.9236 192.955 95.007 192.981 95.067 193.041C95.1336 193.101 95.167 193.175 95.167 193.261C95.167 193.341 95.1336 193.415 95.067 193.481C95.007 193.541 94.9236 193.568 94.817 193.561L93.627 193.521L94.257 194.531C94.297 194.598 94.317 194.661 94.317 194.721C94.317 194.801 94.2836 194.871 94.217 194.931C94.157 194.985 94.087 195.011 94.007 195.011C93.8936 195.011 93.8036 194.951 93.737 194.831L93.177 193.771L92.617 194.841C92.5503 194.961 92.4603 195.021 92.347 195.021C92.267 195.021 92.1936 194.991 92.127 194.931C92.0603 194.871 92.027 194.801 92.027 194.721C92.027 194.661 92.047 194.601 92.087 194.541L92.737 193.521L91.527 193.561C91.427 193.568 91.347 193.541 91.287 193.481C91.227 193.415 91.197 193.341 91.197 193.261C91.197 193.175 91.2236 193.101 91.277 193.041C91.337 192.981 91.4203 192.955 91.527 192.961L92.737 193.001L92.087 191.991C92.047 191.931 92.027 191.868 92.027 191.801C92.027 191.721 92.0603 191.651 92.127 191.591C92.1936 191.531 92.267 191.501 92.347 191.501C92.4603 191.501 92.5503 191.561 92.617 191.681L93.177 192.751L93.737 191.691C93.8036 191.565 93.897 191.501 94.017 191.501C94.097 191.501 94.167 191.531 94.227 191.591C94.287 191.645 94.317 191.711 94.317 191.791C94.317 191.851 94.297 191.918 94.257 191.991L93.627 193.001L94.817 192.961ZM102.619 192.961C102.726 192.955 102.809 192.981 102.869 193.041C102.936 193.101 102.969 193.175 102.969 193.261C102.969 193.341 102.936 193.415 102.869 193.481C102.809 193.541 102.726 193.568 102.619 193.561L101.429 193.521L102.059 194.531C102.099 194.598 102.119 194.661 102.119 194.721C102.119 194.801 102.086 194.871 102.019 194.931C101.959 194.985 101.889 195.011 101.809 195.011C101.696 195.011 101.606 194.951 101.539 194.831L100.979 193.771L100.419 194.841C100.352 194.961 100.262 195.021 100.149 195.021C100.069 195.021 99.9956 194.991 99.9289 194.931C99.8622 194.871 99.8289 194.801 99.8289 194.721C99.8289 194.661 99.8489 194.601 99.8889 194.541L100.539 193.521L99.3289 193.561C99.2289 193.568 99.1489 193.541 99.0889 193.481C99.0289 193.415 98.9989 193.341 98.9989 193.261C98.9989 193.175 99.0256 193.101 99.0789 193.041C99.1389 192.981 99.2222 192.955 99.3289 192.961L100.539 193.001L99.8889 191.991C99.8489 191.931 99.8289 191.868 99.8289 191.801C99.8289 191.721 99.8622 191.651 99.9289 191.591C99.9956 191.531 100.069 191.501 100.149 191.501C100.262 191.501 100.352 191.561 100.419 191.681L100.979 192.751L101.539 191.691C101.606 191.565 101.699 191.501 101.819 191.501C101.899 191.501 101.969 191.531 102.029 191.591C102.089 191.645 102.119 191.711 102.119 191.791C102.119 191.851 102.099 191.918 102.059 191.991L101.429 193.001L102.619 192.961ZM110.421 192.961C110.528 192.955 110.611 192.981 110.671 193.041C110.738 193.101 110.771 193.175 110.771 193.261C110.771 193.341 110.738 193.415 110.671 193.481C110.611 193.541 110.528 193.568 110.421 193.561L109.231 193.521L109.861 194.531C109.901 194.598 109.921 194.661 109.921 194.721C109.921 194.801 109.888 194.871 109.821 194.931C109.761 194.985 109.691 195.011 109.611 195.011C109.498 195.011 109.408 194.951 109.341 194.831L108.781 193.771L108.221 194.841C108.154 194.961 108.064 195.021 107.951 195.021C107.871 195.021 107.798 194.991 107.731 194.931C107.664 194.871 107.631 194.801 107.631 194.721C107.631 194.661 107.651 194.601 107.691 194.541L108.341 193.521L107.131 193.561C107.031 193.568 106.951 193.541 106.891 193.481C106.831 193.415 106.801 193.341 106.801 193.261C106.801 193.175 106.828 193.101 106.881 193.041C106.941 192.981 107.024 192.955 107.131 192.961L108.341 193.001L107.691 191.991C107.651 191.931 107.631 191.868 107.631 191.801C107.631 191.721 107.664 191.651 107.731 191.591C107.798 191.531 107.871 191.501 107.951 191.501C108.064 191.501 108.154 191.561 108.221 191.681L108.781 192.751L109.341 191.691C109.408 191.565 109.501 191.501 109.621 191.501C109.701 191.501 109.771 191.531 109.831 191.591C109.891 191.645 109.921 191.711 109.921 191.791C109.921 191.851 109.901 191.918 109.861 191.991L109.231 193.001L110.421 192.961ZM118.223 192.961C118.329 192.955 118.413 192.981 118.473 193.041C118.539 193.101 118.573 193.175 118.573 193.261C118.573 193.341 118.539 193.415 118.473 193.481C118.413 193.541 118.329 193.568 118.223 193.561L117.033 193.521L117.663 194.531C117.703 194.598 117.723 194.661 117.723 194.721C117.723 194.801 117.689 194.871 117.623 194.931C117.563 194.985 117.493 195.011 117.413 195.011C117.299 195.011 117.209 194.951 117.143 194.831L116.583 193.771L116.023 194.841C115.956 194.961 115.866 195.021 115.753 195.021C115.673 195.021 115.599 194.991 115.533 194.931C115.466 194.871 115.433 194.801 115.433 194.721C115.433 194.661 115.453 194.601 115.493 194.541L116.143 193.521L114.933 193.561C114.833 193.568 114.753 193.541 114.693 193.481C114.633 193.415 114.603 193.341 114.603 193.261C114.603 193.175 114.629 193.101 114.683 193.041C114.743 192.981 114.826 192.955 114.933 192.961L116.143 193.001L115.493 191.991C115.453 191.931 115.433 191.868 115.433 191.801C115.433 191.721 115.466 191.651 115.533 191.591C115.599 191.531 115.673 191.501 115.753 191.501C115.866 191.501 115.956 191.561 116.023 191.681L116.583 192.751L117.143 191.691C117.209 191.565 117.303 191.501 117.423 191.501C117.503 191.501 117.573 191.531 117.633 191.591C117.693 191.645 117.723 191.711 117.723 191.791C117.723 191.851 117.703 191.918 117.663 191.991L117.033 193.001L118.223 192.961Z" fill="#5236FF"/>
<g filter="url(#filter1_d_1_3710)">
<rect x="175.508" y="68.2532" width="227.748" height="33.9431" rx="5" fill="#5236FF"/>
</g>
<rect x="269.673" y="82.4873" width="16.4241" height="4.37976" rx="2.18988" fill="white"/>
<rect x="290.477" y="82.4873" width="15.3292" height="4.37976" rx="2.18988" fill="white"/>
<rect x="188.647" y="78.1074" width="13.1393" height="13.1393" rx="5" fill="#7660FC"/>
<rect x="310.186" y="82.4873" width="16.4241" height="4.37976" rx="2.18988" fill="white"/>
<rect x="330.989" y="82.4873" width="16.4241" height="4.37976" rx="2.18988" fill="white"/>
<rect x="351.793" y="82.4873" width="16.4241" height="4.37976" rx="2.18988" fill="white"/>
<rect x="386.831" y="83.5823" width="4.37976" height="2.18988" rx="1.09494" fill="white"/>
<defs>
<filter id="filter0_d_1_3710" x="0.742188" y="99.9556" width="209.525" height="176.678" filterUnits="userSpaceOnUse" color-interpolation-filters="sRGB">
<feFlood flood-opacity="0" result="BackgroundImageFix"/>
<feColorMatrix in="SourceAlpha" type="matrix" values="0 0 0 0 0 0 0 0 0 0 0 0 0 0 0 0 0 0 127 0" result="hardAlpha"/>
<feOffset dx="5" dy="10"/>
<feGaussianBlur stdDeviation="10.5"/>
<feComposite in2="hardAlpha" operator="out"/>
<feColorMatrix type="matrix" values="0 0 0 0 0.700272 0 0 0 0 0.700272 0 0 0 0 0.700272 0 0 0 0.25 0"/>
<feBlend mode="normal" in2="BackgroundImageFix" result="effect1_dropShadow_1_3710"/>
<feBlend mode="normal" in="SourceGraphic" in2="effect1_dropShadow_1_3710" result="shape"/>
</filter>
<filter id="filter1_d_1_3710" x="174.508" y="68.2532" width="241.747" height="47.9431" filterUnits="userSpaceOnUse" color-interpolation-filters="sRGB">
<feFlood flood-opacity="0" result="BackgroundImageFix"/>
<feColorMatrix in="SourceAlpha" type="matrix" values="0 0 0 0 0 0 0 0 0 0 0 0 0 0 0 0 0 0 127 0" result="hardAlpha"/>
<feOffset dx="6" dy="7"/>
<feGaussianBlur stdDeviation="3.5"/>
<feComposite in2="hardAlpha" operator="out"/>
<feColorMatrix type="matrix" values="0 0 0 0 0.500272 0 0 0 0 0.500272 0 0 0 0 0.500272 0 0 0 0.25 0"/>
<feBlend mode="normal" in2="BackgroundImageFix" result="effect1_dropShadow_1_3710"/>
<feBlend mode="normal" in="SourceGraphic" in2="effect1_dropShadow_1_3710" result="shape"/>
</filter>
</defs>
</svg>
