<svg width="603" height="450" viewBox="0 0 603 450" fill="none" xmlns="http://www.w3.org/2000/svg">
<path d="M0 50C0 22.3858 22.3858 0 50 0H553C580.614 0 603 22.3858 603 50V400C603 427.614 580.614 450 553 450H50C22.3858 450 0 427.614 0 400V50Z" fill="white"/>
<path d="M20 50C20 33.4315 33.4315 20 50 20H554C570.569 20 584 33.4315 584 50V400C584 416.569 570.569 430 554 430H50C33.4315 430 20 416.569 20 400V50Z" fill="#F7F7F7"/>
<path d="M427.47 387.17C428.77 387.17 429.92 387.46 430.92 388.04C431.94 388.6 432.73 389.4 433.29 390.44C433.87 391.46 434.16 392.64 434.16 393.98C434.16 395.42 433.82 396.69 433.14 397.79C432.46 398.89 431.5 399.74 430.26 400.34C429.02 400.94 427.59 401.24 425.97 401.24C424.73 401.24 423.51 401.06 422.31 400.7C421.13 400.34 420.11 399.84 419.25 399.2C418.93 398.94 418.69 398.67 418.53 398.39C418.39 398.09 418.32 397.74 418.32 397.34C418.32 396.72 418.49 396.2 418.83 395.78C419.17 395.34 419.59 395.12 420.09 395.12C420.39 395.12 420.64 395.16 420.84 395.24C421.04 395.32 421.34 395.47 421.74 395.69L422.34 395.99C422.96 396.29 423.52 396.53 424.02 396.71C424.54 396.89 425.1 396.98 425.7 396.98C426.82 396.98 427.65 396.76 428.19 396.32C428.73 395.86 429 395.15 429 394.19C429 393.29 428.72 392.59 428.16 392.09C427.6 391.59 426.82 391.34 425.82 391.34C425.22 391.34 424.67 391.39 424.17 391.49C423.69 391.59 423.12 391.77 422.46 392.03C422.04 392.25 421.59 392.36 421.11 392.36C420.55 392.36 420.08 392.2 419.7 391.88C419.32 391.54 419.13 391.1 419.13 390.56V382.43C419.13 381.59 419.35 380.95 419.79 380.51C420.23 380.07 420.86 379.85 421.68 379.85H430.98C432.72 379.85 433.59 380.54 433.59 381.92C433.59 383.32 432.72 384.02 430.98 384.02H424.5V387.71C425.34 387.35 426.33 387.17 427.47 387.17ZM443.988 401.27C441.368 401.27 439.368 400.34 437.988 398.48C436.608 396.62 435.918 393.93 435.918 390.41C435.918 386.91 436.608 384.23 437.988 382.37C439.368 380.51 441.368 379.58 443.988 379.58C446.588 379.58 448.578 380.51 449.958 382.37C451.358 384.23 452.058 386.91 452.058 390.41C452.058 393.93 451.368 396.62 449.988 398.48C448.608 400.34 446.608 401.27 443.988 401.27ZM443.988 397.1C444.948 397.1 445.638 396.58 446.058 395.54C446.478 394.5 446.688 392.79 446.688 390.41C446.688 388.05 446.478 386.35 446.058 385.31C445.638 384.27 444.948 383.75 443.988 383.75C443.028 383.75 442.338 384.27 441.918 385.31C441.498 386.33 441.288 388.03 441.288 390.41C441.288 392.79 441.498 394.5 441.918 395.54C442.338 396.58 443.028 397.1 443.988 397.1ZM463.957 400.28C463.697 400.72 463.387 401.05 463.027 401.27C462.687 401.49 462.337 401.6 461.977 401.6C461.497 401.6 461.077 401.42 460.717 401.06C460.357 400.7 460.177 400.26 460.177 399.74C460.177 399.28 460.317 398.81 460.597 398.33L470.887 380.57C471.147 380.13 471.447 379.8 471.787 379.58C472.147 379.36 472.507 379.25 472.867 379.25C473.367 379.25 473.787 379.43 474.127 379.79C474.487 380.13 474.667 380.57 474.667 381.11C474.667 381.57 474.527 382.04 474.247 382.52L463.957 400.28ZM459.487 392.42C457.727 392.42 456.347 391.86 455.347 390.74C454.347 389.62 453.847 388.01 453.847 385.91C453.847 383.85 454.347 382.27 455.347 381.17C456.347 380.05 457.727 379.49 459.487 379.49C461.247 379.49 462.627 380.05 463.627 381.17C464.627 382.27 465.127 383.86 465.127 385.94C465.127 388.04 464.627 389.65 463.627 390.77C462.627 391.87 461.247 392.42 459.487 392.42ZM459.487 389.18C459.947 389.18 460.277 388.94 460.477 388.46C460.697 387.96 460.807 387.12 460.807 385.94C460.807 384.8 460.697 383.99 460.477 383.51C460.257 383.01 459.927 382.76 459.487 382.76C459.027 382.76 458.687 383.01 458.467 383.51C458.267 383.99 458.167 384.8 458.167 385.94C458.167 387.12 458.267 387.96 458.467 388.46C458.687 388.94 459.027 389.18 459.487 389.18ZM475.357 401.21C473.597 401.21 472.217 400.65 471.217 399.53C470.217 398.41 469.717 396.8 469.717 394.7C469.717 392.64 470.217 391.06 471.217 389.96C472.217 388.84 473.597 388.28 475.357 388.28C477.117 388.28 478.497 388.84 479.497 389.96C480.497 391.06 480.997 392.65 480.997 394.73C480.997 396.83 480.497 398.44 479.497 399.56C478.497 400.66 477.117 401.21 475.357 401.21ZM475.357 397.97C475.817 397.97 476.147 397.73 476.347 397.25C476.567 396.75 476.677 395.91 476.677 394.73C476.677 393.59 476.567 392.77 476.347 392.27C476.127 391.77 475.797 391.52 475.357 391.52C474.897 391.52 474.557 391.77 474.337 392.27C474.137 392.75 474.037 393.57 474.037 394.73C474.037 395.91 474.137 396.75 474.337 397.25C474.557 397.73 474.897 397.97 475.357 397.97Z" fill="#242331"/>
<path d="M419.709 350.713H423.43C425.148 350.713 426.708 351.292 428.107 352.451C428.648 352.959 428.993 353.327 429.143 353.555C430.106 354.863 430.588 356.279 430.588 357.803V357.91C430.588 359.811 429.865 361.504 428.42 362.988C427.626 363.704 426.848 364.206 426.086 364.492C425.214 364.831 424.357 365 423.518 365H419.709L419.68 364.971V350.742L419.709 350.713ZM421.564 352.617V363.115H423.283C424.95 363.115 426.333 362.503 427.434 361.279C428.286 360.257 428.713 359.118 428.713 357.861C428.713 356.585 428.277 355.436 427.404 354.414C426.89 353.874 426.49 353.535 426.203 353.398C425.949 353.216 425.546 353.027 424.992 352.832C424.504 352.676 423.866 352.598 423.078 352.598H421.584L421.564 352.617ZM433.96 359.16H438.696V359.15C438.585 358.818 438.332 358.441 437.934 358.018C437.44 357.594 436.899 357.383 436.313 357.383C435.421 357.383 434.689 357.855 434.116 358.799L433.96 359.16ZM436.186 355.498H436.47C437.42 355.498 438.335 355.879 439.214 356.641C439.643 357.064 439.94 357.428 440.102 357.734C440.578 358.574 440.815 359.453 440.815 360.371V360.664C440.815 360.846 440.802 360.938 440.776 360.938H433.784C433.934 361.634 434.181 362.155 434.526 362.5C435.054 363.066 435.652 363.35 436.323 363.35C437.169 363.35 437.879 362.923 438.452 362.07C438.563 361.855 438.628 361.745 438.647 361.738C439.767 362.246 440.333 362.507 440.346 362.52C440.255 362.747 440.05 363.089 439.731 363.545C438.774 364.671 437.645 365.234 436.343 365.234H436.304C434.962 365.234 433.81 364.639 432.846 363.447C432.182 362.516 431.85 361.497 431.85 360.391V360.352C431.85 358.828 432.433 357.539 433.598 356.484C434.458 355.827 435.32 355.498 436.186 355.498ZM446.882 355.586H447.127C447.771 355.586 448.438 355.775 449.129 356.152V356.162C448.855 357.399 448.705 358.047 448.679 358.105C448.054 357.695 447.501 357.49 447.019 357.49H446.863C446.238 357.49 445.688 357.721 445.212 358.184C444.854 358.62 444.675 359.447 444.675 360.664V364.961L444.656 364.99H442.83L442.8 364.961V355.791L442.83 355.771H444.656L444.675 355.791V356.494C445.392 355.889 446.127 355.586 446.882 355.586ZM454.913 355.645H455C456.263 355.645 457.282 356.025 458.057 356.787C458.799 356.025 459.821 355.645 461.123 355.645H461.426C463.145 355.645 464.362 356.292 465.079 357.588C465.313 358.096 465.43 358.597 465.43 359.092V364.971L465.411 365H463.575L463.555 364.971V359.111C463.555 358.408 463.164 357.923 462.383 357.656C462.142 357.572 461.836 357.529 461.465 357.529H461.084C460.069 357.529 459.411 357.868 459.112 358.545C459.034 358.727 458.995 358.932 458.995 359.16V364.971L458.975 365H457.139L457.12 364.971V359.326C457.12 358.63 456.895 358.154 456.446 357.9C456.101 357.653 455.632 357.529 455.039 357.529H454.883C454.089 357.529 453.526 357.653 453.194 357.9C452.764 358.161 452.549 358.643 452.549 359.346V364.971L452.52 365H450.694L450.664 364.971V355.723L450.694 355.693H452.52L452.549 355.723V356.25H452.559C452.891 356.068 453.327 355.898 453.868 355.742C454.148 355.677 454.496 355.645 454.913 355.645ZM472.259 355.498C473.346 355.498 474.277 355.911 475.052 356.738V355.664L475.081 355.645H476.927L476.946 355.664V364.98L476.927 365H475.081L475.052 364.98V364.033C474.323 364.834 473.385 365.234 472.239 365.234H472.23C470.804 365.234 469.593 364.658 468.597 363.506C467.855 362.575 467.484 361.53 467.484 360.371V360.361C467.484 358.929 468.037 357.692 469.144 356.65C470.062 355.882 471.1 355.498 472.259 355.498ZM469.368 360.361C469.368 361.39 469.811 362.233 470.696 362.891C471.191 363.19 471.66 363.34 472.103 363.34H472.318C472.943 363.34 473.548 363.086 474.134 362.578C474.746 361.953 475.052 361.217 475.052 360.371V360.361C475.052 359.32 474.609 358.48 473.724 357.842C473.236 357.542 472.754 357.393 472.279 357.393H472.122C471.341 357.393 470.635 357.754 470.003 358.477C469.58 359.076 469.368 359.704 469.368 360.361ZM479.84 350.703H481.715L481.725 350.713V355.635H484.146L484.156 355.645V357.52L484.146 357.529H481.725V362.246C481.725 362.611 481.848 362.855 482.096 362.979C482.265 363.07 482.441 363.115 482.623 363.115C482.877 363.115 483.238 363.031 483.707 362.861L483.785 362.822L484.488 364.59C484.332 364.655 484.078 364.74 483.727 364.844C483.31 364.948 482.945 365 482.633 365H482.613C481.995 365 481.415 364.811 480.875 364.434C480.784 364.368 480.663 364.264 480.514 364.121L480.348 363.906C480.243 363.77 480.162 363.636 480.104 363.506C479.928 363.109 479.84 362.712 479.84 362.314V357.529H478.453L478.443 357.52V355.645L478.453 355.635H479.84V350.703ZM487.596 360.381C487.596 361.09 487.828 361.735 488.29 362.314C488.492 362.542 488.648 362.692 488.759 362.764C489.273 363.154 489.833 363.35 490.438 363.35C491.18 363.35 491.838 363.07 492.411 362.51C492.639 362.269 492.798 362.061 492.889 361.885C493.156 361.403 493.29 360.905 493.29 360.391V360.361C493.29 359.613 493.033 358.939 492.518 358.34C492.297 358.105 492.147 357.972 492.069 357.939C491.958 357.848 491.854 357.777 491.757 357.725C491.333 357.497 490.894 357.383 490.438 357.383C489.748 357.383 489.117 357.64 488.544 358.154C488.342 358.356 488.215 358.506 488.163 358.604C487.785 359.131 487.596 359.723 487.596 360.381ZM490.438 355.498C491.499 355.498 492.47 355.84 493.348 356.523C493.472 356.615 493.648 356.777 493.876 357.012C494.325 357.513 494.644 358.027 494.833 358.555C495.061 359.141 495.175 359.749 495.175 360.381C495.175 361.201 494.976 361.989 494.579 362.744C494.442 362.992 494.257 363.262 494.022 363.555C493.768 363.848 493.563 364.053 493.407 364.17C493.231 364.313 493.065 364.434 492.909 364.531C492.134 365 491.327 365.234 490.487 365.234H490.399C489.514 365.234 488.664 364.974 487.85 364.453C487.694 364.336 487.554 364.225 487.43 364.121C487.177 363.906 486.994 363.724 486.884 363.574C486.747 363.418 486.62 363.249 486.503 363.066C486.373 362.858 486.262 362.656 486.171 362.461C485.865 361.784 485.712 361.11 485.712 360.439V360.293C485.712 359.564 485.894 358.831 486.259 358.096C486.363 357.894 486.486 357.689 486.63 357.48C486.74 357.324 486.906 357.126 487.128 356.885C487.447 356.592 487.675 356.403 487.811 356.318C488.612 355.771 489.488 355.498 490.438 355.498ZM497.267 350.703H499.132L499.142 350.713V364.99L499.132 365H497.267L497.257 364.99V350.713L497.267 350.703ZM503.09 360.381C503.09 361.09 503.321 361.735 503.784 362.314C503.985 362.542 504.142 362.692 504.252 362.764C504.767 363.154 505.327 363.35 505.932 363.35C506.674 363.35 507.332 363.07 507.905 362.51C508.133 362.269 508.292 362.061 508.383 361.885C508.65 361.403 508.784 360.905 508.784 360.391V360.361C508.784 359.613 508.526 358.939 508.012 358.34C507.791 358.105 507.641 357.972 507.563 357.939C507.452 357.848 507.348 357.777 507.25 357.725C506.827 357.497 506.388 357.383 505.932 357.383C505.242 357.383 504.61 357.64 504.037 358.154C503.836 358.356 503.709 358.506 503.657 358.604C503.279 359.131 503.09 359.723 503.09 360.381ZM505.932 355.498C506.993 355.498 507.963 355.84 508.842 356.523C508.966 356.615 509.142 356.777 509.37 357.012C509.819 357.513 510.138 358.027 510.327 358.555C510.554 359.141 510.668 359.749 510.668 360.381C510.668 361.201 510.47 361.989 510.073 362.744C509.936 362.992 509.75 363.262 509.516 363.555C509.262 363.848 509.057 364.053 508.901 364.17C508.725 364.313 508.559 364.434 508.403 364.531C507.628 365 506.821 365.234 505.981 365.234H505.893C505.008 365.234 504.158 364.974 503.344 364.453C503.188 364.336 503.048 364.225 502.924 364.121C502.67 363.906 502.488 363.724 502.377 363.574C502.241 363.418 502.114 363.249 501.996 363.066C501.866 362.858 501.756 362.656 501.664 362.461C501.358 361.784 501.205 361.11 501.205 360.439V360.293C501.205 359.564 501.388 358.831 501.752 358.096C501.857 357.894 501.98 357.689 502.123 357.48C502.234 357.324 502.4 357.126 502.621 356.885C502.94 356.592 503.168 356.403 503.305 356.318C504.106 355.771 504.982 355.498 505.932 355.498ZM514.402 359.102C514.402 359.531 514.607 359.915 515.017 360.254C515.453 360.586 515.948 360.752 516.501 360.752H516.54C517.029 360.752 517.481 360.618 517.898 360.352C518.236 360.124 518.467 359.831 518.591 359.473C518.63 359.342 518.65 359.219 518.65 359.102C518.65 358.665 518.441 358.278 518.025 357.939C517.595 357.614 517.094 357.451 516.521 357.451C515.967 357.451 515.473 357.611 515.036 357.93C514.613 358.268 514.402 358.659 514.402 359.102ZM514.079 365.957V365.986C514.079 366.279 514.291 366.559 514.714 366.826C515.287 367.158 515.99 367.324 516.823 367.324H516.931C517.667 367.324 518.318 367.171 518.884 366.865C519.021 366.794 519.164 366.689 519.314 366.553C519.555 366.312 519.675 366.087 519.675 365.879C519.675 365.586 519.46 365.339 519.03 365.137C518.887 365.072 518.702 365.013 518.474 364.961C518.09 364.889 517.754 364.854 517.468 364.854L516.374 364.863C515.879 364.863 515.424 364.834 515.007 364.775C514.883 364.834 514.753 364.912 514.616 365.01C514.258 365.296 514.079 365.612 514.079 365.957ZM520.368 355.508H520.739L520.749 355.518V357.393L520.739 357.402H520.31C520.225 357.402 520.147 357.419 520.075 357.451C520.381 357.965 520.534 358.516 520.534 359.102C520.534 359.798 520.316 360.443 519.88 361.035C519.808 361.146 519.662 361.312 519.441 361.533C519.03 361.898 518.611 362.161 518.181 362.324C517.647 362.533 517.094 362.637 516.521 362.637C515.922 362.637 515.339 362.52 514.773 362.285C514.642 362.389 514.577 362.477 514.577 362.549V362.559C514.577 362.721 514.812 362.839 515.28 362.91C515.599 362.956 516.01 362.979 516.511 362.979L517.341 362.969C518.611 362.969 519.62 363.219 520.368 363.721C520.486 363.792 520.642 363.926 520.837 364.121C521.013 364.31 521.146 364.486 521.238 364.648C521.459 365.052 521.57 365.462 521.57 365.879C521.57 366.523 521.319 367.135 520.818 367.715C520.596 367.949 520.43 368.102 520.32 368.174C520.085 368.343 519.877 368.477 519.695 368.574C519.538 368.659 519.349 368.743 519.128 368.828C518.933 368.9 518.698 368.971 518.425 369.043C517.924 369.154 517.455 369.209 517.019 369.209H516.736C515.98 369.209 515.245 369.082 514.529 368.828C514.229 368.711 513.965 368.584 513.738 368.447C513.568 368.35 513.383 368.216 513.181 368.047C512.946 367.819 512.81 367.673 512.771 367.607C512.634 367.425 512.536 367.269 512.478 367.139C512.289 366.761 512.195 366.393 512.195 366.035V365.879C512.195 365.651 512.247 365.381 512.351 365.068C512.429 364.867 512.53 364.671 512.654 364.482C512.732 364.365 512.859 364.215 513.034 364.033L513.21 363.867C513.021 363.581 512.927 363.275 512.927 362.949V362.881C512.927 362.451 513.106 361.953 513.464 361.387C513.217 361.113 513.057 360.905 512.986 360.762C512.914 360.664 512.826 360.492 512.722 360.244C512.585 359.86 512.517 359.499 512.517 359.16V359.033C512.517 358.447 512.702 357.865 513.073 357.285C513.165 357.148 513.282 357.002 513.425 356.846C513.659 356.611 513.822 356.465 513.913 356.406C514.141 356.237 514.389 356.09 514.655 355.967C515.254 355.7 515.86 355.566 516.472 355.566H516.579C517.315 355.566 518.021 355.752 518.698 356.123C518.848 355.986 518.975 355.889 519.079 355.83C519.457 355.615 519.887 355.508 520.368 355.508ZM525.879 355.645V364.99L525.869 365H523.994L523.984 364.99V355.645H525.879ZM524.893 350.703H524.971C525.257 350.703 525.527 350.814 525.781 351.035C526.035 351.296 526.162 351.585 526.162 351.904V351.963C526.162 352.256 526.051 352.529 525.83 352.783C525.57 353.037 525.28 353.164 524.961 353.164H524.902C524.603 353.164 524.329 353.05 524.082 352.822C523.945 352.679 523.854 352.552 523.809 352.441C523.737 352.279 523.701 352.122 523.701 351.973V351.895C523.701 351.595 523.822 351.315 524.062 351.055L524.209 350.928C524.437 350.778 524.665 350.703 524.893 350.703ZM532.034 355.107C533.225 355.107 534.238 355.479 535.071 356.221C535.26 356.403 535.393 356.546 535.471 356.65L535.589 356.836C535.576 356.855 535.4 356.966 535.061 357.168C534.729 357.37 534.374 357.594 533.997 357.842C533.88 357.699 533.762 357.585 533.645 357.5C533.209 357.168 532.679 357.002 532.054 357.002H532.014C531.331 357.002 530.784 357.165 530.374 357.49C530.146 357.686 530.032 357.897 530.032 358.125C530.032 358.268 530.094 358.379 530.218 358.457C530.341 358.561 530.582 358.675 530.94 358.799C531.435 358.962 532.203 359.134 533.245 359.316C533.583 359.395 533.873 359.486 534.114 359.59C534.342 359.681 534.57 359.805 534.798 359.961C534.902 360.033 535.048 360.163 535.237 360.352C535.712 360.872 535.95 361.458 535.95 362.109V362.139C535.95 362.803 535.703 363.424 535.208 364.004C534.999 364.219 534.85 364.352 534.759 364.404C534.498 364.587 534.283 364.714 534.114 364.785C533.45 365.091 532.744 365.244 531.995 365.244H531.927C530.95 365.244 530.058 364.987 529.251 364.473C529.075 364.355 528.886 364.202 528.684 364.014C528.496 363.831 528.365 363.688 528.294 363.584C528.164 363.421 528.05 363.252 527.952 363.076L529.583 362.139H529.593L529.671 362.275C529.742 362.386 529.856 362.516 530.012 362.666C530.305 362.939 530.67 363.135 531.106 363.252C531.393 363.317 531.679 363.35 531.966 363.35C532.539 363.35 533.05 363.223 533.499 362.969C533.583 362.923 533.688 362.842 533.811 362.725C533.981 362.523 534.065 362.321 534.065 362.119C534.065 361.761 533.789 361.478 533.235 361.27C533.053 361.204 532.718 361.133 532.229 361.055C531.181 360.853 530.4 360.641 529.886 360.42C529.664 360.329 529.446 360.212 529.231 360.068C528.736 359.749 528.411 359.342 528.255 358.848C528.177 358.626 528.137 358.392 528.137 358.145V358.086C528.137 357.467 528.369 356.888 528.831 356.348C529.026 356.146 529.166 356.016 529.251 355.957C529.472 355.794 529.68 355.664 529.876 355.566C530.527 355.26 531.246 355.107 532.034 355.107ZM538.189 350.703H540.064L540.074 350.713V355.635H542.496L542.505 355.645V357.52L542.496 357.529H540.074V362.246C540.074 362.611 540.198 362.855 540.445 362.979C540.614 363.07 540.79 363.115 540.972 363.115C541.226 363.115 541.588 363.031 542.056 362.861L542.134 362.822L542.838 364.59C542.681 364.655 542.427 364.74 542.076 364.844C541.659 364.948 541.295 365 540.982 365H540.963C540.344 365 539.765 364.811 539.224 364.434C539.133 364.368 539.013 364.264 538.863 364.121L538.697 363.906C538.593 363.77 538.511 363.636 538.453 363.506C538.277 363.109 538.189 362.712 538.189 362.314V357.529H536.802L536.793 357.52V355.645L536.802 355.635H538.189V350.703Z" fill="#BDBDBD"/>
<circle cx="399" cy="358" r="6" fill="white" stroke="#29F0A8" stroke-width="4"/>
<path d="M431.58 314.62C432.46 314.62 433.11 314.8 433.53 315.16C433.97 315.5 434.19 316.04 434.19 316.78C434.19 317.54 433.97 318.1 433.53 318.46C433.11 318.82 432.46 319 431.58 319H420.63C419.91 319 419.34 318.79 418.92 318.37C418.5 317.93 418.29 317.38 418.29 316.72C418.29 315.86 418.63 315.08 419.31 314.38L425.67 307.75C426.99 306.37 427.65 305.1 427.65 303.94C427.65 303.26 427.45 302.74 427.05 302.38C426.67 302.02 426.12 301.84 425.4 301.84C424.82 301.84 424.28 301.93 423.78 302.11C423.3 302.27 422.74 302.51 422.1 302.83L421.5 303.13C421.42 303.17 421.26 303.26 421.02 303.4C420.8 303.52 420.6 303.61 420.42 303.67C420.24 303.73 420.05 303.76 419.85 303.76C419.35 303.76 418.93 303.54 418.59 303.1C418.25 302.64 418.08 302.1 418.08 301.48C418.08 301.04 418.14 300.68 418.26 300.4C418.4 300.12 418.65 299.86 419.01 299.62C419.95 298.98 421 298.48 422.16 298.12C423.34 297.76 424.5 297.58 425.64 297.58C427.12 297.58 428.42 297.83 429.54 298.33C430.66 298.81 431.52 299.51 432.12 300.43C432.74 301.33 433.05 302.37 433.05 303.55C433.05 304.77 432.8 305.89 432.3 306.91C431.82 307.91 430.99 309.03 429.81 310.27L425.55 314.62H431.58ZM444.018 319.27C441.398 319.27 439.398 318.34 438.018 316.48C436.638 314.62 435.948 311.93 435.948 308.41C435.948 304.91 436.638 302.23 438.018 300.37C439.398 298.51 441.398 297.58 444.018 297.58C446.618 297.58 448.608 298.51 449.988 300.37C451.388 302.23 452.088 304.91 452.088 308.41C452.088 311.93 451.398 314.62 450.018 316.48C448.638 318.34 446.638 319.27 444.018 319.27ZM444.018 315.1C444.978 315.1 445.668 314.58 446.088 313.54C446.508 312.5 446.718 310.79 446.718 308.41C446.718 306.05 446.508 304.35 446.088 303.31C445.668 302.27 444.978 301.75 444.018 301.75C443.058 301.75 442.368 302.27 441.948 303.31C441.528 304.33 441.318 306.03 441.318 308.41C441.318 310.79 441.528 312.5 441.948 313.54C442.368 314.58 443.058 315.1 444.018 315.1ZM463.986 318.28C463.726 318.72 463.416 319.05 463.056 319.27C462.716 319.49 462.366 319.6 462.006 319.6C461.526 319.6 461.106 319.42 460.746 319.06C460.386 318.7 460.206 318.26 460.206 317.74C460.206 317.28 460.346 316.81 460.626 316.33L470.916 298.57C471.176 298.13 471.476 297.8 471.816 297.58C472.176 297.36 472.536 297.25 472.896 297.25C473.396 297.25 473.816 297.43 474.156 297.79C474.516 298.13 474.696 298.57 474.696 299.11C474.696 299.57 474.556 300.04 474.276 300.52L463.986 318.28ZM459.516 310.42C457.756 310.42 456.376 309.86 455.376 308.74C454.376 307.62 453.876 306.01 453.876 303.91C453.876 301.85 454.376 300.27 455.376 299.17C456.376 298.05 457.756 297.49 459.516 297.49C461.276 297.49 462.656 298.05 463.656 299.17C464.656 300.27 465.156 301.86 465.156 303.94C465.156 306.04 464.656 307.65 463.656 308.77C462.656 309.87 461.276 310.42 459.516 310.42ZM459.516 307.18C459.976 307.18 460.306 306.94 460.506 306.46C460.726 305.96 460.836 305.12 460.836 303.94C460.836 302.8 460.726 301.99 460.506 301.51C460.286 301.01 459.956 300.76 459.516 300.76C459.056 300.76 458.716 301.01 458.496 301.51C458.296 301.99 458.196 302.8 458.196 303.94C458.196 305.12 458.296 305.96 458.496 306.46C458.716 306.94 459.056 307.18 459.516 307.18ZM475.386 319.21C473.626 319.21 472.246 318.65 471.246 317.53C470.246 316.41 469.746 314.8 469.746 312.7C469.746 310.64 470.246 309.06 471.246 307.96C472.246 306.84 473.626 306.28 475.386 306.28C477.146 306.28 478.526 306.84 479.526 307.96C480.526 309.06 481.026 310.65 481.026 312.73C481.026 314.83 480.526 316.44 479.526 317.56C478.526 318.66 477.146 319.21 475.386 319.21ZM475.386 315.97C475.846 315.97 476.176 315.73 476.376 315.25C476.596 314.75 476.706 313.91 476.706 312.73C476.706 311.59 476.596 310.77 476.376 310.27C476.156 309.77 475.826 309.52 475.386 309.52C474.926 309.52 474.586 309.77 474.366 310.27C474.166 310.75 474.066 311.57 474.066 312.73C474.066 313.91 474.166 314.75 474.366 315.25C474.586 315.73 474.926 315.97 475.386 315.97Z" fill="#242331"/>
<path d="M419.689 268.703H427.365L427.375 268.713V270.588H421.564V274.914H426.164L426.174 274.924V276.779L426.164 276.789H421.564V281.115H427.375V282.99L427.365 283H419.689L419.68 282.99V268.713L419.689 268.703ZM433.804 273.498C434.891 273.498 435.822 273.911 436.596 274.738V273.664L436.626 273.645H438.471L438.491 273.664V282.98L438.471 283H436.626L436.596 282.98V282.033C435.867 282.834 434.93 283.234 433.784 283.234H433.774C432.348 283.234 431.137 282.658 430.141 281.506C429.399 280.575 429.028 279.53 429.028 278.371V278.361C429.028 276.929 429.582 275.692 430.688 274.65C431.606 273.882 432.645 273.498 433.804 273.498ZM430.913 278.361C430.913 279.39 431.356 280.233 432.241 280.891C432.736 281.19 433.205 281.34 433.647 281.34H433.862C434.487 281.34 435.093 281.086 435.679 280.578C436.29 279.953 436.596 279.217 436.596 278.371V278.361C436.596 277.32 436.154 276.48 435.268 275.842C434.78 275.542 434.298 275.393 433.823 275.393H433.667C432.886 275.393 432.179 275.754 431.548 276.477C431.124 277.076 430.913 277.704 430.913 278.361ZM445.242 273.586H445.486C446.13 273.586 446.798 273.775 447.488 274.152V274.162C447.214 275.399 447.065 276.047 447.039 276.105C446.414 275.695 445.86 275.49 445.379 275.49H445.222C444.597 275.49 444.047 275.721 443.572 276.184C443.214 276.62 443.035 277.447 443.035 278.664V282.961L443.015 282.99H441.189L441.16 282.961V273.791L441.189 273.771H443.015L443.035 273.791V274.494C443.751 273.889 444.487 273.586 445.242 273.586ZM453.9 268.703H455.931L462.786 278.918L463.411 279.865H463.421V268.732L463.45 268.703H465.286L465.316 268.732V282.971L465.286 283H463.255C462.904 282.505 461.605 280.565 459.359 277.18L455.745 271.828V282.971L455.726 283H453.9L453.87 282.971V268.732L453.9 268.703ZM469.459 278.381C469.459 279.09 469.69 279.735 470.152 280.314C470.354 280.542 470.51 280.692 470.621 280.764C471.135 281.154 471.695 281.35 472.301 281.35C473.043 281.35 473.701 281.07 474.273 280.51C474.501 280.269 474.661 280.061 474.752 279.885C475.019 279.403 475.152 278.905 475.152 278.391V278.361C475.152 277.613 474.895 276.939 474.381 276.34C474.16 276.105 474.01 275.972 473.932 275.939C473.821 275.848 473.717 275.777 473.619 275.725C473.196 275.497 472.757 275.383 472.301 275.383C471.611 275.383 470.979 275.64 470.406 276.154C470.204 276.356 470.077 276.506 470.025 276.604C469.648 277.131 469.459 277.723 469.459 278.381ZM472.301 273.498C473.362 273.498 474.332 273.84 475.211 274.523C475.335 274.615 475.51 274.777 475.738 275.012C476.188 275.513 476.507 276.027 476.695 276.555C476.923 277.141 477.037 277.749 477.037 278.381C477.037 279.201 476.839 279.989 476.441 280.744C476.305 280.992 476.119 281.262 475.885 281.555C475.631 281.848 475.426 282.053 475.27 282.17C475.094 282.313 474.928 282.434 474.771 282.531C473.997 283 473.189 283.234 472.35 283.234H472.262C471.376 283.234 470.527 282.974 469.713 282.453C469.557 282.336 469.417 282.225 469.293 282.121C469.039 281.906 468.857 281.724 468.746 281.574C468.609 281.418 468.482 281.249 468.365 281.066C468.235 280.858 468.124 280.656 468.033 280.461C467.727 279.784 467.574 279.11 467.574 278.439V278.293C467.574 277.564 467.757 276.831 468.121 276.096C468.225 275.894 468.349 275.689 468.492 275.48C468.603 275.324 468.769 275.126 468.99 274.885C469.309 274.592 469.537 274.403 469.674 274.318C470.475 273.771 471.35 273.498 472.301 273.498ZM482.499 273.107C483.69 273.107 484.703 273.479 485.536 274.221C485.725 274.403 485.858 274.546 485.936 274.65L486.054 274.836C486.04 274.855 485.865 274.966 485.526 275.168C485.194 275.37 484.839 275.594 484.462 275.842C484.345 275.699 484.227 275.585 484.11 275.5C483.674 275.168 483.143 275.002 482.518 275.002H482.479C481.796 275.002 481.249 275.165 480.839 275.49C480.611 275.686 480.497 275.897 480.497 276.125C480.497 276.268 480.559 276.379 480.682 276.457C480.806 276.561 481.047 276.675 481.405 276.799C481.9 276.962 482.668 277.134 483.71 277.316C484.048 277.395 484.338 277.486 484.579 277.59C484.807 277.681 485.035 277.805 485.263 277.961C485.367 278.033 485.513 278.163 485.702 278.352C486.177 278.872 486.415 279.458 486.415 280.109V280.139C486.415 280.803 486.167 281.424 485.673 282.004C485.464 282.219 485.315 282.352 485.223 282.404C484.963 282.587 484.748 282.714 484.579 282.785C483.915 283.091 483.208 283.244 482.46 283.244H482.391C481.415 283.244 480.523 282.987 479.716 282.473C479.54 282.355 479.351 282.202 479.149 282.014C478.96 281.831 478.83 281.688 478.759 281.584C478.628 281.421 478.514 281.252 478.417 281.076L480.048 280.139H480.057L480.136 280.275C480.207 280.386 480.321 280.516 480.477 280.666C480.77 280.939 481.135 281.135 481.571 281.252C481.858 281.317 482.144 281.35 482.43 281.35C483.003 281.35 483.514 281.223 483.964 280.969C484.048 280.923 484.152 280.842 484.276 280.725C484.445 280.523 484.53 280.321 484.53 280.119C484.53 279.761 484.253 279.478 483.7 279.27C483.518 279.204 483.182 279.133 482.694 279.055C481.646 278.853 480.865 278.641 480.35 278.42C480.129 278.329 479.911 278.212 479.696 278.068C479.201 277.749 478.876 277.342 478.72 276.848C478.641 276.626 478.602 276.392 478.602 276.145V276.086C478.602 275.467 478.833 274.888 479.296 274.348C479.491 274.146 479.631 274.016 479.716 273.957C479.937 273.794 480.145 273.664 480.341 273.566C480.992 273.26 481.711 273.107 482.499 273.107ZM489.699 277.16H494.435V277.15C494.324 276.818 494.071 276.441 493.673 276.018C493.179 275.594 492.638 275.383 492.052 275.383C491.16 275.383 490.428 275.855 489.855 276.799L489.699 277.16ZM491.925 273.498H492.209C493.159 273.498 494.074 273.879 494.953 274.641C495.382 275.064 495.679 275.428 495.841 275.734C496.317 276.574 496.554 277.453 496.554 278.371V278.664C496.554 278.846 496.541 278.938 496.515 278.938H489.523C489.673 279.634 489.92 280.155 490.265 280.5C490.793 281.066 491.392 281.35 492.062 281.35C492.908 281.35 493.618 280.923 494.191 280.07C494.302 279.855 494.367 279.745 494.386 279.738C495.506 280.246 496.073 280.507 496.086 280.52C495.994 280.747 495.789 281.089 495.47 281.545C494.513 282.671 493.384 283.234 492.082 283.234H492.043C490.701 283.234 489.549 282.639 488.586 281.447C487.921 280.516 487.589 279.497 487.589 278.391V278.352C487.589 276.828 488.172 275.539 489.338 274.484C490.197 273.827 491.06 273.498 491.925 273.498ZM506.736 271.838C506.736 272.111 506.801 272.342 506.931 272.531C507.146 272.902 507.413 273.332 507.732 273.82C507.803 273.944 507.842 274.009 507.849 274.016C508.265 273.781 508.679 273.508 509.089 273.195C509.239 273.078 509.411 272.922 509.607 272.727C509.874 272.447 510.007 272.202 510.007 271.994V271.916C510.007 271.356 509.743 270.979 509.216 270.783C508.93 270.666 508.653 270.607 508.386 270.607H508.366C507.898 270.607 507.471 270.764 507.087 271.076C506.911 271.245 506.814 271.372 506.794 271.457C506.755 271.522 506.736 271.649 506.736 271.838ZM504.568 279.885C504.568 280.692 504.945 281.245 505.7 281.545C505.922 281.63 506.215 281.672 506.579 281.672C507.686 281.672 508.809 281.245 509.948 280.393C508.939 278.973 508.044 277.691 507.263 276.545C506.931 276.753 506.566 277.017 506.169 277.336C506.013 277.46 505.775 277.674 505.456 277.98L505.271 278.186C504.984 278.518 504.795 278.801 504.704 279.035C504.613 279.276 504.568 279.559 504.568 279.885ZM508.376 268.713C509.021 268.713 509.662 268.876 510.3 269.201C510.482 269.299 510.655 269.413 510.818 269.543C511.534 270.148 511.892 270.939 511.892 271.916C511.892 272.391 511.797 272.801 511.609 273.146C511.211 273.954 510.307 274.768 508.894 275.588C509.629 276.662 510.43 277.811 511.296 279.035L511.384 279.143L512.263 278.264L513.601 279.592C513.002 280.204 512.634 280.572 512.497 280.695L513.376 281.906V281.916C513.337 281.955 512.849 282.316 511.911 283C511.885 283.02 511.869 283.029 511.863 283.029L511.052 281.926C509.587 283.013 508.093 283.557 506.57 283.557C505.912 283.557 505.355 283.456 504.9 283.254C503.988 282.87 503.344 282.238 502.966 281.359C502.777 280.891 502.683 280.419 502.683 279.943V279.807C502.683 279.416 502.741 279.009 502.859 278.586C502.95 278.326 503.051 278.098 503.161 277.902C503.292 277.668 503.467 277.411 503.689 277.131C504.034 276.714 504.434 276.317 504.89 275.939C505.326 275.588 505.7 275.308 506.013 275.1L506.218 274.973C505.749 274.243 505.394 273.661 505.154 273.225C504.945 272.801 504.841 272.355 504.841 271.887V271.77C504.841 270.799 505.307 269.992 506.238 269.348C506.908 268.924 507.621 268.713 508.376 268.713ZM518.977 268.703H528.45L528.46 268.713V270.578L528.45 270.588H524.661V282.99L524.651 283H522.776L522.766 282.99V270.588H518.977L518.968 270.578V268.713L518.977 268.703ZM529.8 268.703H531.685V274.25H531.695C532.027 274.068 532.463 273.898 533.004 273.742C533.283 273.677 533.632 273.645 534.048 273.645H534.136C535.816 273.645 537.02 274.279 537.75 275.549C538.004 276.05 538.13 276.639 538.13 277.316V282.971L538.111 283H536.275L536.255 282.971V277.297C536.255 276.496 535.92 275.969 535.25 275.715C534.97 275.591 534.612 275.529 534.175 275.529H534.019C533.225 275.529 532.662 275.653 532.33 275.9C531.9 276.161 531.685 276.643 531.685 277.346V283H529.8V268.703ZM544.852 273.586H545.096C545.741 273.586 546.408 273.775 547.098 274.152V274.162C546.825 275.399 546.675 276.047 546.649 276.105C546.024 275.695 545.47 275.49 544.989 275.49H544.832C544.207 275.49 543.657 275.721 543.182 276.184C542.824 276.62 542.645 277.447 542.645 278.664V282.961L542.625 282.99H540.799L540.77 282.961V273.791L540.799 273.771H542.625L542.645 273.791V274.494C543.361 273.889 544.097 273.586 544.852 273.586ZM549.904 278.381C549.904 279.09 550.135 279.735 550.597 280.314C550.799 280.542 550.955 280.692 551.066 280.764C551.58 281.154 552.14 281.35 552.745 281.35C553.488 281.35 554.145 281.07 554.718 280.51C554.946 280.269 555.105 280.061 555.196 279.885C555.463 279.403 555.597 278.905 555.597 278.391V278.361C555.597 277.613 555.34 276.939 554.825 276.34C554.604 276.105 554.454 275.972 554.376 275.939C554.265 275.848 554.161 275.777 554.064 275.725C553.64 275.497 553.201 275.383 552.745 275.383C552.055 275.383 551.424 275.64 550.851 276.154C550.649 276.356 550.522 276.506 550.47 276.604C550.092 277.131 549.904 277.723 549.904 278.381ZM552.745 273.498C553.807 273.498 554.777 273.84 555.655 274.523C555.779 274.615 555.955 274.777 556.183 275.012C556.632 275.513 556.951 276.027 557.14 276.555C557.368 277.141 557.482 277.749 557.482 278.381C557.482 279.201 557.283 279.989 556.886 280.744C556.749 280.992 556.564 281.262 556.329 281.555C556.075 281.848 555.87 282.053 555.714 282.17C555.538 282.313 555.372 282.434 555.216 282.531C554.441 283 553.634 283.234 552.794 283.234H552.706C551.821 283.234 550.971 282.974 550.157 282.453C550.001 282.336 549.861 282.225 549.738 282.121C549.484 281.906 549.301 281.724 549.191 281.574C549.054 281.418 548.927 281.249 548.81 281.066C548.68 280.858 548.569 280.656 548.478 280.461C548.172 279.784 548.019 279.11 548.019 278.439V278.293C548.019 277.564 548.201 276.831 548.566 276.096C548.67 275.894 548.793 275.689 548.937 275.48C549.047 275.324 549.213 275.126 549.435 274.885C549.754 274.592 549.982 274.403 550.118 274.318C550.919 273.771 551.795 273.498 552.745 273.498ZM563.744 273.498C564.831 273.498 565.762 273.911 566.537 274.738V273.664L566.566 273.645H568.412L568.432 273.664V282.98L568.412 283H566.566L566.537 282.98V282.033C565.808 282.834 564.87 283.234 563.725 283.234H563.715C562.289 283.234 561.078 282.658 560.082 281.506C559.34 280.575 558.969 279.53 558.969 278.371V278.361C558.969 276.929 559.522 275.692 560.629 274.65C561.547 273.882 562.585 273.498 563.744 273.498ZM560.854 278.361C560.854 279.39 561.296 280.233 562.182 280.891C562.676 281.19 563.145 281.34 563.588 281.34H563.803C564.428 281.34 565.033 281.086 565.619 280.578C566.231 279.953 566.537 279.217 566.537 278.371V278.361C566.537 277.32 566.094 276.48 565.209 275.842C564.721 275.542 564.239 275.393 563.764 275.393H563.607C562.826 275.393 562.12 275.754 561.488 276.477C561.065 277.076 560.854 277.704 560.854 278.361ZM571.325 268.703H573.2L573.21 268.713V273.635H575.632L575.641 273.645V275.52L575.632 275.529H573.21V280.246C573.21 280.611 573.333 280.855 573.581 280.979C573.75 281.07 573.926 281.115 574.108 281.115C574.362 281.115 574.723 281.031 575.192 280.861L575.27 280.822L575.973 282.59C575.817 282.655 575.563 282.74 575.212 282.844C574.795 282.948 574.43 283 574.118 283H574.098C573.48 283 572.901 282.811 572.36 282.434C572.269 282.368 572.149 282.264 571.999 282.121L571.833 281.906C571.729 281.77 571.647 281.636 571.589 281.506C571.413 281.109 571.325 280.712 571.325 280.314V275.529H569.938L569.929 275.52V273.645L569.938 273.635H571.325V268.703Z" fill="#BDBDBD"/>
<circle cx="399" cy="276" r="6" fill="white" stroke="#FF77E9" stroke-width="4"/>
<path d="M431.58 232.62C432.46 232.62 433.11 232.8 433.53 233.16C433.97 233.5 434.19 234.04 434.19 234.78C434.19 235.54 433.97 236.1 433.53 236.46C433.11 236.82 432.46 237 431.58 237H420.63C419.91 237 419.34 236.79 418.92 236.37C418.5 235.93 418.29 235.38 418.29 234.72C418.29 233.86 418.63 233.08 419.31 232.38L425.67 225.75C426.99 224.37 427.65 223.1 427.65 221.94C427.65 221.26 427.45 220.74 427.05 220.38C426.67 220.02 426.12 219.84 425.4 219.84C424.82 219.84 424.28 219.93 423.78 220.11C423.3 220.27 422.74 220.51 422.1 220.83L421.5 221.13C421.42 221.17 421.26 221.26 421.02 221.4C420.8 221.52 420.6 221.61 420.42 221.67C420.24 221.73 420.05 221.76 419.85 221.76C419.35 221.76 418.93 221.54 418.59 221.1C418.25 220.64 418.08 220.1 418.08 219.48C418.08 219.04 418.14 218.68 418.26 218.4C418.4 218.12 418.65 217.86 419.01 217.62C419.95 216.98 421 216.48 422.16 216.12C423.34 215.76 424.5 215.58 425.64 215.58C427.12 215.58 428.42 215.83 429.54 216.33C430.66 216.81 431.52 217.51 432.12 218.43C432.74 219.33 433.05 220.37 433.05 221.55C433.05 222.77 432.8 223.89 432.3 224.91C431.82 225.91 430.99 227.03 429.81 228.27L425.55 232.62H431.58ZM445.488 223.17C446.788 223.17 447.938 223.46 448.938 224.04C449.958 224.6 450.748 225.4 451.308 226.44C451.888 227.46 452.178 228.64 452.178 229.98C452.178 231.42 451.838 232.69 451.158 233.79C450.478 234.89 449.518 235.74 448.278 236.34C447.038 236.94 445.608 237.24 443.988 237.24C442.748 237.24 441.528 237.06 440.328 236.7C439.148 236.34 438.128 235.84 437.268 235.2C436.948 234.94 436.708 234.67 436.548 234.39C436.408 234.09 436.338 233.74 436.338 233.34C436.338 232.72 436.508 232.2 436.848 231.78C437.188 231.34 437.608 231.12 438.108 231.12C438.408 231.12 438.658 231.16 438.858 231.24C439.058 231.32 439.358 231.47 439.758 231.69L440.358 231.99C440.978 232.29 441.538 232.53 442.038 232.71C442.558 232.89 443.118 232.98 443.718 232.98C444.838 232.98 445.668 232.76 446.208 232.32C446.748 231.86 447.018 231.15 447.018 230.19C447.018 229.29 446.738 228.59 446.178 228.09C445.618 227.59 444.838 227.34 443.838 227.34C443.238 227.34 442.688 227.39 442.188 227.49C441.708 227.59 441.138 227.77 440.478 228.03C440.058 228.25 439.608 228.36 439.128 228.36C438.568 228.36 438.098 228.2 437.718 227.88C437.338 227.54 437.148 227.1 437.148 226.56V218.43C437.148 217.59 437.368 216.95 437.808 216.51C438.248 216.07 438.878 215.85 439.698 215.85H448.998C450.738 215.85 451.608 216.54 451.608 217.92C451.608 219.32 450.738 220.02 448.998 220.02H442.518V223.71C443.358 223.35 444.348 223.17 445.488 223.17ZM463.986 236.28C463.726 236.72 463.416 237.05 463.056 237.27C462.716 237.49 462.366 237.6 462.006 237.6C461.526 237.6 461.106 237.42 460.746 237.06C460.386 236.7 460.206 236.26 460.206 235.74C460.206 235.28 460.346 234.81 460.626 234.33L470.916 216.57C471.176 216.13 471.476 215.8 471.816 215.58C472.176 215.36 472.536 215.25 472.896 215.25C473.396 215.25 473.816 215.43 474.156 215.79C474.516 216.13 474.696 216.57 474.696 217.11C474.696 217.57 474.556 218.04 474.276 218.52L463.986 236.28ZM459.516 228.42C457.756 228.42 456.376 227.86 455.376 226.74C454.376 225.62 453.876 224.01 453.876 221.91C453.876 219.85 454.376 218.27 455.376 217.17C456.376 216.05 457.756 215.49 459.516 215.49C461.276 215.49 462.656 216.05 463.656 217.17C464.656 218.27 465.156 219.86 465.156 221.94C465.156 224.04 464.656 225.65 463.656 226.77C462.656 227.87 461.276 228.42 459.516 228.42ZM459.516 225.18C459.976 225.18 460.306 224.94 460.506 224.46C460.726 223.96 460.836 223.12 460.836 221.94C460.836 220.8 460.726 219.99 460.506 219.51C460.286 219.01 459.956 218.76 459.516 218.76C459.056 218.76 458.716 219.01 458.496 219.51C458.296 219.99 458.196 220.8 458.196 221.94C458.196 223.12 458.296 223.96 458.496 224.46C458.716 224.94 459.056 225.18 459.516 225.18ZM475.386 237.21C473.626 237.21 472.246 236.65 471.246 235.53C470.246 234.41 469.746 232.8 469.746 230.7C469.746 228.64 470.246 227.06 471.246 225.96C472.246 224.84 473.626 224.28 475.386 224.28C477.146 224.28 478.526 224.84 479.526 225.96C480.526 227.06 481.026 228.65 481.026 230.73C481.026 232.83 480.526 234.44 479.526 235.56C478.526 236.66 477.146 237.21 475.386 237.21ZM475.386 233.97C475.846 233.97 476.176 233.73 476.376 233.25C476.596 232.75 476.706 231.91 476.706 230.73C476.706 229.59 476.596 228.77 476.376 228.27C476.156 227.77 475.826 227.52 475.386 227.52C474.926 227.52 474.586 227.77 474.366 228.27C474.166 228.75 474.066 229.57 474.066 230.73C474.066 231.91 474.166 232.75 474.366 233.25C474.586 233.73 474.926 233.97 475.386 233.97Z" fill="#242331"/>
<path d="M425.695 186.703H425.715C427.557 186.703 429.169 187.419 430.549 188.852C431.037 189.411 431.382 189.893 431.584 190.297C431.532 190.342 430.982 190.645 429.934 191.205C429.758 190.886 429.494 190.518 429.143 190.102C428.133 189.086 426.991 188.578 425.715 188.578C424.419 188.578 423.27 189.092 422.268 190.121C421.304 191.208 420.822 192.449 420.822 193.842C420.822 195.456 421.438 196.833 422.668 197.973C423.599 198.728 424.585 199.105 425.627 199.105H425.832C426.978 199.105 428.049 198.633 429.045 197.689C429.468 197.221 429.768 196.814 429.943 196.469L431.594 197.338V197.377C431.372 197.787 431.079 198.22 430.715 198.676C429.296 200.225 427.629 201 425.715 201C423.814 201 422.154 200.238 420.734 198.715C419.543 197.276 418.947 195.665 418.947 193.881V193.822C418.947 192.019 419.553 190.401 420.764 188.969C422.17 187.458 423.814 186.703 425.695 186.703ZM437.612 191.498C438.699 191.498 439.63 191.911 440.405 192.738V191.664L440.434 191.645H442.28L442.3 191.664V200.98L442.28 201H440.434L440.405 200.98V200.033C439.676 200.834 438.738 201.234 437.593 201.234H437.583C436.157 201.234 434.946 200.658 433.95 199.506C433.208 198.575 432.837 197.53 432.837 196.371V196.361C432.837 194.929 433.39 193.692 434.497 192.65C435.415 191.882 436.453 191.498 437.612 191.498ZM434.721 196.361C434.721 197.39 435.164 198.233 436.05 198.891C436.544 199.19 437.013 199.34 437.456 199.34H437.671C438.296 199.34 438.901 199.086 439.487 198.578C440.099 197.953 440.405 197.217 440.405 196.371V196.361C440.405 195.32 439.962 194.48 439.077 193.842C438.589 193.542 438.107 193.393 437.632 193.393H437.475C436.694 193.393 435.988 193.754 435.356 194.477C434.933 195.076 434.721 195.704 434.721 196.361ZM449.05 191.586H449.295C449.939 191.586 450.606 191.775 451.296 192.152V192.162C451.023 193.399 450.873 194.047 450.847 194.105C450.222 193.695 449.669 193.49 449.187 193.49H449.031C448.406 193.49 447.856 193.721 447.38 194.184C447.022 194.62 446.843 195.447 446.843 196.664V200.961L446.824 200.99H444.998L444.968 200.961V191.791L444.998 191.771H446.824L446.843 191.791V192.494C447.56 191.889 448.295 191.586 449.05 191.586ZM459.854 196.352C459.854 195.648 459.636 195.02 459.2 194.467C459.154 194.402 459.04 194.281 458.858 194.105C458.662 193.93 458.467 193.793 458.272 193.695C457.836 193.487 457.429 193.383 457.051 193.383C456.205 193.383 455.489 193.708 454.903 194.359C454.414 194.952 454.17 195.616 454.17 196.352V196.391C454.17 196.833 454.265 197.263 454.454 197.68C454.564 197.921 454.73 198.171 454.952 198.432C455.537 199.044 456.228 199.35 457.022 199.35C457.412 199.35 457.806 199.258 458.204 199.076C458.353 199.005 458.532 198.891 458.741 198.734L458.916 198.578C459.073 198.422 459.193 198.285 459.278 198.168C459.662 197.628 459.854 197.038 459.854 196.4V196.352ZM461.739 186.713V201H459.854V200.023C459.743 200.141 459.636 200.248 459.532 200.346C459.336 200.508 459.164 200.635 459.014 200.727C458.819 200.844 458.597 200.945 458.35 201.029C457.855 201.166 457.435 201.234 457.09 201.234H456.963C456.123 201.234 455.319 200.997 454.551 200.521C454.395 200.43 454.226 200.313 454.043 200.17C453.887 200.046 453.682 199.841 453.428 199.555C453.194 199.262 453.011 198.992 452.881 198.744C452.478 197.989 452.276 197.198 452.276 196.371C452.276 195.746 452.39 195.141 452.618 194.555C452.813 194.034 453.135 193.516 453.584 193.002C453.812 192.774 453.985 192.615 454.102 192.523C454.981 191.84 455.948 191.498 457.002 191.498H457.012C457.924 191.498 458.734 191.781 459.444 192.348C459.613 192.484 459.746 192.618 459.844 192.748H459.854V186.713L459.864 186.703H461.729L461.739 186.713ZM466.409 191.645V200.99L466.4 201H464.525L464.515 200.99V191.645H466.409ZM465.423 186.703H465.501C465.788 186.703 466.058 186.814 466.312 187.035C466.566 187.296 466.693 187.585 466.693 187.904V187.963C466.693 188.256 466.582 188.529 466.361 188.783C466.1 189.037 465.81 189.164 465.491 189.164H465.433C465.133 189.164 464.86 189.05 464.612 188.822C464.476 188.679 464.385 188.552 464.339 188.441C464.267 188.279 464.232 188.122 464.232 187.973V187.895C464.232 187.595 464.352 187.315 464.593 187.055L464.739 186.928C464.967 186.778 465.195 186.703 465.423 186.703ZM470.455 196.381C470.455 197.09 470.686 197.735 471.148 198.314C471.35 198.542 471.507 198.692 471.617 198.764C472.132 199.154 472.691 199.35 473.297 199.35C474.039 199.35 474.697 199.07 475.27 198.51C475.497 198.269 475.657 198.061 475.748 197.885C476.015 197.403 476.148 196.905 476.148 196.391V196.361C476.148 195.613 475.891 194.939 475.377 194.34C475.156 194.105 475.006 193.972 474.928 193.939C474.817 193.848 474.713 193.777 474.615 193.725C474.192 193.497 473.753 193.383 473.297 193.383C472.607 193.383 471.975 193.64 471.402 194.154C471.201 194.356 471.074 194.506 471.021 194.604C470.644 195.131 470.455 195.723 470.455 196.381ZM473.297 191.498C474.358 191.498 475.328 191.84 476.207 192.523C476.331 192.615 476.507 192.777 476.734 193.012C477.184 193.513 477.503 194.027 477.691 194.555C477.919 195.141 478.033 195.749 478.033 196.381C478.033 197.201 477.835 197.989 477.438 198.744C477.301 198.992 477.115 199.262 476.881 199.555C476.627 199.848 476.422 200.053 476.266 200.17C476.09 200.313 475.924 200.434 475.768 200.531C474.993 201 474.186 201.234 473.346 201.234H473.258C472.372 201.234 471.523 200.974 470.709 200.453C470.553 200.336 470.413 200.225 470.289 200.121C470.035 199.906 469.853 199.724 469.742 199.574C469.605 199.418 469.479 199.249 469.361 199.066C469.231 198.858 469.12 198.656 469.029 198.461C468.723 197.784 468.57 197.11 468.57 196.439V196.293C468.57 195.564 468.753 194.831 469.117 194.096C469.221 193.894 469.345 193.689 469.488 193.48C469.599 193.324 469.765 193.126 469.986 192.885C470.305 192.592 470.533 192.403 470.67 192.318C471.471 191.771 472.346 191.498 473.297 191.498ZM480.126 186.703H481.991L482.001 186.713V200.99L481.991 201H480.126L480.116 200.99V186.713L480.126 186.703ZM485.949 196.381C485.949 197.09 486.18 197.735 486.642 198.314C486.844 198.542 487 198.692 487.111 198.764C487.625 199.154 488.185 199.35 488.791 199.35C489.533 199.35 490.19 199.07 490.763 198.51C490.991 198.269 491.151 198.061 491.242 197.885C491.509 197.403 491.642 196.905 491.642 196.391V196.361C491.642 195.613 491.385 194.939 490.871 194.34C490.649 194.105 490.5 193.972 490.421 193.939C490.311 193.848 490.207 193.777 490.109 193.725C489.686 193.497 489.246 193.383 488.791 193.383C488.101 193.383 487.469 193.64 486.896 194.154C486.694 194.356 486.567 194.506 486.515 194.604C486.138 195.131 485.949 195.723 485.949 196.381ZM488.791 191.498C489.852 191.498 490.822 191.84 491.701 192.523C491.824 192.615 492 192.777 492.228 193.012C492.677 193.513 492.996 194.027 493.185 194.555C493.413 195.141 493.527 195.749 493.527 196.381C493.527 197.201 493.328 197.989 492.931 198.744C492.795 198.992 492.609 199.262 492.375 199.555C492.121 199.848 491.916 200.053 491.759 200.17C491.584 200.313 491.418 200.434 491.261 200.531C490.487 201 489.679 201.234 488.839 201.234H488.752C487.866 201.234 487.017 200.974 486.203 200.453C486.046 200.336 485.907 200.225 485.783 200.121C485.529 199.906 485.347 199.724 485.236 199.574C485.099 199.418 484.972 199.249 484.855 199.066C484.725 198.858 484.614 198.656 484.523 198.461C484.217 197.784 484.064 197.11 484.064 196.439V196.293C484.064 195.564 484.246 194.831 484.611 194.096C484.715 193.894 484.839 193.689 484.982 193.48C485.093 193.324 485.259 193.126 485.48 192.885C485.799 192.592 486.027 192.403 486.164 192.318C486.964 191.771 487.84 191.498 488.791 191.498ZM497.26 195.102C497.26 195.531 497.465 195.915 497.875 196.254C498.312 196.586 498.806 196.752 499.36 196.752H499.399C499.887 196.752 500.34 196.618 500.756 196.352C501.095 196.124 501.326 195.831 501.45 195.473C501.489 195.342 501.508 195.219 501.508 195.102C501.508 194.665 501.3 194.278 500.883 193.939C500.454 193.614 499.952 193.451 499.379 193.451C498.826 193.451 498.331 193.611 497.895 193.93C497.472 194.268 497.26 194.659 497.26 195.102ZM496.938 201.957V201.986C496.938 202.279 497.149 202.559 497.573 202.826C498.146 203.158 498.849 203.324 499.682 203.324H499.789C500.525 203.324 501.176 203.171 501.743 202.865C501.879 202.794 502.023 202.689 502.172 202.553C502.413 202.312 502.534 202.087 502.534 201.879C502.534 201.586 502.319 201.339 501.889 201.137C501.746 201.072 501.56 201.013 501.332 200.961C500.948 200.889 500.613 200.854 500.327 200.854L499.233 200.863C498.738 200.863 498.282 200.834 497.866 200.775C497.742 200.834 497.612 200.912 497.475 201.01C497.117 201.296 496.938 201.612 496.938 201.957ZM503.227 191.508H503.598L503.608 191.518V193.393L503.598 193.402H503.168C503.084 193.402 503.006 193.419 502.934 193.451C503.24 193.965 503.393 194.516 503.393 195.102C503.393 195.798 503.175 196.443 502.739 197.035C502.667 197.146 502.521 197.312 502.299 197.533C501.889 197.898 501.469 198.161 501.039 198.324C500.506 198.533 499.952 198.637 499.379 198.637C498.78 198.637 498.198 198.52 497.631 198.285C497.501 198.389 497.436 198.477 497.436 198.549V198.559C497.436 198.721 497.67 198.839 498.139 198.91C498.458 198.956 498.868 198.979 499.37 198.979L500.2 198.969C501.469 198.969 502.478 199.219 503.227 199.721C503.344 199.792 503.5 199.926 503.696 200.121C503.871 200.31 504.005 200.486 504.096 200.648C504.317 201.052 504.428 201.462 504.428 201.879C504.428 202.523 504.177 203.135 503.676 203.715C503.455 203.949 503.289 204.102 503.178 204.174C502.944 204.343 502.735 204.477 502.553 204.574C502.397 204.659 502.208 204.743 501.987 204.828C501.791 204.9 501.557 204.971 501.284 205.043C500.782 205.154 500.314 205.209 499.877 205.209H499.594C498.839 205.209 498.103 205.082 497.387 204.828C497.088 204.711 496.824 204.584 496.596 204.447C496.427 204.35 496.241 204.216 496.039 204.047C495.805 203.819 495.668 203.673 495.629 203.607C495.493 203.425 495.395 203.269 495.336 203.139C495.148 202.761 495.053 202.393 495.053 202.035V201.879C495.053 201.651 495.105 201.381 495.209 201.068C495.287 200.867 495.388 200.671 495.512 200.482C495.59 200.365 495.717 200.215 495.893 200.033L496.069 199.867C495.88 199.581 495.786 199.275 495.786 198.949V198.881C495.786 198.451 495.965 197.953 496.323 197.387C496.075 197.113 495.916 196.905 495.844 196.762C495.773 196.664 495.685 196.492 495.58 196.244C495.444 195.86 495.375 195.499 495.375 195.16V195.033C495.375 194.447 495.561 193.865 495.932 193.285C496.023 193.148 496.14 193.002 496.284 192.846C496.518 192.611 496.681 192.465 496.772 192.406C497 192.237 497.247 192.09 497.514 191.967C498.113 191.7 498.718 191.566 499.33 191.566H499.438C500.174 191.566 500.88 191.752 501.557 192.123C501.707 191.986 501.834 191.889 501.938 191.83C502.315 191.615 502.745 191.508 503.227 191.508ZM507.751 191.645C507.758 191.651 507.787 191.716 507.839 191.84L509.226 195.131L510.72 198.637C510.739 198.598 510.879 198.272 511.14 197.66L512.439 194.701L513.786 191.645H515.847L513.757 196.42L512.009 200.414L510.202 204.545L509.909 205.209H507.849L507.839 205.199L509.695 201L507.78 196.625L505.827 192.191L505.593 191.645H507.751Z" fill="#BDBDBD"/>
<circle cx="399" cy="194" r="6" fill="white" stroke="#704CFF" stroke-width="4"/>
<path d="M432.36 151.62C433.26 151.62 433.92 151.8 434.34 152.16C434.76 152.52 434.97 153.06 434.97 153.78C434.97 155.26 434.1 156 432.36 156H421.95C420.21 156 419.34 155.26 419.34 153.78C419.34 153.06 419.55 152.52 419.97 152.16C420.39 151.8 421.05 151.62 421.95 151.62H424.38V140.79L421.98 142.2C421.64 142.4 421.29 142.5 420.93 142.5C420.37 142.5 419.89 142.26 419.49 141.78C419.09 141.28 418.89 140.73 418.89 140.13C418.89 139.31 419.24 138.69 419.94 138.27L424.74 135.48C425.62 134.98 426.45 134.73 427.23 134.73C428.03 134.73 428.67 134.97 429.15 135.45C429.65 135.93 429.9 136.58 429.9 137.4V151.62H432.36ZM443.988 156.27C441.368 156.27 439.368 155.34 437.988 153.48C436.608 151.62 435.918 148.93 435.918 145.41C435.918 141.91 436.608 139.23 437.988 137.37C439.368 135.51 441.368 134.58 443.988 134.58C446.588 134.58 448.578 135.51 449.958 137.37C451.358 139.23 452.058 141.91 452.058 145.41C452.058 148.93 451.368 151.62 449.988 153.48C448.608 155.34 446.608 156.27 443.988 156.27ZM443.988 152.1C444.948 152.1 445.638 151.58 446.058 150.54C446.478 149.5 446.688 147.79 446.688 145.41C446.688 143.05 446.478 141.35 446.058 140.31C445.638 139.27 444.948 138.75 443.988 138.75C443.028 138.75 442.338 139.27 441.918 140.31C441.498 141.33 441.288 143.03 441.288 145.41C441.288 147.79 441.498 149.5 441.918 150.54C442.338 151.58 443.028 152.1 443.988 152.1ZM463.957 155.28C463.697 155.72 463.387 156.05 463.027 156.27C462.687 156.49 462.337 156.6 461.977 156.6C461.497 156.6 461.077 156.42 460.717 156.06C460.357 155.7 460.177 155.26 460.177 154.74C460.177 154.28 460.317 153.81 460.597 153.33L470.887 135.57C471.147 135.13 471.447 134.8 471.787 134.58C472.147 134.36 472.507 134.25 472.867 134.25C473.367 134.25 473.787 134.43 474.127 134.79C474.487 135.13 474.667 135.57 474.667 136.11C474.667 136.57 474.527 137.04 474.247 137.52L463.957 155.28ZM459.487 147.42C457.727 147.42 456.347 146.86 455.347 145.74C454.347 144.62 453.847 143.01 453.847 140.91C453.847 138.85 454.347 137.27 455.347 136.17C456.347 135.05 457.727 134.49 459.487 134.49C461.247 134.49 462.627 135.05 463.627 136.17C464.627 137.27 465.127 138.86 465.127 140.94C465.127 143.04 464.627 144.65 463.627 145.77C462.627 146.87 461.247 147.42 459.487 147.42ZM459.487 144.18C459.947 144.18 460.277 143.94 460.477 143.46C460.697 142.96 460.807 142.12 460.807 140.94C460.807 139.8 460.697 138.99 460.477 138.51C460.257 138.01 459.927 137.76 459.487 137.76C459.027 137.76 458.687 138.01 458.467 138.51C458.267 138.99 458.167 139.8 458.167 140.94C458.167 142.12 458.267 142.96 458.467 143.46C458.687 143.94 459.027 144.18 459.487 144.18ZM475.357 156.21C473.597 156.21 472.217 155.65 471.217 154.53C470.217 153.41 469.717 151.8 469.717 149.7C469.717 147.64 470.217 146.06 471.217 144.96C472.217 143.84 473.597 143.28 475.357 143.28C477.117 143.28 478.497 143.84 479.497 144.96C480.497 146.06 480.997 147.65 480.997 149.73C480.997 151.83 480.497 153.44 479.497 154.56C478.497 155.66 477.117 156.21 475.357 156.21ZM475.357 152.97C475.817 152.97 476.147 152.73 476.347 152.25C476.567 151.75 476.677 150.91 476.677 149.73C476.677 148.59 476.567 147.77 476.347 147.27C476.127 146.77 475.797 146.52 475.357 146.52C474.897 146.52 474.557 146.77 474.337 147.27C474.137 147.75 474.037 148.57 474.037 149.73C474.037 150.91 474.137 151.75 474.337 152.25C474.557 152.73 474.897 152.97 475.357 152.97Z" fill="#242331"/>
<path d="M419.709 105.713H423.43C425.148 105.713 426.708 106.292 428.107 107.451C428.648 107.959 428.993 108.327 429.143 108.555C430.106 109.863 430.588 111.279 430.588 112.803V112.91C430.588 114.811 429.865 116.504 428.42 117.988C427.626 118.704 426.848 119.206 426.086 119.492C425.214 119.831 424.357 120 423.518 120H419.709L419.68 119.971V105.742L419.709 105.713ZM421.564 107.617V118.115H423.283C424.95 118.115 426.333 117.503 427.434 116.279C428.286 115.257 428.713 114.118 428.713 112.861C428.713 111.585 428.277 110.436 427.404 109.414C426.89 108.874 426.49 108.535 426.203 108.398C425.949 108.216 425.546 108.027 424.992 107.832C424.504 107.676 423.866 107.598 423.078 107.598H421.584L421.564 107.617ZM433.96 114.16H438.696V114.15C438.585 113.818 438.332 113.441 437.934 113.018C437.44 112.594 436.899 112.383 436.313 112.383C435.421 112.383 434.689 112.855 434.116 113.799L433.96 114.16ZM436.186 110.498H436.47C437.42 110.498 438.335 110.879 439.214 111.641C439.643 112.064 439.94 112.428 440.102 112.734C440.578 113.574 440.815 114.453 440.815 115.371V115.664C440.815 115.846 440.802 115.938 440.776 115.938H433.784C433.934 116.634 434.181 117.155 434.526 117.5C435.054 118.066 435.652 118.35 436.323 118.35C437.169 118.35 437.879 117.923 438.452 117.07C438.563 116.855 438.628 116.745 438.647 116.738C439.767 117.246 440.333 117.507 440.346 117.52C440.255 117.747 440.05 118.089 439.731 118.545C438.774 119.671 437.645 120.234 436.343 120.234H436.304C434.962 120.234 433.81 119.639 432.846 118.447C432.182 117.516 431.85 116.497 431.85 115.391V115.352C431.85 113.828 432.433 112.539 433.598 111.484C434.458 110.827 435.32 110.498 436.186 110.498ZM447.048 110.645H447.136C448.816 110.645 450.02 111.279 450.75 112.549C451.004 113.05 451.13 113.639 451.13 114.316V119.971L451.111 120H449.275L449.255 119.971V114.297C449.255 113.496 448.92 112.969 448.25 112.715C447.97 112.591 447.612 112.529 447.175 112.529H447.019C446.225 112.529 445.662 112.653 445.33 112.9C444.9 113.161 444.685 113.643 444.685 114.346V119.971L444.656 120H442.83L442.8 119.971V110.723L442.83 110.693H444.656L444.685 110.723V111.25H444.695C445.027 111.068 445.463 110.898 446.004 110.742C446.283 110.677 446.632 110.645 447.048 110.645ZM453.995 105.703H455.87L455.879 105.713V110.635H458.301L458.311 110.645V112.52L458.301 112.529H455.879V117.246C455.879 117.611 456.003 117.855 456.25 117.979C456.42 118.07 456.595 118.115 456.778 118.115C457.032 118.115 457.393 118.031 457.862 117.861L457.94 117.822L458.643 119.59C458.487 119.655 458.233 119.74 457.881 119.844C457.465 119.948 457.1 120 456.787 120H456.768C456.149 120 455.57 119.811 455.03 119.434C454.939 119.368 454.818 119.264 454.668 119.121L454.502 118.906C454.398 118.77 454.317 118.636 454.258 118.506C454.082 118.109 453.995 117.712 453.995 117.314V112.529H452.608L452.598 112.52V110.645L452.608 110.635H453.995V105.703ZM462.464 110.645V119.99L462.454 120H460.579L460.57 119.99V110.645H462.464ZM461.478 105.703H461.556C461.842 105.703 462.112 105.814 462.366 106.035C462.62 106.296 462.747 106.585 462.747 106.904V106.963C462.747 107.256 462.637 107.529 462.415 107.783C462.155 108.037 461.865 108.164 461.546 108.164H461.487C461.188 108.164 460.915 108.05 460.667 107.822C460.53 107.679 460.439 107.552 460.394 107.441C460.322 107.279 460.286 107.122 460.286 106.973V106.895C460.286 106.595 460.407 106.315 460.648 106.055L460.794 105.928C461.022 105.778 461.25 105.703 461.478 105.703ZM468.619 110.107C469.811 110.107 470.823 110.479 471.656 111.221C471.845 111.403 471.979 111.546 472.057 111.65L472.174 111.836C472.161 111.855 471.985 111.966 471.646 112.168C471.314 112.37 470.96 112.594 470.582 112.842C470.465 112.699 470.348 112.585 470.23 112.5C469.794 112.168 469.264 112.002 468.639 112.002H468.6C467.916 112.002 467.369 112.165 466.959 112.49C466.731 112.686 466.617 112.897 466.617 113.125C466.617 113.268 466.679 113.379 466.803 113.457C466.926 113.561 467.167 113.675 467.525 113.799C468.02 113.962 468.788 114.134 469.83 114.316C470.169 114.395 470.458 114.486 470.699 114.59C470.927 114.681 471.155 114.805 471.383 114.961C471.487 115.033 471.633 115.163 471.822 115.352C472.298 115.872 472.535 116.458 472.535 117.109V117.139C472.535 117.803 472.288 118.424 471.793 119.004C471.585 119.219 471.435 119.352 471.344 119.404C471.083 119.587 470.868 119.714 470.699 119.785C470.035 120.091 469.329 120.244 468.58 120.244H468.512C467.535 120.244 466.643 119.987 465.836 119.473C465.66 119.355 465.471 119.202 465.27 119.014C465.081 118.831 464.951 118.688 464.879 118.584C464.749 118.421 464.635 118.252 464.537 118.076L466.168 117.139H466.178L466.256 117.275C466.327 117.386 466.441 117.516 466.598 117.666C466.891 117.939 467.255 118.135 467.691 118.252C467.978 118.317 468.264 118.35 468.551 118.35C469.124 118.35 469.635 118.223 470.084 117.969C470.169 117.923 470.273 117.842 470.396 117.725C470.566 117.523 470.65 117.321 470.65 117.119C470.65 116.761 470.374 116.478 469.82 116.27C469.638 116.204 469.303 116.133 468.814 116.055C467.766 115.853 466.985 115.641 466.471 115.42C466.249 115.329 466.031 115.212 465.816 115.068C465.322 114.749 464.996 114.342 464.84 113.848C464.762 113.626 464.723 113.392 464.723 113.145V113.086C464.723 112.467 464.954 111.888 465.416 111.348C465.611 111.146 465.751 111.016 465.836 110.957C466.057 110.794 466.266 110.664 466.461 110.566C467.112 110.26 467.831 110.107 468.619 110.107ZM474.774 105.703H476.649L476.659 105.713V110.635H479.081L479.091 110.645V112.52L479.081 112.529H476.659V117.246C476.659 117.611 476.783 117.855 477.03 117.979C477.199 118.07 477.375 118.115 477.557 118.115C477.811 118.115 478.173 118.031 478.641 117.861L478.72 117.822L479.423 119.59C479.266 119.655 479.013 119.74 478.661 119.844C478.244 119.948 477.88 120 477.567 120H477.548C476.929 120 476.35 119.811 475.809 119.434C475.718 119.368 475.598 119.264 475.448 119.121L475.282 118.906C475.178 118.77 475.096 118.636 475.038 118.506C474.862 118.109 474.774 117.712 474.774 117.314V112.529H473.388L473.378 112.52V110.645L473.388 110.635H474.774V105.703Z" fill="#BDBDBD"/>
<circle cx="399" cy="113" r="6" fill="white" stroke="#FFC700" stroke-width="4"/>
<path d="M216.514 131.816V189.565C258.915 189.565 293.319 223.964 293.319 266.422C293.319 308.851 258.943 343.279 216.514 343.279C174.085 343.279 139.71 308.88 139.71 266.422C139.71 250.105 144.832 235.013 153.483 222.569H153.454L101.35 196.827C89.0572 217.13 82 240.936 82 266.394C82 340.716 142.214 401 216.514 401C290.786 401 351.028 340.745 351.028 266.394C351 192.071 290.786 131.816 216.514 131.816Z" fill="#29F0A8"/>
<path d="M89.8828 176.011L141.987 201.725H142.015C155.902 181.791 178.923 168.721 205.047 168.721V111C156.215 111 113.445 137.056 89.8828 176.011Z" fill="#FFC700"/>
<path d="M351 266.394C351 241.876 344.427 218.896 332.959 199.105H253.565C277.241 212.204 293.319 237.405 293.319 266.394C293.319 308.823 258.943 343.251 216.515 343.251V401C290.786 401 351 340.745 351 266.394Z" fill="#704DFF"/>
<path d="M216.515 131.816V189.565C258.915 189.565 293.319 223.964 293.319 266.422H351.029C351 192.071 290.786 131.816 216.515 131.816Z" fill="#FF77E9"/>
<path d="M187.025 262.18C185.585 262.18 184.332 261.887 183.265 261.3C182.212 260.7 181.398 259.86 180.825 258.78C180.252 257.687 179.965 256.407 179.965 254.94C179.965 253.473 180.252 252.2 180.825 251.12C181.398 250.027 182.212 249.187 183.265 248.6C184.332 248.013 185.585 247.72 187.025 247.72C188.465 247.72 189.712 248.013 190.765 248.6C191.832 249.187 192.645 250.027 193.205 251.12C193.778 252.2 194.065 253.473 194.065 254.94C194.065 256.407 193.778 257.687 193.205 258.78C192.632 259.86 191.812 260.7 190.745 261.3C189.692 261.887 188.452 262.18 187.025 262.18ZM187.025 259.36C188.092 259.36 188.925 258.987 189.525 258.24C190.125 257.48 190.425 256.38 190.425 254.94C190.425 253.5 190.118 252.407 189.505 251.66C188.905 250.913 188.078 250.54 187.025 250.54C185.958 250.54 185.125 250.913 184.525 251.66C183.925 252.393 183.625 253.487 183.625 254.94C183.625 256.393 183.925 257.493 184.525 258.24C185.125 258.987 185.958 259.36 187.025 259.36ZM202.583 252.96C202.73 252.627 202.93 252.38 203.183 252.22C203.45 252.06 203.736 251.98 204.043 251.98C204.483 251.98 204.87 252.127 205.203 252.42C205.55 252.713 205.723 253.067 205.723 253.48C205.723 253.707 205.67 253.927 205.563 254.14L202.063 261.1C201.903 261.433 201.67 261.693 201.363 261.88C201.07 262.053 200.743 262.14 200.383 262.14C200.023 262.14 199.69 262.053 199.383 261.88C199.076 261.693 198.843 261.433 198.683 261.1L195.183 254.14C195.076 253.9 195.023 253.687 195.023 253.5C195.023 253.073 195.203 252.713 195.563 252.42C195.936 252.113 196.363 251.96 196.843 251.96C197.163 251.96 197.456 252.047 197.723 252.22C198.003 252.38 198.216 252.627 198.363 252.96L200.483 257.54L202.583 252.96ZM214.608 258.84C214.915 258.84 215.162 258.96 215.348 259.2C215.548 259.44 215.648 259.753 215.648 260.14C215.648 260.673 215.388 261.08 214.868 261.36C214.415 261.587 213.875 261.78 213.248 261.94C212.635 262.087 212.068 262.16 211.548 262.16C210.455 262.16 209.502 261.953 208.688 261.54C207.875 261.127 207.248 260.533 206.808 259.76C206.368 258.987 206.148 258.08 206.148 257.04C206.148 256.053 206.355 255.173 206.768 254.4C207.195 253.613 207.782 253.007 208.528 252.58C209.288 252.14 210.142 251.92 211.088 251.92C212.008 251.92 212.815 252.12 213.508 252.52C214.202 252.92 214.735 253.487 215.108 254.22C215.495 254.953 215.688 255.813 215.688 256.8C215.688 257.107 215.615 257.347 215.468 257.52C215.335 257.68 215.135 257.76 214.868 257.76H209.588C209.682 258.4 209.888 258.86 210.208 259.14C210.528 259.42 211.002 259.56 211.628 259.56C211.962 259.56 212.268 259.527 212.548 259.46C212.828 259.38 213.142 259.273 213.488 259.14C213.688 259.06 213.882 258.993 214.068 258.94C214.268 258.873 214.448 258.84 214.608 258.84ZM211.188 254.32C210.722 254.32 210.348 254.473 210.068 254.78C209.788 255.073 209.622 255.507 209.568 256.08H212.708C212.628 254.907 212.122 254.32 211.188 254.32ZM223.551 251.96C224.005 251.92 224.365 252.027 224.631 252.28C224.898 252.52 225.031 252.88 225.031 253.36C225.031 253.893 224.905 254.28 224.651 254.52C224.411 254.76 223.971 254.913 223.331 254.98L222.731 255.04C222.065 255.12 221.585 255.333 221.291 255.68C221.011 256.013 220.871 256.473 220.871 257.06V260.48C220.871 261.027 220.698 261.44 220.351 261.72C220.018 261.987 219.598 262.12 219.091 262.12C218.585 262.12 218.158 261.987 217.811 261.72C217.478 261.44 217.311 261.027 217.311 260.48V253.56C217.311 253.053 217.478 252.66 217.811 252.38C218.158 252.1 218.571 251.96 219.051 251.96C219.545 251.96 219.938 252.093 220.231 252.36C220.538 252.627 220.691 253 220.691 253.48V253.86C220.905 253.273 221.251 252.82 221.731 252.5C222.225 252.18 222.738 252.007 223.271 251.98L223.551 251.96ZM230.29 251.92C231.81 251.92 232.93 252.287 233.65 253.02C234.383 253.74 234.75 254.84 234.75 256.32V260.5C234.75 261.007 234.597 261.407 234.29 261.7C233.997 261.98 233.583 262.12 233.05 262.12C232.583 262.12 232.197 261.987 231.89 261.72C231.597 261.453 231.437 261.093 231.41 260.64C231.223 261.12 230.91 261.493 230.47 261.76C230.03 262.027 229.503 262.16 228.89 262.16C228.21 262.16 227.597 262.027 227.05 261.76C226.503 261.48 226.07 261.1 225.75 260.62C225.443 260.127 225.29 259.573 225.29 258.96C225.29 258.253 225.47 257.693 225.83 257.28C226.203 256.853 226.79 256.547 227.59 256.36C228.39 256.173 229.47 256.08 230.83 256.08H231.37V255.84C231.37 255.373 231.263 255.04 231.05 254.84C230.837 254.627 230.477 254.52 229.97 254.52C229.423 254.52 228.623 254.707 227.57 255.08C227.263 255.187 227.003 255.24 226.79 255.24C226.457 255.24 226.19 255.12 225.99 254.88C225.79 254.64 225.69 254.327 225.69 253.94C225.69 253.647 225.75 253.407 225.87 253.22C225.99 253.033 226.183 252.867 226.45 252.72C226.917 252.48 227.503 252.287 228.21 252.14C228.917 251.993 229.61 251.92 230.29 251.92ZM229.73 259.78C230.21 259.78 230.603 259.613 230.91 259.28C231.217 258.933 231.37 258.493 231.37 257.96V257.72H231.05C230.197 257.72 229.59 257.8 229.23 257.96C228.87 258.107 228.69 258.36 228.69 258.72C228.69 259.027 228.783 259.28 228.97 259.48C229.17 259.68 229.423 259.78 229.73 259.78ZM238.525 262.12C238.018 262.12 237.592 261.987 237.245 261.72C236.912 261.44 236.745 261.027 236.745 260.48V249.46C236.745 248.913 236.912 248.5 237.245 248.22C237.592 247.94 238.018 247.8 238.525 247.8C239.032 247.8 239.452 247.94 239.785 248.22C240.132 248.5 240.305 248.913 240.305 249.46V260.48C240.305 261.027 240.132 261.44 239.785 261.72C239.452 261.987 239.032 262.12 238.525 262.12ZM244.15 262.12C243.643 262.12 243.217 261.987 242.87 261.72C242.537 261.44 242.37 261.027 242.37 260.48V249.46C242.37 248.913 242.537 248.5 242.87 248.22C243.217 247.94 243.643 247.8 244.15 247.8C244.657 247.8 245.077 247.94 245.41 248.22C245.757 248.5 245.93 248.913 245.93 249.46V260.48C245.93 261.027 245.757 261.44 245.41 261.72C245.077 261.987 244.657 262.12 244.15 262.12ZM195.613 286.08C196.213 286.08 196.653 286.2 196.933 286.44C197.213 286.68 197.353 287.04 197.353 287.52C197.353 288.507 196.773 289 195.613 289H188.673C187.513 289 186.933 288.507 186.933 287.52C186.933 287.04 187.073 286.68 187.353 286.44C187.633 286.2 188.073 286.08 188.673 286.08H190.293V278.86L188.693 279.8C188.466 279.933 188.233 280 187.993 280C187.62 280 187.3 279.84 187.033 279.52C186.766 279.187 186.633 278.82 186.633 278.42C186.633 277.873 186.866 277.46 187.333 277.18L190.533 275.32C191.12 274.987 191.673 274.82 192.193 274.82C192.726 274.82 193.153 274.98 193.473 275.3C193.806 275.62 193.973 276.053 193.973 276.6V286.08H195.613ZM203.365 289.18C201.619 289.18 200.285 288.56 199.365 287.32C198.445 286.08 197.985 284.287 197.985 281.94C197.985 279.607 198.445 277.82 199.365 276.58C200.285 275.34 201.619 274.72 203.365 274.72C205.099 274.72 206.425 275.34 207.345 276.58C208.279 277.82 208.745 279.607 208.745 281.94C208.745 284.287 208.285 286.08 207.365 287.32C206.445 288.56 205.112 289.18 203.365 289.18ZM203.365 286.4C204.005 286.4 204.465 286.053 204.745 285.36C205.025 284.667 205.165 283.527 205.165 281.94C205.165 280.367 205.025 279.233 204.745 278.54C204.465 277.847 204.005 277.5 203.365 277.5C202.725 277.5 202.265 277.847 201.985 278.54C201.705 279.22 201.565 280.353 201.565 281.94C201.565 283.527 201.705 284.667 201.985 285.36C202.265 286.053 202.725 286.4 203.365 286.4ZM215.357 289.18C213.611 289.18 212.277 288.56 211.357 287.32C210.437 286.08 209.977 284.287 209.977 281.94C209.977 279.607 210.437 277.82 211.357 276.58C212.277 275.34 213.611 274.72 215.357 274.72C217.091 274.72 218.417 275.34 219.337 276.58C220.271 277.82 220.737 279.607 220.737 281.94C220.737 284.287 220.277 286.08 219.357 287.32C218.437 288.56 217.104 289.18 215.357 289.18ZM215.357 286.4C215.997 286.4 216.457 286.053 216.737 285.36C217.017 284.667 217.157 283.527 217.157 281.94C217.157 280.367 217.017 279.233 216.737 278.54C216.457 277.847 215.997 277.5 215.357 277.5C214.717 277.5 214.257 277.847 213.977 278.54C213.697 279.22 213.557 280.353 213.557 281.94C213.557 283.527 213.697 284.667 213.977 285.36C214.257 286.053 214.717 286.4 215.357 286.4ZM228.67 288.52C228.496 288.813 228.29 289.033 228.05 289.18C227.823 289.327 227.59 289.4 227.35 289.4C227.03 289.4 226.75 289.28 226.51 289.04C226.27 288.8 226.15 288.507 226.15 288.16C226.15 287.853 226.243 287.54 226.43 287.22L233.29 275.38C233.463 275.087 233.663 274.867 233.89 274.72C234.13 274.573 234.37 274.5 234.61 274.5C234.943 274.5 235.223 274.62 235.45 274.86C235.69 275.087 235.81 275.38 235.81 275.74C235.81 276.047 235.716 276.36 235.53 276.68L228.67 288.52ZM225.69 283.28C224.516 283.28 223.596 282.907 222.93 282.16C222.263 281.413 221.93 280.34 221.93 278.94C221.93 277.567 222.263 276.513 222.93 275.78C223.596 275.033 224.516 274.66 225.69 274.66C226.863 274.66 227.783 275.033 228.45 275.78C229.116 276.513 229.45 277.573 229.45 278.96C229.45 280.36 229.116 281.433 228.45 282.18C227.783 282.913 226.863 283.28 225.69 283.28ZM225.69 281.12C225.996 281.12 226.216 280.96 226.35 280.64C226.496 280.307 226.57 279.747 226.57 278.96C226.57 278.2 226.496 277.66 226.35 277.34C226.203 277.007 225.983 276.84 225.69 276.84C225.383 276.84 225.156 277.007 225.01 277.34C224.876 277.66 224.81 278.2 224.81 278.96C224.81 279.747 224.876 280.307 225.01 280.64C225.156 280.96 225.383 281.12 225.69 281.12ZM236.27 289.14C235.096 289.14 234.176 288.767 233.51 288.02C232.843 287.273 232.51 286.2 232.51 284.8C232.51 283.427 232.843 282.373 233.51 281.64C234.176 280.893 235.096 280.52 236.27 280.52C237.443 280.52 238.363 280.893 239.03 281.64C239.696 282.373 240.03 283.433 240.03 284.82C240.03 286.22 239.696 287.293 239.03 288.04C238.363 288.773 237.443 289.14 236.27 289.14ZM236.27 286.98C236.576 286.98 236.796 286.82 236.93 286.5C237.076 286.167 237.15 285.607 237.15 284.82C237.15 284.06 237.076 283.513 236.93 283.18C236.783 282.847 236.563 282.68 236.27 282.68C235.963 282.68 235.736 282.847 235.59 283.18C235.456 283.5 235.39 284.047 235.39 284.82C235.39 285.607 235.456 286.167 235.59 286.5C235.736 286.82 235.963 286.98 236.27 286.98Z" fill="#242331"/>
<g clip-path="url(#clip0_1_3253)">
<path d="M556.75 54.3333C558.309 54.3333 559.584 53.0583 559.584 51.5C559.584 49.9416 558.309 48.6666 556.75 48.6666C555.192 48.6666 553.917 49.9416 553.917 51.5C553.917 53.0583 555.192 54.3333 556.75 54.3333ZM556.75 57.1666C555.192 57.1666 553.917 58.4416 553.917 60C553.917 61.5583 555.192 62.8333 556.75 62.8333C558.309 62.8333 559.584 61.5583 559.584 60C559.584 58.4416 558.309 57.1666 556.75 57.1666ZM556.75 65.6666C555.192 65.6666 553.917 66.9416 553.917 68.5C553.917 70.0583 555.192 71.3333 556.75 71.3333C558.309 71.3333 559.584 70.0583 559.584 68.5C559.584 66.9416 558.309 65.6666 556.75 65.6666Z" fill="#BDBDBD"/>
</g>
<path d="M520.667 60V69.9167H500.833V60H498V69.9167C498 71.475 499.275 72.75 500.833 72.75H520.667C522.225 72.75 523.5 71.475 523.5 69.9167V60H520.667ZM512.167 60.9492L515.836 57.2942L517.833 59.2917L510.75 66.375L503.667 59.2917L505.664 57.2942L509.333 60.9492V47.25H512.167V60.9492Z" fill="#BDBDBD"/>
<path d="M41.824 52.2V69H45.328V52.2H41.824ZM47.536 69C49.296 69 50.832 68.656 52.144 67.968C53.472 67.28 54.504 66.312 55.24 65.064C55.976 63.8 56.344 62.312 56.344 60.6C56.344 58.888 55.976 57.408 55.24 56.16C54.504 54.896 53.472 53.92 52.144 53.232C50.832 52.544 49.296 52.2 47.536 52.2H44.032V55.32H47.416C48.152 55.32 48.848 55.424 49.504 55.632C50.16 55.824 50.736 56.136 51.232 56.568C51.728 57 52.112 57.552 52.384 58.224C52.672 58.88 52.816 59.672 52.816 60.6C52.816 61.528 52.672 62.328 52.384 63C52.112 63.656 51.728 64.2 51.232 64.632C50.736 65.064 50.16 65.384 49.504 65.592C48.848 65.784 48.152 65.88 47.416 65.88H44.032V69H47.536ZM63.9237 69.24C65.2517 69.24 66.3877 68.984 67.3317 68.472C68.2917 67.944 69.0597 67.16 69.6357 66.12L66.9237 65.28C66.6037 65.808 66.1957 66.208 65.6997 66.48C65.2197 66.736 64.6357 66.864 63.9477 66.864C63.3397 66.864 62.8197 66.728 62.3877 66.456C61.9557 66.184 61.6277 65.792 61.4037 65.28C61.1957 64.768 61.0917 64.144 61.0917 63.408C61.1077 62.64 61.2197 62 61.4277 61.488C61.6517 60.96 61.9637 60.568 62.3637 60.312C62.7797 60.04 63.2917 59.904 63.8997 59.904C64.3957 59.904 64.8277 60.016 65.1957 60.24C65.5637 60.464 65.8437 60.768 66.0357 61.152C66.2437 61.536 66.3477 62 66.3477 62.544C66.3477 62.656 66.3157 62.8 66.2517 62.976C66.2037 63.136 66.1477 63.264 66.0837 63.36L66.9237 62.256H59.7477V64.176H69.6357C69.6517 64.08 69.6597 63.952 69.6597 63.792C69.6757 63.632 69.6837 63.48 69.6837 63.336C69.6837 62.152 69.4597 61.144 69.0117 60.312C68.5637 59.464 67.9077 58.824 67.0437 58.392C66.1957 57.944 65.1637 57.72 63.9477 57.72C62.7317 57.72 61.6757 57.96 60.7797 58.44C59.8837 58.904 59.1877 59.568 58.6917 60.432C58.2117 61.28 57.9717 62.296 57.9717 63.48C57.9717 64.648 58.2117 65.664 58.6917 66.528C59.1877 67.376 59.8837 68.04 60.7797 68.52C61.6757 69 62.7237 69.24 63.9237 69.24ZM75.0762 74.28V57.96H71.9562V74.28H75.0762ZM84.1482 63.48C84.1482 62.216 83.9002 61.152 83.4042 60.288C82.9082 59.408 82.2522 58.744 81.4362 58.296C80.6362 57.848 79.7722 57.624 78.8442 57.624C77.9002 57.624 77.0762 57.864 76.3722 58.344C75.6842 58.824 75.1482 59.504 74.7642 60.384C74.3962 61.248 74.2122 62.28 74.2122 63.48C74.2122 64.664 74.3962 65.696 74.7642 66.576C75.1482 67.456 75.6842 68.136 76.3722 68.616C77.0762 69.096 77.9002 69.336 78.8442 69.336C79.7722 69.336 80.6362 69.112 81.4362 68.664C82.2522 68.216 82.9082 67.552 83.4042 66.672C83.9002 65.792 84.1482 64.728 84.1482 63.48ZM80.9322 63.48C80.9322 64.136 80.7962 64.696 80.5242 65.16C80.2522 65.624 79.8842 65.976 79.4202 66.216C78.9722 66.456 78.4762 66.576 77.9322 66.576C77.4682 66.576 77.0122 66.464 76.5642 66.24C76.1322 66 75.7722 65.648 75.4842 65.184C75.2122 64.72 75.0762 64.152 75.0762 63.48C75.0762 62.808 75.2122 62.24 75.4842 61.776C75.7722 61.312 76.1322 60.968 76.5642 60.744C77.0122 60.504 77.4682 60.384 77.9322 60.384C78.4762 60.384 78.9722 60.504 79.4202 60.744C79.8842 60.984 80.2522 61.336 80.5242 61.8C80.7962 62.264 80.9322 62.824 80.9322 63.48ZM88.6737 65.568C88.6737 65.248 88.7457 64.984 88.8897 64.776C89.0337 64.552 89.2577 64.384 89.5617 64.272C89.8657 64.144 90.2577 64.08 90.7377 64.08C91.3297 64.08 91.8897 64.16 92.4177 64.32C92.9617 64.48 93.4497 64.72 93.8817 65.04V63.6C93.7217 63.408 93.4577 63.208 93.0897 63C92.7217 62.792 92.2657 62.616 91.7217 62.472C91.1937 62.328 90.5777 62.256 89.8737 62.256C88.4977 62.256 87.4337 62.568 86.6817 63.192C85.9297 63.816 85.5537 64.664 85.5537 65.736C85.5537 66.488 85.7297 67.128 86.0817 67.656C86.4497 68.168 86.9297 68.56 87.5217 68.832C88.1137 69.104 88.7537 69.24 89.4417 69.24C90.1137 69.24 90.7537 69.12 91.3617 68.88C91.9857 68.64 92.4897 68.28 92.8737 67.8C93.2737 67.32 93.4737 66.728 93.4737 66.024L93.0897 64.584C93.0897 65.112 92.9697 65.568 92.7297 65.952C92.4897 66.32 92.1777 66.608 91.7937 66.816C91.4097 67.008 90.9777 67.104 90.4977 67.104C90.1617 67.104 89.8497 67.048 89.5617 66.936C89.2897 66.808 89.0737 66.632 88.9137 66.408C88.7537 66.168 88.6737 65.888 88.6737 65.568ZM87.4737 61.08C87.6337 60.968 87.8817 60.832 88.2177 60.672C88.5537 60.512 88.9537 60.376 89.4177 60.264C89.8817 60.152 90.3697 60.096 90.8817 60.096C91.2177 60.096 91.5217 60.128 91.7937 60.192C92.0657 60.256 92.2977 60.36 92.4897 60.504C92.6977 60.648 92.8497 60.832 92.9457 61.056C93.0417 61.264 93.0897 61.52 93.0897 61.824V69H96.0897V61.176C96.0897 60.424 95.8817 59.792 95.4657 59.28C95.0497 58.752 94.4737 58.352 93.7377 58.08C93.0017 57.808 92.1617 57.672 91.2177 57.672C90.1937 57.672 89.2657 57.816 88.4337 58.104C87.6017 58.376 86.8977 58.664 86.3217 58.968L87.4737 61.08ZM102.029 57.96H98.9813V69H102.029V57.96ZM105.269 61.2L106.685 58.56C106.461 58.272 106.165 58.056 105.797 57.912C105.445 57.768 105.069 57.696 104.669 57.696C104.093 57.696 103.533 57.904 102.989 58.32C102.445 58.72 102.005 59.264 101.669 59.952C101.333 60.624 101.165 61.4 101.165 62.28L102.029 63.144C102.029 62.616 102.093 62.168 102.221 61.8C102.365 61.416 102.573 61.12 102.845 60.912C103.117 60.704 103.445 60.6 103.829 60.6C104.149 60.6 104.413 60.656 104.621 60.768C104.845 60.864 105.061 61.008 105.269 61.2ZM106.917 57.96V60.576H113.733V57.96H106.917ZM108.813 54.12V69H111.813V54.12H108.813ZM131.708 61.944C131.708 61.048 131.58 60.288 131.324 59.664C131.084 59.024 130.708 58.544 130.196 58.224C129.684 57.888 129.02 57.72 128.204 57.72C127.452 57.72 126.78 57.88 126.188 58.2C125.612 58.52 125.124 58.992 124.724 59.616C124.484 58.992 124.1 58.52 123.572 58.2C123.044 57.88 122.372 57.72 121.556 57.72C120.82 57.72 120.188 57.88 119.66 58.2C119.132 58.52 118.708 58.984 118.388 59.592V57.96H115.388V69H118.388V62.28C118.388 61.8 118.468 61.392 118.628 61.056C118.788 60.704 119.012 60.448 119.3 60.288C119.588 60.112 119.924 60.024 120.308 60.024C120.884 60.024 121.3 60.216 121.556 60.6C121.812 60.968 121.94 61.528 121.94 62.28V69H125.036V62.28C125.036 61.8 125.116 61.392 125.276 61.056C125.436 60.704 125.66 60.448 125.948 60.288C126.236 60.112 126.572 60.024 126.956 60.024C127.532 60.024 127.948 60.216 128.204 60.6C128.46 60.968 128.588 61.528 128.588 62.28V69H131.708V61.944ZM139.978 69.24C141.306 69.24 142.442 68.984 143.386 68.472C144.346 67.944 145.114 67.16 145.69 66.12L142.978 65.28C142.658 65.808 142.25 66.208 141.754 66.48C141.274 66.736 140.69 66.864 140.002 66.864C139.394 66.864 138.874 66.728 138.442 66.456C138.01 66.184 137.682 65.792 137.458 65.28C137.25 64.768 137.146 64.144 137.146 63.408C137.162 62.64 137.274 62 137.482 61.488C137.706 60.96 138.018 60.568 138.418 60.312C138.834 60.04 139.346 59.904 139.954 59.904C140.45 59.904 140.882 60.016 141.25 60.24C141.618 60.464 141.898 60.768 142.09 61.152C142.298 61.536 142.402 62 142.402 62.544C142.402 62.656 142.37 62.8 142.306 62.976C142.258 63.136 142.202 63.264 142.138 63.36L142.978 62.256H135.802V64.176H145.69C145.706 64.08 145.714 63.952 145.714 63.792C145.73 63.632 145.738 63.48 145.738 63.336C145.738 62.152 145.514 61.144 145.066 60.312C144.618 59.464 143.962 58.824 143.098 58.392C142.25 57.944 141.218 57.72 140.002 57.72C138.786 57.72 137.73 57.96 136.834 58.44C135.938 58.904 135.242 59.568 134.746 60.432C134.266 61.28 134.026 62.296 134.026 63.48C134.026 64.648 134.266 65.664 134.746 66.528C135.242 67.376 135.938 68.04 136.834 68.52C137.73 69 138.778 69.24 139.978 69.24ZM155.211 62.28V69H158.427V61.944C158.427 60.616 158.107 59.584 157.467 58.848C156.827 58.096 155.851 57.72 154.539 57.72C153.755 57.72 153.083 57.888 152.523 58.224C151.979 58.544 151.539 59.016 151.203 59.64V57.96H148.083V69H151.203V62.28C151.203 61.816 151.291 61.416 151.467 61.08C151.643 60.744 151.899 60.488 152.235 60.312C152.571 60.12 152.955 60.024 153.387 60.024C154.027 60.024 154.491 60.216 154.779 60.6C155.067 60.984 155.211 61.544 155.211 62.28ZM160.073 57.96V60.576H166.889V57.96H160.073ZM161.969 54.12V69H164.969V54.12H161.969ZM169.096 65.184L167.584 67.128C168 67.528 168.464 67.904 168.976 68.256C169.504 68.592 170.088 68.864 170.728 69.072C171.384 69.28 172.104 69.384 172.888 69.384C174.152 69.384 175.144 69.08 175.864 68.472C176.584 67.848 176.944 66.984 176.944 65.88C176.944 65.208 176.792 64.664 176.488 64.248C176.184 63.832 175.776 63.488 175.264 63.216C174.768 62.928 174.224 62.672 173.632 62.448C173.152 62.24 172.72 62.064 172.336 61.92C171.968 61.776 171.68 61.616 171.472 61.44C171.28 61.248 171.184 61.032 171.184 60.792C171.184 60.52 171.28 60.32 171.472 60.192C171.68 60.048 171.96 59.976 172.312 59.976C172.84 59.976 173.376 60.112 173.92 60.384C174.48 60.656 174.96 61.008 175.36 61.44L176.728 59.52C176.376 59.168 175.968 58.864 175.504 58.608C175.04 58.336 174.536 58.12 173.992 57.96C173.448 57.8 172.864 57.72 172.24 57.72C171.504 57.72 170.832 57.84 170.224 58.08C169.632 58.304 169.16 58.648 168.808 59.112C168.456 59.56 168.28 60.112 168.28 60.768C168.28 61.456 168.432 62.024 168.736 62.472C169.056 62.904 169.456 63.256 169.936 63.528C170.416 63.784 170.912 64.008 171.424 64.2C171.968 64.376 172.416 64.544 172.768 64.704C173.12 64.864 173.384 65.048 173.56 65.256C173.752 65.448 173.848 65.688 173.848 65.976C173.848 66.296 173.736 66.552 173.512 66.744C173.288 66.92 172.968 67.008 172.552 67.008C172.232 67.008 171.888 66.944 171.52 66.816C171.168 66.688 170.792 66.496 170.392 66.24C169.992 65.968 169.56 65.616 169.096 65.184Z" fill="#242331"/>
<defs>
<clipPath id="clip0_1_3253">
<rect width="34" height="34" fill="white" transform="translate(539.75 43)"/>
</clipPath>
</defs>
</svg>
