<svg width="464" height="276" viewBox="0 0 464 276" fill="none" xmlns="http://www.w3.org/2000/svg">
<g filter="url(#filter0_d_1_3286)">
<rect x="28" y="25" width="374" height="186" rx="30" fill="white"/>
</g>
<rect x="48" y="45" width="334" height="146" rx="20" fill="#F7F7F7"/>
<path d="M239.936 122C234.449 122 229.916 117.522 230.821 112.109C231.957 105.313 234.259 98.7379 237.65 92.6827C242.666 83.7257 249.897 76.2055 258.65 70.8416C267.403 65.4776 277.386 62.4493 287.644 62.0463C297.902 61.6432 308.092 63.879 317.239 68.5396C326.386 73.2003 334.185 80.1299 339.888 88.6658C345.592 97.2016 349.01 107.058 349.815 117.292C350.62 127.527 348.787 137.797 344.489 147.12C341.583 153.422 337.617 159.149 332.787 164.063C328.939 167.976 322.652 166.942 319.427 162.503C316.201 158.063 317.31 151.908 320.824 147.693C323.069 144.999 324.961 142.011 326.442 138.8C329.316 132.565 330.543 125.696 330.004 118.852C329.465 112.007 327.179 105.415 323.365 99.7062C319.551 93.9975 314.335 89.3629 308.218 86.2459C302.1 83.1289 295.285 81.6336 288.425 81.9032C281.564 82.1727 274.887 84.198 269.033 87.7854C263.179 91.3728 258.343 96.4023 254.989 102.393C253.261 105.478 251.956 108.765 251.096 112.165C249.751 117.485 245.424 122 239.936 122Z" fill="#49BAFD"/>
<path d="M273.03 124.18C273.03 123.66 273.144 123.2 273.37 122.8C273.597 122.387 273.904 122.073 274.29 121.86C274.69 121.633 275.137 121.52 275.63 121.52C276.124 121.52 276.564 121.633 276.95 121.86C277.35 122.073 277.664 122.387 277.89 122.8C278.117 123.2 278.23 123.66 278.23 124.18C278.23 124.713 278.117 125.18 277.89 125.58C277.664 125.967 277.35 126.273 276.95 126.5C276.564 126.713 276.124 126.82 275.63 126.82C275.137 126.82 274.69 126.713 274.29 126.5C273.904 126.273 273.597 125.967 273.37 125.58C273.144 125.18 273.03 124.713 273.03 124.18ZM275.87 115.04L271.63 120.6C271.23 121.107 270.897 121.66 270.63 122.26C270.364 122.847 270.23 123.487 270.23 124.18C270.23 125.273 270.47 126.2 270.95 126.96C271.444 127.72 272.097 128.3 272.91 128.7C273.724 129.087 274.63 129.28 275.63 129.28C276.63 129.28 277.537 129.087 278.35 128.7C279.164 128.3 279.81 127.72 280.29 126.96C280.784 126.2 281.03 125.273 281.03 124.18C281.03 123.5 280.91 122.88 280.67 122.32C280.43 121.76 280.11 121.28 279.71 120.88C279.31 120.48 278.85 120.173 278.33 119.96C277.824 119.747 277.304 119.64 276.77 119.64C276.277 119.64 275.857 119.693 275.51 119.8C275.177 119.907 274.837 120.14 274.49 120.5L275.01 120.32L279.49 115.04H275.87ZM293.623 124.48C293.623 123.52 293.423 122.7 293.023 122.02C292.637 121.327 292.123 120.793 291.483 120.42C290.843 120.047 290.143 119.86 289.383 119.86C288.97 119.86 288.563 119.9 288.163 119.98C287.777 120.047 287.41 120.173 287.063 120.36L287.903 117.48H293.403V115H285.783L283.863 122.88C284.343 122.613 284.797 122.413 285.223 122.28C285.663 122.133 286.09 122.033 286.503 121.98C286.917 121.913 287.31 121.88 287.683 121.88C288.19 121.88 288.657 121.973 289.083 122.16C289.523 122.333 289.87 122.593 290.123 122.94C290.39 123.287 290.523 123.713 290.523 124.22C290.523 124.74 290.41 125.18 290.183 125.54C289.957 125.887 289.63 126.153 289.203 126.34C288.79 126.527 288.283 126.62 287.683 126.62C287.297 126.62 286.89 126.547 286.463 126.4C286.037 126.24 285.623 126.027 285.223 125.76C284.837 125.493 284.477 125.193 284.143 124.86L282.803 127.08C283.19 127.467 283.637 127.827 284.143 128.16C284.65 128.48 285.237 128.74 285.903 128.94C286.583 129.14 287.35 129.24 288.203 129.24C288.883 129.24 289.543 129.147 290.183 128.96C290.823 128.773 291.403 128.487 291.923 128.1C292.443 127.713 292.857 127.22 293.163 126.62C293.47 126.02 293.623 125.307 293.623 124.48ZM294.946 118.22C294.946 118.86 295.099 119.453 295.406 120C295.726 120.533 296.159 120.96 296.706 121.28C297.252 121.6 297.866 121.76 298.546 121.76C299.239 121.76 299.852 121.6 300.386 121.28C300.932 120.96 301.359 120.533 301.666 120C301.972 119.453 302.126 118.86 302.126 118.22C302.126 117.553 301.972 116.953 301.666 116.42C301.359 115.887 300.932 115.467 300.386 115.16C299.852 114.84 299.239 114.68 298.546 114.68C297.866 114.68 297.252 114.84 296.706 115.16C296.159 115.467 295.726 115.887 295.406 116.42C295.099 116.953 294.946 117.553 294.946 118.22ZM297.106 118.22C297.106 117.94 297.166 117.687 297.286 117.46C297.406 117.233 297.572 117.053 297.786 116.92C297.999 116.773 298.252 116.7 298.546 116.7C298.839 116.7 299.086 116.773 299.286 116.92C299.499 117.053 299.666 117.233 299.786 117.46C299.906 117.687 299.966 117.94 299.966 118.22C299.966 118.487 299.906 118.74 299.786 118.98C299.666 119.207 299.499 119.387 299.286 119.52C299.086 119.653 298.839 119.72 298.546 119.72C298.252 119.72 297.999 119.653 297.786 119.52C297.572 119.387 297.406 119.207 297.286 118.98C297.166 118.74 297.106 118.487 297.106 118.22ZM304.046 125.78C304.046 126.433 304.199 127.027 304.506 127.56C304.826 128.093 305.259 128.52 305.806 128.84C306.352 129.16 306.966 129.32 307.646 129.32C308.339 129.32 308.952 129.16 309.486 128.84C310.032 128.52 310.459 128.093 310.766 127.56C311.072 127.027 311.226 126.433 311.226 125.78C311.226 125.127 311.072 124.533 310.766 124C310.459 123.453 310.032 123.027 309.486 122.72C308.952 122.4 308.339 122.24 307.646 122.24C306.966 122.24 306.352 122.4 305.806 122.72C305.259 123.027 304.826 123.453 304.506 124C304.199 124.533 304.046 125.127 304.046 125.78ZM306.206 125.78C306.206 125.5 306.266 125.247 306.386 125.02C306.506 124.793 306.672 124.613 306.886 124.48C307.099 124.347 307.352 124.28 307.646 124.28C307.939 124.28 308.186 124.347 308.386 124.48C308.599 124.613 308.766 124.793 308.886 125.02C309.006 125.247 309.066 125.5 309.066 125.78C309.066 126.047 309.006 126.3 308.886 126.54C308.766 126.767 308.599 126.947 308.386 127.08C308.186 127.213 307.939 127.28 307.646 127.28C307.352 127.28 307.099 127.213 306.886 127.08C306.672 126.947 306.506 126.767 306.386 126.54C306.266 126.3 306.206 126.047 306.206 125.78ZM306.886 115L296.686 129H299.306L309.506 115H306.886Z" fill="#141414"/>
<path d="M84.32 161H92.864V159.24H88L91.184 156.12C91.6427 155.693 92.0107 155.208 92.288 154.664C92.576 154.12 92.72 153.555 92.72 152.968C92.72 152.595 92.64 152.211 92.48 151.816C92.3307 151.421 92.096 151.059 91.776 150.728C91.4667 150.397 91.072 150.131 90.592 149.928C90.112 149.715 89.5467 149.608 88.896 149.608C88.0427 149.608 87.3173 149.789 86.72 150.152C86.1333 150.504 85.6853 150.995 85.376 151.624C85.0773 152.243 84.928 152.952 84.928 153.752H86.8C86.8 153.261 86.88 152.829 87.04 152.456C87.2107 152.083 87.4507 151.8 87.76 151.608C88.0693 151.405 88.4373 151.304 88.864 151.304C89.1733 151.304 89.4453 151.357 89.68 151.464C89.9147 151.56 90.112 151.693 90.272 151.864C90.4427 152.035 90.5653 152.227 90.64 152.44C90.7253 152.643 90.768 152.851 90.768 153.064C90.768 153.363 90.72 153.645 90.624 153.912C90.528 154.179 90.384 154.445 90.192 154.712C90 154.979 89.7707 155.256 89.504 155.544L84.32 161ZM95.0003 160.184C95.0003 160.483 95.1069 160.744 95.3203 160.968C95.5443 161.192 95.8109 161.304 96.1203 161.304C96.4509 161.304 96.7229 161.192 96.9363 160.968C97.1496 160.744 97.2563 160.483 97.2563 160.184C97.2563 159.875 97.1496 159.613 96.9363 159.4C96.7229 159.176 96.4509 159.064 96.1203 159.064C95.8109 159.064 95.5443 159.176 95.3203 159.4C95.1069 159.613 95.0003 159.875 95.0003 160.184ZM99.8578 152.504C99.8578 152.973 99.9431 153.389 100.114 153.752C100.295 154.104 100.54 154.403 100.85 154.648C101.159 154.893 101.516 155.08 101.922 155.208C102.327 155.336 102.759 155.4 103.218 155.4C103.676 155.4 104.108 155.336 104.514 155.208C104.919 155.08 105.276 154.893 105.586 154.648C105.895 154.403 106.14 154.104 106.322 153.752C106.503 153.389 106.594 152.973 106.594 152.504C106.594 151.928 106.439 151.427 106.13 151C105.831 150.563 105.426 150.221 104.914 149.976C104.412 149.731 103.847 149.608 103.218 149.608C102.588 149.608 102.018 149.731 101.506 149.976C101.004 150.221 100.604 150.563 100.306 151C100.007 151.427 99.8578 151.928 99.8578 152.504ZM101.65 152.696C101.65 152.387 101.714 152.109 101.842 151.864C101.98 151.619 102.167 151.432 102.402 151.304C102.647 151.165 102.919 151.096 103.218 151.096C103.527 151.096 103.799 151.165 104.034 151.304C104.268 151.432 104.45 151.619 104.578 151.864C104.716 152.109 104.786 152.387 104.786 152.696C104.786 153.016 104.716 153.293 104.578 153.528C104.439 153.763 104.247 153.949 104.002 154.088C103.767 154.216 103.506 154.28 103.218 154.28C102.93 154.28 102.668 154.216 102.434 154.088C102.199 153.949 102.007 153.763 101.858 153.528C101.719 153.293 101.65 153.016 101.65 152.696ZM99.4578 157.96C99.4578 158.429 99.5538 158.861 99.7458 159.256C99.9378 159.64 100.204 159.981 100.546 160.28C100.898 160.568 101.298 160.792 101.746 160.952C102.204 161.112 102.695 161.192 103.218 161.192C103.74 161.192 104.226 161.112 104.674 160.952C105.132 160.792 105.532 160.568 105.874 160.28C106.226 159.981 106.498 159.64 106.69 159.256C106.892 158.861 106.994 158.429 106.994 157.96C106.994 157.416 106.882 156.941 106.658 156.536C106.444 156.131 106.156 155.795 105.794 155.528C105.431 155.251 105.026 155.048 104.578 154.92C104.13 154.792 103.676 154.728 103.218 154.728C102.759 154.728 102.306 154.792 101.858 154.92C101.41 155.048 101.004 155.251 100.642 155.528C100.279 155.795 99.9911 156.131 99.7778 156.536C99.5644 156.941 99.4578 157.416 99.4578 157.96ZM101.314 157.704C101.314 157.352 101.399 157.032 101.57 156.744C101.751 156.456 101.986 156.232 102.274 156.072C102.572 155.901 102.887 155.816 103.218 155.816C103.548 155.816 103.858 155.901 104.146 156.072C104.444 156.232 104.684 156.456 104.866 156.744C105.047 157.032 105.138 157.352 105.138 157.704C105.138 158.109 105.047 158.456 104.866 158.744C104.684 159.021 104.444 159.235 104.146 159.384C103.858 159.533 103.548 159.608 103.218 159.608C102.887 159.608 102.572 159.533 102.274 159.384C101.986 159.235 101.751 159.021 101.57 158.744C101.399 158.456 101.314 158.109 101.314 157.704ZM108.324 152.296C108.324 152.797 108.436 153.256 108.66 153.672C108.894 154.077 109.22 154.403 109.636 154.648C110.052 154.893 110.521 155.016 111.044 155.016C111.588 155.016 112.062 154.893 112.468 154.648C112.884 154.403 113.204 154.077 113.428 153.672C113.662 153.256 113.78 152.797 113.78 152.296C113.78 151.795 113.662 151.341 113.428 150.936C113.204 150.52 112.884 150.189 112.468 149.944C112.062 149.699 111.588 149.576 111.044 149.576C110.521 149.576 110.052 149.699 109.636 149.944C109.22 150.189 108.894 150.52 108.66 150.936C108.436 151.341 108.324 151.795 108.324 152.296ZM109.796 152.296C109.796 152.051 109.849 151.827 109.956 151.624C110.062 151.421 110.206 151.261 110.388 151.144C110.58 151.027 110.798 150.968 111.044 150.968C111.31 150.968 111.534 151.027 111.716 151.144C111.897 151.261 112.041 151.421 112.148 151.624C112.254 151.827 112.308 152.051 112.308 152.296C112.308 152.531 112.254 152.755 112.148 152.968C112.041 153.171 111.897 153.336 111.716 153.464C111.534 153.581 111.31 153.64 111.044 153.64C110.798 153.64 110.58 153.581 110.388 153.464C110.206 153.336 110.062 153.171 109.956 152.968C109.849 152.755 109.796 152.531 109.796 152.296ZM114.996 158.504C114.996 158.995 115.113 159.448 115.348 159.864C115.582 160.28 115.902 160.611 116.308 160.856C116.724 161.091 117.198 161.208 117.732 161.208C118.265 161.208 118.734 161.091 119.14 160.856C119.556 160.611 119.876 160.28 120.1 159.864C120.334 159.448 120.452 158.995 120.452 158.504C120.452 157.992 120.334 157.533 120.1 157.128C119.876 156.712 119.556 156.387 119.14 156.152C118.734 155.907 118.265 155.784 117.732 155.784C117.198 155.784 116.724 155.907 116.308 156.152C115.902 156.387 115.582 156.712 115.348 157.128C115.113 157.533 114.996 157.992 114.996 158.504ZM116.484 158.488C116.484 158.253 116.532 158.035 116.628 157.832C116.734 157.629 116.878 157.469 117.06 157.352C117.252 157.224 117.476 157.16 117.732 157.16C117.988 157.16 118.206 157.224 118.388 157.352C118.58 157.469 118.724 157.629 118.82 157.832C118.926 158.035 118.98 158.253 118.98 158.488C118.98 158.733 118.926 158.957 118.82 159.16C118.724 159.363 118.58 159.528 118.388 159.656C118.206 159.773 117.988 159.832 117.732 159.832C117.476 159.832 117.252 159.773 117.06 159.656C116.878 159.528 116.734 159.363 116.628 159.16C116.532 158.947 116.484 158.723 116.484 158.488ZM117.412 149.8L109.652 161H111.364L119.124 149.8H117.412Z" fill="#05A402"/>
<g clip-path="url(#clip0_1_3286)">
<path d="M78.1963 158L76.7517 158.387L75.2134 152.667L70.6497 160.571L69.3506 159.821L73.9144 151.917L68.1938 153.455L67.804 152L76.0001 149.804L78.1963 158Z" fill="#05A402"/>
</g>
<path d="M71.83 104.46L71.95 109.59H74.95L75.07 104.46H71.83ZM71.95 127.29L71.83 132.36H75.07L74.95 127.29H71.95ZM77.38 114.09L80.65 112.14C80.29 111.4 79.79 110.69 79.15 110.01C78.53 109.33 77.75 108.78 76.81 108.36C75.87 107.92 74.72 107.7 73.36 107.7C72.02 107.7 70.82 107.95 69.76 108.45C68.7 108.95 67.87 109.62 67.27 110.46C66.67 111.28 66.37 112.19 66.37 113.19C66.37 114.19 66.55 115.05 66.91 115.77C67.29 116.49 67.77 117.1 68.35 117.6C68.93 118.1 69.54 118.51 70.18 118.83C70.82 119.15 71.4 119.4 71.92 119.58C72.74 119.88 73.49 120.19 74.17 120.51C74.85 120.83 75.4 121.21 75.82 121.65C76.24 122.07 76.45 122.61 76.45 123.27C76.45 123.81 76.34 124.27 76.12 124.65C75.92 125.01 75.6 125.29 75.16 125.49C74.74 125.67 74.21 125.76 73.57 125.76C72.79 125.76 72.09 125.61 71.47 125.31C70.85 124.99 70.29 124.53 69.79 123.93C69.29 123.33 68.81 122.59 68.35 121.71L65.2 123.84C65.64 124.86 66.27 125.78 67.09 126.6C67.91 127.42 68.86 128.08 69.94 128.58C71.02 129.06 72.18 129.3 73.42 129.3C74.98 129.3 76.32 129.06 77.44 128.58C78.56 128.08 79.42 127.37 80.02 126.45C80.64 125.53 80.95 124.44 80.95 123.18C80.95 122.24 80.8 121.43 80.5 120.75C80.2 120.05 79.79 119.45 79.27 118.95C78.75 118.45 78.17 118.02 77.53 117.66C76.91 117.3 76.27 117 75.61 116.76C74.77 116.44 73.98 116.14 73.24 115.86C72.5 115.56 71.9 115.21 71.44 114.81C71 114.41 70.78 113.89 70.78 113.25C70.78 112.79 70.87 112.4 71.05 112.08C71.25 111.76 71.55 111.51 71.95 111.33C72.35 111.13 72.86 111.03 73.48 111.03C74.1 111.03 74.64 111.17 75.1 111.45C75.58 111.71 76 112.07 76.36 112.53C76.74 112.99 77.08 113.51 77.38 114.09ZM84.6213 113.07C84.6213 113.99 84.8013 114.8 85.1613 115.5C85.5413 116.18 86.0413 116.75 86.6613 117.21C87.3013 117.67 88.0213 118.02 88.8213 118.26C89.6213 118.5 90.4513 118.62 91.3113 118.62C92.1713 118.62 93.0013 118.5 93.8013 118.26C94.6013 118.02 95.3113 117.67 95.9313 117.21C96.5713 116.75 97.0713 116.18 97.4312 115.5C97.8113 114.8 98.0013 113.99 98.0013 113.07C98.0013 111.95 97.6913 110.98 97.0713 110.16C96.4713 109.34 95.6613 108.71 94.6413 108.27C93.6413 107.81 92.5313 107.58 91.3113 107.58C90.0713 107.58 88.9413 107.81 87.9213 108.27C86.9213 108.71 86.1213 109.34 85.5213 110.16C84.9213 110.98 84.6213 111.95 84.6213 113.07ZM88.6413 113.49C88.6413 112.97 88.7513 112.5 88.9713 112.08C89.2113 111.66 89.5313 111.34 89.9313 111.12C90.3313 110.9 90.7913 110.79 91.3113 110.79C91.8313 110.79 92.2913 110.9 92.6913 111.12C93.0913 111.34 93.4013 111.66 93.6213 112.08C93.8413 112.5 93.9513 112.97 93.9513 113.49C93.9513 114.03 93.8313 114.5 93.5913 114.9C93.3713 115.3 93.0613 115.62 92.6613 115.86C92.2613 116.08 91.8113 116.19 91.3113 116.19C90.8113 116.19 90.3613 116.08 89.9613 115.86C89.5613 115.62 89.2413 115.3 89.0013 114.9C88.7613 114.5 88.6413 114.03 88.6413 113.49ZM83.8713 123.3C83.8713 124.22 84.0613 125.06 84.4413 125.82C84.8413 126.56 85.3913 127.2 86.0913 127.74C86.7913 128.28 87.5813 128.7 88.4613 129C89.3613 129.28 90.3113 129.42 91.3113 129.42C92.3113 129.42 93.2513 129.28 94.1313 129C95.0313 128.7 95.8213 128.28 96.5013 127.74C97.2013 127.2 97.7513 126.56 98.1513 125.82C98.5513 125.06 98.7513 124.22 98.7513 123.3C98.7513 122.24 98.5313 121.33 98.0913 120.57C97.6513 119.79 97.0613 119.15 96.3213 118.65C95.6013 118.15 94.8013 117.78 93.9213 117.54C93.0413 117.3 92.1713 117.18 91.3113 117.18C90.4513 117.18 89.5813 117.3 88.7013 117.54C87.8213 117.78 87.0113 118.15 86.2713 118.65C85.5513 119.15 84.9713 119.79 84.5313 120.57C84.0913 121.33 83.8713 122.24 83.8713 123.3ZM88.1013 122.67C88.1013 122.09 88.2413 121.56 88.5213 121.08C88.8213 120.6 89.2113 120.22 89.6913 119.94C90.1913 119.66 90.7313 119.52 91.3113 119.52C91.8713 119.52 92.3913 119.66 92.8713 119.94C93.3713 120.22 93.7713 120.6 94.0713 121.08C94.3713 121.56 94.5213 122.09 94.5213 122.67C94.5213 123.37 94.3713 123.96 94.0713 124.44C93.7713 124.9 93.3713 125.26 92.8713 125.52C92.3913 125.76 91.8713 125.88 91.3113 125.88C90.7313 125.88 90.1913 125.76 89.6913 125.52C89.2113 125.26 88.8213 124.9 88.5213 124.44C88.2413 123.96 88.1013 123.37 88.1013 122.67ZM117.728 122.22C117.728 120.78 117.428 119.55 116.828 118.53C116.248 117.49 115.478 116.69 114.518 116.13C113.558 115.57 112.508 115.29 111.368 115.29C110.748 115.29 110.138 115.35 109.538 115.47C108.958 115.57 108.408 115.76 107.888 116.04L109.148 111.72H117.398V108H105.968L103.088 119.82C103.808 119.42 104.488 119.12 105.128 118.92C105.788 118.7 106.428 118.55 107.048 118.47C107.668 118.37 108.258 118.32 108.818 118.32C109.578 118.32 110.278 118.46 110.918 118.74C111.578 119 112.098 119.39 112.478 119.91C112.878 120.43 113.078 121.07 113.078 121.83C113.078 122.61 112.908 123.27 112.568 123.81C112.228 124.33 111.738 124.73 111.098 125.01C110.478 125.29 109.718 125.43 108.818 125.43C108.238 125.43 107.628 125.32 106.988 125.1C106.348 124.86 105.728 124.54 105.128 124.14C104.548 123.74 104.008 123.29 103.508 122.79L101.498 126.12C102.078 126.7 102.748 127.24 103.508 127.74C104.268 128.22 105.148 128.61 106.148 128.91C107.168 129.21 108.318 129.36 109.598 129.36C110.618 129.36 111.608 129.22 112.568 128.94C113.528 128.66 114.398 128.23 115.178 127.65C115.958 127.07 116.578 126.33 117.038 125.43C117.498 124.53 117.728 123.46 117.728 122.22ZM122.802 125.7L120.162 133.47L123.042 134.16L126.672 126.66L122.802 125.7ZM129.112 129H146.002V125.07H137.212L142.672 119.91C143.552 119.11 144.262 118.22 144.802 117.24C145.342 116.26 145.612 115.21 145.612 114.09C145.612 113.33 145.452 112.57 145.132 111.81C144.832 111.05 144.362 110.36 143.722 109.74C143.102 109.1 142.312 108.59 141.352 108.21C140.412 107.81 139.312 107.61 138.052 107.61C136.352 107.61 134.912 107.97 133.732 108.69C132.572 109.39 131.692 110.34 131.092 111.54C130.492 112.74 130.192 114.09 130.192 115.59H134.392C134.392 114.75 134.532 114.01 134.812 113.37C135.112 112.73 135.522 112.24 136.042 111.9C136.582 111.54 137.222 111.36 137.962 111.36C138.482 111.36 138.942 111.45 139.342 111.63C139.742 111.79 140.082 112.01 140.362 112.29C140.642 112.57 140.852 112.89 140.992 113.25C141.132 113.61 141.202 113.98 141.202 114.36C141.202 114.9 141.102 115.42 140.902 115.92C140.702 116.42 140.412 116.92 140.032 117.42C139.652 117.92 139.192 118.46 138.652 119.04L129.112 129ZM164.779 122.22C164.779 120.78 164.479 119.55 163.879 118.53C163.299 117.49 162.529 116.69 161.569 116.13C160.609 115.57 159.559 115.29 158.419 115.29C157.799 115.29 157.189 115.35 156.589 115.47C156.009 115.57 155.459 115.76 154.939 116.04L156.199 111.72H164.449V108H153.019L150.139 119.82C150.859 119.42 151.539 119.12 152.179 118.92C152.839 118.7 153.479 118.55 154.099 118.47C154.719 118.37 155.309 118.32 155.869 118.32C156.629 118.32 157.329 118.46 157.969 118.74C158.629 119 159.149 119.39 159.529 119.91C159.929 120.43 160.129 121.07 160.129 121.83C160.129 122.61 159.959 123.27 159.619 123.81C159.279 124.33 158.789 124.73 158.149 125.01C157.529 125.29 156.769 125.43 155.869 125.43C155.289 125.43 154.679 125.32 154.039 125.1C153.399 124.86 152.779 124.54 152.179 124.14C151.599 123.74 151.059 123.29 150.559 122.79L148.549 126.12C149.129 126.7 149.799 127.24 150.559 127.74C151.319 128.22 152.199 128.61 153.199 128.91C154.219 129.21 155.369 129.36 156.649 129.36C157.669 129.36 158.659 129.22 159.619 128.94C160.579 128.66 161.449 128.23 162.229 127.65C163.009 127.07 163.629 126.33 164.089 125.43C164.549 124.53 164.779 123.46 164.779 122.22ZM171.352 118.5C171.352 117.44 171.452 116.48 171.652 115.62C171.852 114.74 172.142 113.99 172.522 113.37C172.902 112.73 173.352 112.24 173.872 111.9C174.392 111.56 174.972 111.39 175.612 111.39C176.272 111.39 176.862 111.56 177.382 111.9C177.902 112.24 178.352 112.73 178.732 113.37C179.112 113.99 179.402 114.74 179.602 115.62C179.802 116.48 179.902 117.44 179.902 118.5C179.902 119.56 179.802 120.53 179.602 121.41C179.402 122.27 179.112 123.02 178.732 123.66C178.352 124.28 177.902 124.76 177.382 125.1C176.862 125.44 176.272 125.61 175.612 125.61C174.972 125.61 174.392 125.44 173.872 125.1C173.352 124.76 172.902 124.28 172.522 123.66C172.142 123.02 171.852 122.27 171.652 121.41C171.452 120.53 171.352 119.56 171.352 118.5ZM167.182 118.5C167.182 120.72 167.532 122.64 168.232 124.26C168.952 125.88 169.942 127.14 171.202 128.04C172.482 128.92 173.952 129.36 175.612 129.36C177.332 129.36 178.822 128.92 180.082 128.04C181.342 127.14 182.322 125.88 183.022 124.26C183.722 122.64 184.072 120.72 184.072 118.5C184.072 116.28 183.722 114.36 183.022 112.74C182.322 111.12 181.342 109.87 180.082 108.99C178.822 108.09 177.332 107.64 175.612 107.64C173.952 107.64 172.482 108.09 171.202 108.99C169.942 109.87 168.952 111.12 168.232 112.74C167.532 114.36 167.182 116.28 167.182 118.5Z" fill="#3E3D49"/>
<path d="M72.3 89.3C71.0333 89.3 69.9133 89 68.94 88.4C67.9667 87.8 67.2 86.9533 66.64 85.86C66.0933 84.7667 65.82 83.48 65.82 82C65.82 80.52 66.0933 79.2333 66.64 78.14C67.2 77.0333 67.9667 76.18 68.94 75.58C69.9133 74.9667 71.0333 74.66 72.3 74.66C73.4467 74.66 74.4733 74.9133 75.38 75.42C76.2867 75.9133 77.0267 76.6133 77.6 77.52L75.98 78.48C75.5667 77.84 75.0467 77.3467 74.42 77C73.7933 76.6533 73.0867 76.48 72.3 76.48C71.3933 76.48 70.5933 76.7067 69.9 77.16C69.22 77.6133 68.6867 78.2533 68.3 79.08C67.9133 79.8933 67.72 80.8667 67.72 82C67.72 83.12 67.9133 84.0933 68.3 84.92C68.6867 85.7333 69.22 86.3667 69.9 86.82C70.5933 87.2733 71.3933 87.5 72.3 87.5C73.0867 87.5 73.7933 87.3267 74.42 86.98C75.0467 86.6333 75.5667 86.14 75.98 85.5L77.6 86.46C77.0267 87.3533 76.2867 88.0533 75.38 88.56C74.4733 89.0533 73.4467 89.3 72.3 89.3ZM82.698 89.22C81.6846 89.22 80.8646 88.9 80.238 88.26C79.6113 87.6067 79.298 86.6667 79.298 85.44V79.4H81.078V85.08C81.078 85.9067 81.2646 86.5333 81.638 86.96C82.0113 87.3733 82.4913 87.58 83.078 87.58C83.758 87.58 84.3113 87.36 84.738 86.92C85.178 86.4667 85.398 85.86 85.398 85.1V79.4H87.178V89H85.558L85.478 87.76C85.198 88.16 84.818 88.5067 84.338 88.8C83.8713 89.08 83.3246 89.22 82.698 89.22ZM89.5877 89V79.4H91.2277L91.3277 80.9C91.5943 80.38 91.9943 79.96 92.5277 79.64C93.0743 79.32 93.661 79.16 94.2877 79.16C94.501 79.16 94.701 79.1733 94.8877 79.2C95.0743 79.2267 95.2343 79.2533 95.3677 79.28V81.02C95.221 80.98 95.0343 80.9467 94.8077 80.92C94.581 80.8933 94.3343 80.88 94.0677 80.88C93.321 80.88 92.6877 81.1267 92.1677 81.62C91.6477 82.1 91.3877 82.7333 91.3877 83.52V89H89.5877ZM96.8658 89V79.4H98.5058L98.6058 80.9C98.8724 80.38 99.2724 79.96 99.8058 79.64C100.352 79.32 100.939 79.16 101.566 79.16C101.779 79.16 101.979 79.1733 102.166 79.2C102.352 79.2267 102.512 79.2533 102.646 79.28V81.02C102.499 80.98 102.312 80.9467 102.086 80.92C101.859 80.8933 101.612 80.88 101.346 80.88C100.599 80.88 99.9658 81.1267 99.4458 81.62C98.9258 82.1 98.6658 82.7333 98.6658 83.52V89H96.8658ZM108.224 89.22C107.317 89.22 106.517 89.0267 105.824 88.64C105.131 88.2533 104.591 87.6867 104.204 86.94C103.817 86.18 103.624 85.2667 103.624 84.2C103.624 83.1733 103.817 82.2867 104.204 81.54C104.591 80.78 105.117 80.1933 105.784 79.78C106.464 79.3667 107.244 79.16 108.124 79.16C109.004 79.16 109.751 79.38 110.364 79.82C110.991 80.2467 111.464 80.82 111.784 81.54C112.117 82.26 112.284 83.0467 112.284 83.9V84.38H105.384C105.411 85.4467 105.677 86.26 106.184 86.82C106.704 87.3667 107.391 87.64 108.244 87.64C108.924 87.64 109.484 87.4733 109.924 87.14C110.377 86.8067 110.757 86.3067 111.064 85.64L112.424 86.54C111.971 87.4733 111.391 88.1533 110.684 88.58C109.991 89.0067 109.171 89.22 108.224 89.22ZM105.484 82.94H110.524C110.417 82.2467 110.151 81.6867 109.724 81.26C109.297 80.8333 108.757 80.62 108.104 80.62C107.411 80.62 106.837 80.82 106.384 81.22C105.931 81.6067 105.631 82.18 105.484 82.94ZM114.293 89V79.4H115.913L116.013 80.64C116.293 80.24 116.666 79.8933 117.133 79.6C117.613 79.3067 118.16 79.16 118.773 79.16C119.786 79.16 120.606 79.4867 121.233 80.14C121.873 80.78 122.193 81.7133 122.193 82.94V89H120.413V83.32C120.413 82.48 120.226 81.8533 119.853 81.44C119.48 81.0133 118.993 80.8 118.393 80.8C117.713 80.8 117.16 81.0267 116.733 81.48C116.306 81.92 116.093 82.5133 116.093 83.26V89H114.293ZM128.048 89.22C127.141 89.22 126.455 89.0467 125.988 88.7C125.521 88.34 125.288 87.66 125.288 86.66V80.96H123.348V79.4H125.288V75.96H127.068V79.4H129.848V80.96H127.068V86.28C127.068 86.8 127.181 87.1533 127.408 87.34C127.648 87.5133 128.001 87.6 128.468 87.6C128.708 87.6 128.955 87.5667 129.208 87.5C129.475 87.42 129.688 87.34 129.848 87.26V88.92C129.635 89.0133 129.361 89.0867 129.028 89.14C128.695 89.1933 128.368 89.22 128.048 89.22ZM137.031 89V75H142.571C143.811 75 144.777 75.3067 145.471 75.92C146.177 76.52 146.531 77.3933 146.531 78.54C146.531 79.3267 146.351 79.9867 145.991 80.52C145.631 81.0533 145.157 81.4267 144.571 81.64C145.331 81.8133 145.951 82.2333 146.431 82.9C146.924 83.5533 147.171 84.3333 147.171 85.24C147.171 86.4933 146.797 87.4333 146.051 88.06C145.317 88.6867 144.244 89 142.831 89H137.031ZM138.851 87.28H142.611C143.517 87.28 144.177 87.1 144.591 86.74C145.004 86.3667 145.211 85.7933 145.211 85.02C145.211 84.2733 144.964 83.6933 144.471 83.28C143.977 82.8667 143.351 82.66 142.591 82.66H138.851V87.28ZM138.851 80.92H142.371C143.077 80.92 143.617 80.7267 143.991 80.34C144.364 79.9533 144.551 79.44 144.551 78.8C144.551 77.4133 143.784 76.72 142.251 76.72H138.851V80.92ZM152.086 89.16C151.113 89.1867 150.306 88.9667 149.666 88.5C149.04 88.02 148.726 87.3333 148.726 86.44C148.726 85.7867 148.933 85.22 149.346 84.74C149.773 84.26 150.313 83.8867 150.966 83.62C151.633 83.34 152.32 83.2 153.026 83.2C153.44 83.1733 153.82 83.2133 154.166 83.32C154.513 83.4133 154.813 83.5533 155.066 83.74V82.54C155.066 81.7933 154.906 81.3067 154.586 81.08C154.28 80.8533 153.8 80.74 153.146 80.74C152.586 80.74 151.986 80.84 151.346 81.04C150.72 81.24 150.186 81.4933 149.746 81.8L148.906 80.4C149.453 80.0533 150.1 79.76 150.846 79.52C151.606 79.28 152.373 79.16 153.146 79.16C154.373 79.16 155.286 79.4067 155.886 79.9C156.486 80.38 156.786 81.26 156.786 82.54V87.36C156.786 87.6133 156.853 87.76 156.986 87.8C157.12 87.84 157.42 87.8067 157.886 87.7V88.86C157.713 88.9267 157.493 88.9933 157.226 89.06C156.96 89.1267 156.686 89.16 156.406 89.16C155.98 89.16 155.673 89.08 155.486 88.92C155.3 88.76 155.173 88.4733 155.106 88.06C154.746 88.42 154.293 88.6867 153.746 88.86C153.2 89.0333 152.646 89.1333 152.086 89.16ZM152.106 87.58C152.666 87.5667 153.173 87.4867 153.626 87.34C154.093 87.18 154.46 86.96 154.726 86.68C154.993 86.3867 155.113 86.04 155.086 85.64C155.06 85.2667 154.866 85 154.506 84.84C154.16 84.68 153.713 84.6133 153.166 84.64C152.673 84.6533 152.22 84.7467 151.806 84.92C151.393 85.08 151.06 85.2933 150.806 85.56C150.566 85.8267 150.446 86.1267 150.446 86.46C150.46 86.8333 150.613 87.12 150.906 87.32C151.2 87.5067 151.6 87.5933 152.106 87.58ZM159.61 89V74.66H161.41V89H159.61ZM166.662 89.16C165.689 89.1867 164.882 88.9667 164.242 88.5C163.616 88.02 163.302 87.3333 163.302 86.44C163.302 85.7867 163.509 85.22 163.922 84.74C164.349 84.26 164.889 83.8867 165.542 83.62C166.209 83.34 166.896 83.2 167.602 83.2C168.016 83.1733 168.396 83.2133 168.742 83.32C169.089 83.4133 169.389 83.5533 169.642 83.74V82.54C169.642 81.7933 169.482 81.3067 169.162 81.08C168.856 80.8533 168.376 80.74 167.722 80.74C167.162 80.74 166.562 80.84 165.922 81.04C165.296 81.24 164.762 81.4933 164.322 81.8L163.482 80.4C164.029 80.0533 164.676 79.76 165.422 79.52C166.182 79.28 166.949 79.16 167.722 79.16C168.949 79.16 169.862 79.4067 170.462 79.9C171.062 80.38 171.362 81.26 171.362 82.54V87.36C171.362 87.6133 171.429 87.76 171.562 87.8C171.696 87.84 171.996 87.8067 172.462 87.7V88.86C172.289 88.9267 172.069 88.9933 171.802 89.06C171.536 89.1267 171.262 89.16 170.982 89.16C170.556 89.16 170.249 89.08 170.062 88.92C169.876 88.76 169.749 88.4733 169.682 88.06C169.322 88.42 168.869 88.6867 168.322 88.86C167.776 89.0333 167.222 89.1333 166.662 89.16ZM166.682 87.58C167.242 87.5667 167.749 87.4867 168.202 87.34C168.669 87.18 169.036 86.96 169.302 86.68C169.569 86.3867 169.689 86.04 169.662 85.64C169.636 85.2667 169.442 85 169.082 84.84C168.736 84.68 168.289 84.6133 167.742 84.64C167.249 84.6533 166.796 84.7467 166.382 84.92C165.969 85.08 165.636 85.2933 165.382 85.56C165.142 85.8267 165.022 86.1267 165.022 86.46C165.036 86.8333 165.189 87.12 165.482 87.32C165.776 87.5067 166.176 87.5933 166.682 87.58ZM174.185 89V79.4H175.805L175.905 80.64C176.185 80.24 176.559 79.8933 177.025 79.6C177.505 79.3067 178.052 79.16 178.665 79.16C179.679 79.16 180.499 79.4867 181.125 80.14C181.765 80.78 182.085 81.7133 182.085 82.94V89H180.305V83.32C180.305 82.48 180.119 81.8533 179.745 81.44C179.372 81.0133 178.885 80.8 178.285 80.8C177.605 80.8 177.052 81.0267 176.625 81.48C176.199 81.92 175.985 82.5133 175.985 83.26V89H174.185ZM188.531 89.22C187.651 89.22 186.864 89.0133 186.171 88.6C185.491 88.1733 184.951 87.5867 184.551 86.84C184.164 86.08 183.971 85.2 183.971 84.2C183.971 83.2 184.164 82.32 184.551 81.56C184.951 80.8 185.491 80.2133 186.171 79.8C186.864 79.3733 187.651 79.16 188.531 79.16C189.264 79.16 189.937 79.3133 190.551 79.62C191.164 79.9133 191.677 80.3467 192.091 80.92L190.671 81.98C190.177 81.1933 189.464 80.8 188.531 80.8C187.717 80.8 187.051 81.1 186.531 81.7C186.024 82.3 185.771 83.1333 185.771 84.2C185.771 85.2533 186.024 86.08 186.531 86.68C187.051 87.28 187.717 87.58 188.531 87.58C189.464 87.58 190.184 87.1933 190.691 86.42L192.091 87.46C191.677 88.0333 191.164 88.4733 190.551 88.78C189.937 89.0733 189.264 89.22 188.531 89.22ZM197.646 89.22C196.739 89.22 195.939 89.0267 195.246 88.64C194.552 88.2533 194.012 87.6867 193.626 86.94C193.239 86.18 193.046 85.2667 193.046 84.2C193.046 83.1733 193.239 82.2867 193.626 81.54C194.012 80.78 194.539 80.1933 195.206 79.78C195.886 79.3667 196.666 79.16 197.546 79.16C198.426 79.16 199.172 79.38 199.786 79.82C200.412 80.2467 200.886 80.82 201.206 81.54C201.539 82.26 201.706 83.0467 201.706 83.9V84.38H194.806C194.832 85.4467 195.099 86.26 195.606 86.82C196.126 87.3667 196.812 87.64 197.666 87.64C198.346 87.64 198.906 87.4733 199.346 87.14C199.799 86.8067 200.179 86.3067 200.486 85.64L201.846 86.54C201.392 87.4733 200.812 88.1533 200.106 88.58C199.412 89.0067 198.592 89.22 197.646 89.22ZM194.906 82.94H199.946C199.839 82.2467 199.572 81.6867 199.146 81.26C198.719 80.8333 198.179 80.62 197.526 80.62C196.832 80.62 196.259 80.82 195.806 81.22C195.352 81.6067 195.052 82.18 194.906 82.94Z" fill="#94ADC2"/>
<defs>
<filter id="filter0_d_1_3286" x="0" y="0" width="464" height="276" filterUnits="userSpaceOnUse" color-interpolation-filters="sRGB">
<feFlood flood-opacity="0" result="BackgroundImageFix"/>
<feColorMatrix in="SourceAlpha" type="matrix" values="0 0 0 0 0 0 0 0 0 0 0 0 0 0 0 0 0 0 127 0" result="hardAlpha"/>
<feMorphology radius="1" operator="dilate" in="SourceAlpha" result="effect1_dropShadow_1_3286"/>
<feOffset dx="17" dy="20"/>
<feGaussianBlur stdDeviation="22"/>
<feComposite in2="hardAlpha" operator="out"/>
<feColorMatrix type="matrix" values="0 0 0 0 0.629167 0 0 0 0 0.629167 0 0 0 0 0.629167 0 0 0 0.25 0"/>
<feBlend mode="normal" in2="BackgroundImageFix" result="effect1_dropShadow_1_3286"/>
<feBlend mode="normal" in="SourceGraphic" in2="effect1_dropShadow_1_3286" result="shape"/>
</filter>
<clipPath id="clip0_1_3286">
<rect width="18" height="18" rx="9" transform="matrix(1 0 0 -1 64 164)" fill="white"/>
</clipPath>
</defs>
</svg>
