<svg width="56" height="60" viewBox="0 0 56 60" fill="none" xmlns="http://www.w3.org/2000/svg">
<path d="M28.5586 46.5723L40.6357 52.8361C41.1666 53.1117 41.4991 53.6593 41.4991 54.2578V57.4931C41.4991 58.599 40.4051 59.372 39.3639 59.0025L28.6426 55.1892C28.0044 54.962 27.5781 54.358 27.5781 53.6799V47.1691C27.579 46.6653 28.1117 46.3406 28.5586 46.5723Z" fill="#7B65FF"/>
<path d="M26.6573 46.5723L14.5802 52.8361C14.0493 53.1117 13.7168 53.6593 13.7168 54.2578V57.4931C13.7168 58.599 14.8107 59.372 15.852 59.0025L26.5733 55.1892C27.2114 54.962 27.6377 54.358 27.6377 53.6799V47.1691C27.6377 46.6653 27.1042 46.3406 26.6573 46.5723Z" fill="#7B65FF"/>
<path d="M45.6103 29.2013H43.3304C42.3196 29.2013 41.5 28.3808 41.5 27.3689V21.5291C41.5 20.5172 42.3196 19.6968 43.3304 19.6968H45.6103C46.6212 19.6968 47.4407 20.5172 47.4407 21.5291V27.3689C47.4407 28.3808 46.6212 29.2013 45.6103 29.2013Z" fill="#A899FF"/>
<path d="M33.7812 19.6968L53.7609 29.3167C56.2518 30.5165 55.1998 33.6068 52.3005 33.6068H33.7812V19.6968Z" fill="#7B65FF"/>
<path d="M12.1728 29.2013H9.89289C8.88206 29.2013 8.0625 28.3808 8.0625 27.3689V21.5291C8.0625 20.5172 8.88206 19.6968 9.89289 19.6968H12.1728C13.1837 19.6968 14.0032 20.5172 14.0032 21.5291V27.3689C14.0023 28.3808 13.1837 29.2013 12.1728 29.2013Z" fill="#A899FF"/>
<path d="M21.378 19.6968L1.39836 29.3167C-1.09251 30.5165 -0.0405692 33.6068 2.85874 33.6068H21.378V19.6968Z" fill="#7B65FF"/>
<path d="M27.5806 0.000813019C27.5806 0.000813019 20.2617 -0.424173 20.2617 18.1589C20.2617 34.9571 23.8152 53.491 26.6922 59.1697C27.0622 59.8998 28.0999 59.8998 28.469 59.1697C31.345 53.491 34.8995 34.9571 34.8995 18.1589C34.8995 -0.424173 27.5806 0.000813019 27.5806 0.000813019Z" fill="#5236FF"/>
<path d="M31.4615 8.137C31.4615 7.12993 31.0614 6.16411 30.3493 5.45201C29.6372 4.7399 28.6714 4.33984 27.6643 4.33984C26.6573 4.33984 25.6915 4.7399 24.9793 5.452C24.2672 6.16411 23.8672 7.12993 23.8672 8.137L27.6643 8.137H31.4615Z" fill="white"/>
</svg>
