<svg width="96" height="103" viewBox="0 0 96 103" fill="none" xmlns="http://www.w3.org/2000/svg">
<rect width="96" height="103" rx="20" fill="#5236FF"/>
<mask id="mask0_1_3499" style="mask-type:alpha" maskUnits="userSpaceOnUse" x="0" y="0" width="96" height="103">
<rect width="96" height="103" rx="20" fill="#5236FF"/>
</mask>
<g mask="url(#mask0_1_3499)">
<path d="M77.1092 69.6848C77.1092 76.4862 65.4673 81.9999 51.1063 81.9999C36.7454 81.9999 25.1035 76.4862 25.1035 69.6848C25.1035 62.8833 36.7454 57.3697 51.1063 57.3697C65.4673 57.3697 77.1092 62.8833 77.1092 69.6848Z" fill="#22137B"/>
<path d="M77.1092 68.9604C77.1092 75.7618 65.4673 81.2755 51.1063 81.2755C36.7454 81.2755 25.1035 75.7618 25.1035 68.9604C25.1035 62.1589 36.7454 56.6453 51.1063 56.6453C65.4673 56.6453 77.1092 62.1589 77.1092 68.9604Z" fill="#22137B"/>
<path d="M77.1092 68.236C77.1092 75.0374 65.4673 80.5511 51.1063 80.5511C36.7454 80.5511 25.1035 75.0374 25.1035 68.236C25.1035 61.4345 36.7454 55.9208 51.1063 55.9208C65.4673 55.9208 77.1092 61.4345 77.1092 68.236Z" fill="#22137B"/>
<path d="M77.1092 67.5115C77.1092 74.313 65.4673 79.8267 51.1063 79.8267C36.7454 79.8267 25.1035 74.313 25.1035 67.5115C25.1035 60.7101 36.7454 55.1964 51.1063 55.1964C65.4673 55.1964 77.1092 60.7101 77.1092 67.5115Z" fill="#22137B"/>
<path d="M77.1092 66.7871C77.1092 73.5886 65.4673 79.1022 51.1063 79.1022C36.7454 79.1022 25.1035 73.5886 25.1035 66.7871C25.1035 59.9857 36.7454 54.472 51.1063 54.472C65.4673 54.472 77.1092 59.9857 77.1092 66.7871Z" fill="#22137B"/>
<path d="M77.1092 66.0627C77.1092 72.8642 65.4673 78.3778 51.1063 78.3778C36.7454 78.3778 25.1035 72.8642 25.1035 66.0627C25.1035 59.2612 36.7454 53.7476 51.1063 53.7476C65.4673 53.7476 77.1092 59.2612 77.1092 66.0627Z" fill="#22137B"/>
<path d="M77.1092 65.3383C77.1092 72.1397 65.4673 77.6534 51.1063 77.6534C36.7454 77.6534 25.1035 72.1397 25.1035 65.3383C25.1035 58.5368 36.7454 53.0232 51.1063 53.0232C65.4673 53.0232 77.1092 58.5368 77.1092 65.3383Z" fill="#22137B"/>
<path d="M77.1092 64.6139C77.1092 71.4153 65.4673 76.929 51.1063 76.929C36.7454 76.929 25.1035 71.4153 25.1035 64.6139C25.1035 57.8124 36.7454 52.2987 51.1063 52.2987C65.4673 52.2987 77.1092 57.8124 77.1092 64.6139Z" fill="#22137B"/>
<path d="M77.1092 63.8894C77.1092 70.6909 65.4673 76.2046 51.1063 76.2046C36.7454 76.2046 25.1035 70.6909 25.1035 63.8894C25.1035 57.088 36.7454 51.5743 51.1063 51.5743C65.4673 51.5743 77.1092 57.088 77.1092 63.8894Z" fill="#22137B"/>
<path d="M77.1092 63.165C77.1092 69.9665 65.4673 75.4801 51.1063 75.4801C36.7454 75.4801 25.1035 69.9665 25.1035 63.165C25.1035 56.3636 36.7454 50.8499 51.1063 50.8499C65.4673 50.8499 77.1092 56.3636 77.1092 63.165Z" fill="#22137B"/>
<path d="M77.1092 62.4406C77.1092 69.2421 65.4673 74.7557 51.1063 74.7557C36.7454 74.7557 25.1035 69.2421 25.1035 62.4406C25.1035 55.6392 36.7454 50.1255 51.1063 50.1255C65.4673 50.1255 77.1092 55.6392 77.1092 62.4406Z" fill="#22137B"/>
<path d="M77.1092 67.6848C77.1092 74.4862 65.4673 79.9999 51.1063 79.9999C36.7454 79.9999 25.1035 74.4862 25.1035 67.6848C25.1035 60.8833 36.7454 55.3697 51.1063 55.3697C65.4673 55.3697 77.1092 60.8833 77.1092 67.6848Z" fill="#836FFD"/>
<path d="M77.1092 66.9604C77.1092 73.7618 65.4673 79.2755 51.1063 79.2755C36.7454 79.2755 25.1035 73.7618 25.1035 66.9604C25.1035 60.1589 36.7454 54.6453 51.1063 54.6453C65.4673 54.6453 77.1092 60.1589 77.1092 66.9604Z" fill="#836FFD"/>
<path d="M77.1092 66.236C77.1092 73.0374 65.4673 78.5511 51.1063 78.5511C36.7454 78.5511 25.1035 73.0374 25.1035 66.236C25.1035 59.4345 36.7454 53.9208 51.1063 53.9208C65.4673 53.9208 77.1092 59.4345 77.1092 66.236Z" fill="#836FFD"/>
<path d="M77.1092 65.5115C77.1092 72.313 65.4673 77.8267 51.1063 77.8267C36.7454 77.8267 25.1035 72.313 25.1035 65.5115C25.1035 58.7101 36.7454 53.1964 51.1063 53.1964C65.4673 53.1964 77.1092 58.7101 77.1092 65.5115Z" fill="#836FFD"/>
<path d="M77.1092 64.7871C77.1092 71.5886 65.4673 77.1022 51.1063 77.1022C36.7454 77.1022 25.1035 71.5886 25.1035 64.7871C25.1035 57.9857 36.7454 52.472 51.1063 52.472C65.4673 52.472 77.1092 57.9857 77.1092 64.7871Z" fill="#836FFD"/>
<path d="M77.1092 64.0627C77.1092 70.8642 65.4673 76.3778 51.1063 76.3778C36.7454 76.3778 25.1035 70.8642 25.1035 64.0627C25.1035 57.2612 36.7454 51.7476 51.1063 51.7476C65.4673 51.7476 77.1092 57.2612 77.1092 64.0627Z" fill="#836FFD"/>
<path d="M77.1092 63.3383C77.1092 70.1397 65.4673 75.6534 51.1063 75.6534C36.7454 75.6534 25.1035 70.1397 25.1035 63.3383C25.1035 56.5368 36.7454 51.0232 51.1063 51.0232C65.4673 51.0232 77.1092 56.5368 77.1092 63.3383Z" fill="#836FFD"/>
<path d="M77.1092 62.6139C77.1092 69.4153 65.4673 74.929 51.1063 74.929C36.7454 74.929 25.1035 69.4153 25.1035 62.6139C25.1035 55.8124 36.7454 50.2987 51.1063 50.2987C65.4673 50.2987 77.1092 55.8124 77.1092 62.6139Z" fill="#836FFD"/>
<path d="M77.1092 61.8894C77.1092 68.6909 65.4673 74.2046 51.1063 74.2046C36.7454 74.2046 25.1035 68.6909 25.1035 61.8894C25.1035 55.088 36.7454 49.5743 51.1063 49.5743C65.4673 49.5743 77.1092 55.088 77.1092 61.8894Z" fill="#836FFD"/>
<path d="M77.1092 61.165C77.1092 67.9665 65.4673 73.4801 51.1063 73.4801C36.7454 73.4801 25.1035 67.9665 25.1035 61.165C25.1035 54.3636 36.7454 48.8499 51.1063 48.8499C65.4673 48.8499 77.1092 54.3636 77.1092 61.165Z" fill="#836FFD"/>
<path d="M77.1092 60.4406C77.1092 67.2421 65.4673 72.7557 51.1063 72.7557C36.7454 72.7557 25.1035 67.2421 25.1035 60.4406C25.1035 53.6392 36.7454 48.1255 51.1063 48.1255C65.4673 48.1255 77.1092 53.6392 77.1092 60.4406Z" fill="#836FFD"/>
<ellipse cx="51.1063" cy="59.8687" rx="26.0028" ry="11.7432" fill="white"/>
<path d="M56.9776 61.99C56.9776 62.6131 56.5798 63.1401 55.7841 63.5709C55.0026 63.994 53.9441 64.2671 52.6085 64.3902V65.0479C52.6085 65.2556 52.4877 65.421 52.2462 65.5441C52.0189 65.6748 51.7134 65.7402 51.3298 65.7402C50.9603 65.7402 50.6549 65.6748 50.4133 65.5441C50.1718 65.421 50.051 65.2556 50.051 65.0479V64.4248C49.2695 64.3863 48.5094 64.2978 47.7706 64.1594C47.0459 64.0209 46.4066 63.844 45.8524 63.6286C45.6251 63.5517 45.4617 63.467 45.3623 63.3747C45.277 63.2747 45.2344 63.1516 45.2344 63.0055C45.2344 62.8132 45.3409 62.6439 45.5541 62.4977C45.7814 62.3516 46.0371 62.2785 46.3213 62.2785C46.5913 62.2785 46.9252 62.34 47.323 62.4631C47.9766 62.6708 48.5947 62.8247 49.1772 62.9247C49.7739 63.017 50.392 63.0632 51.0314 63.0632C51.8839 63.0632 52.5375 62.9785 52.9921 62.8093C53.4468 62.6324 53.6741 62.3862 53.6741 62.0708C53.6741 61.8785 53.5392 61.7208 53.2692 61.5977C53.0135 61.4746 52.6938 61.3785 52.3101 61.3092C51.9265 61.24 51.3724 61.1515 50.6478 61.0438C49.5963 60.8977 48.7296 60.7515 48.0476 60.6053C47.3656 60.4592 46.776 60.2284 46.2787 59.913C45.7956 59.5976 45.5541 59.1745 45.5541 58.6437C45.5541 58.0206 45.959 57.486 46.7689 57.0398C47.593 56.5936 48.6657 56.309 49.9871 56.1859V55.5282C49.9871 55.3205 50.1078 55.1551 50.3494 55.032C50.5909 54.9012 50.8964 54.8358 51.2658 54.8358C51.6494 54.8358 51.9549 54.9012 52.1823 55.032C52.4238 55.1551 52.5446 55.3205 52.5446 55.5282V56.1628C53.8233 56.2551 55.0239 56.5167 56.1464 56.9475C56.3595 57.0244 56.5087 57.1129 56.594 57.2129C56.6934 57.3129 56.7431 57.4321 56.7431 57.5706C56.7431 57.7629 56.6295 57.9321 56.4021 58.0783C56.189 58.2245 55.9404 58.2975 55.6562 58.2975C55.4999 58.2975 55.3507 58.286 55.2086 58.2629C55.0808 58.2398 54.8961 58.1898 54.6545 58.1129C54.072 57.9129 53.5463 57.7629 53.0774 57.6629C52.6227 57.5629 52.0615 57.5129 51.3937 57.5129C50.6264 57.5129 50.0084 57.6052 49.5395 57.7898C49.0848 57.9744 48.8575 58.2206 48.8575 58.5283C48.8575 58.7437 48.9925 58.9206 49.2624 59.0591C49.5324 59.1899 49.8734 59.2937 50.2854 59.3707C50.6975 59.4476 51.2729 59.5361 52.0118 59.6361C53.049 59.7745 53.8944 59.9168 54.548 60.063C55.2157 60.2015 55.7841 60.4284 56.253 60.7438C56.736 61.0515 56.9776 61.4669 56.9776 61.99Z" fill="#5236FF"/>
<path d="M77.1092 54.2639C77.1092 61.0653 65.4673 66.579 51.1063 66.579C36.7454 66.579 25.1035 61.0653 25.1035 54.2639C25.1035 47.4624 36.7454 41.9488 51.1063 41.9488C65.4673 41.9488 77.1092 47.4624 77.1092 54.2639Z" fill="#836FFD"/>
<path d="M77.1092 53.5395C77.1092 60.3409 65.4673 65.8546 51.1063 65.8546C36.7454 65.8546 25.1035 60.3409 25.1035 53.5395C25.1035 46.738 36.7454 41.2244 51.1063 41.2244C65.4673 41.2244 77.1092 46.738 77.1092 53.5395Z" fill="#836FFD"/>
<path d="M77.1092 52.8151C77.1092 59.6165 65.4673 65.1302 51.1063 65.1302C36.7454 65.1302 25.1035 59.6165 25.1035 52.8151C25.1035 46.0136 36.7454 40.4999 51.1063 40.4999C65.4673 40.4999 77.1092 46.0136 77.1092 52.8151Z" fill="#836FFD"/>
<path d="M77.1092 52.0906C77.1092 58.8921 65.4673 64.4058 51.1063 64.4058C36.7454 64.4058 25.1035 58.8921 25.1035 52.0906C25.1035 45.2892 36.7454 39.7755 51.1063 39.7755C65.4673 39.7755 77.1092 45.2892 77.1092 52.0906Z" fill="#836FFD"/>
<path d="M77.1092 51.3662C77.1092 58.1677 65.4673 63.6813 51.1063 63.6813C36.7454 63.6813 25.1035 58.1677 25.1035 51.3662C25.1035 44.5648 36.7454 39.0511 51.1063 39.0511C65.4673 39.0511 77.1092 44.5648 77.1092 51.3662Z" fill="#836FFD"/>
<path d="M77.1092 50.6418C77.1092 57.4433 65.4673 62.9569 51.1063 62.9569C36.7454 62.9569 25.1035 57.4433 25.1035 50.6418C25.1035 43.8404 36.7454 38.3267 51.1063 38.3267C65.4673 38.3267 77.1092 43.8404 77.1092 50.6418Z" fill="#836FFD"/>
<path d="M77.1092 49.9174C77.1092 56.7188 65.4673 62.2325 51.1063 62.2325C36.7454 62.2325 25.1035 56.7188 25.1035 49.9174C25.1035 43.1159 36.7454 37.6023 51.1063 37.6023C65.4673 37.6023 77.1092 43.1159 77.1092 49.9174Z" fill="#836FFD"/>
<path d="M77.1092 49.193C77.1092 55.9944 65.4673 61.5081 51.1063 61.5081C36.7454 61.5081 25.1035 55.9944 25.1035 49.193C25.1035 42.3915 36.7454 36.8778 51.1063 36.8778C65.4673 36.8778 77.1092 42.3915 77.1092 49.193Z" fill="#836FFD"/>
<path d="M77.1092 48.4685C77.1092 55.27 65.4673 60.7837 51.1063 60.7837C36.7454 60.7837 25.1035 55.27 25.1035 48.4685C25.1035 41.6671 36.7454 36.1534 51.1063 36.1534C65.4673 36.1534 77.1092 41.6671 77.1092 48.4685Z" fill="#836FFD"/>
<path d="M77.1092 47.7441C77.1092 54.5456 65.4673 60.0592 51.1063 60.0592C36.7454 60.0592 25.1035 54.5456 25.1035 47.7441C25.1035 40.9427 36.7454 35.429 51.1063 35.429C65.4673 35.429 77.1092 40.9427 77.1092 47.7441Z" fill="#836FFD"/>
<path d="M77.1092 47.0197C77.1092 53.8212 65.4673 59.3348 51.1063 59.3348C36.7454 59.3348 25.1035 53.8212 25.1035 47.0197C25.1035 40.2183 36.7454 34.7046 51.1063 34.7046C65.4673 34.7046 77.1092 40.2183 77.1092 47.0197Z" fill="#836FFD"/>
<ellipse cx="51.1063" cy="46.4478" rx="26.0028" ry="11.7432" fill="white"/>
<path d="M56.9776 48.5691C56.9776 49.1922 56.5798 49.7192 55.7841 50.15C55.0026 50.5731 53.9441 50.8462 52.6085 50.9693V51.627C52.6085 51.8347 52.4877 52.0001 52.2462 52.1232C52.0189 52.2539 51.7134 52.3193 51.3298 52.3193C50.9603 52.3193 50.6549 52.2539 50.4133 52.1232C50.1718 52.0001 50.051 51.8347 50.051 51.627V51.0039C49.2695 50.9654 48.5094 50.8769 47.7706 50.7385C47.0459 50.6 46.4066 50.4231 45.8524 50.2077C45.6251 50.1308 45.4617 50.0461 45.3623 49.9538C45.277 49.8538 45.2344 49.7307 45.2344 49.5846C45.2344 49.3923 45.3409 49.223 45.5541 49.0769C45.7814 48.9307 46.0371 48.8576 46.3213 48.8576C46.5913 48.8576 46.9252 48.9192 47.323 49.0422C47.9766 49.2499 48.5947 49.4038 49.1772 49.5038C49.7739 49.5961 50.392 49.6423 51.0314 49.6423C51.8839 49.6423 52.5375 49.5576 52.9921 49.3884C53.4468 49.2115 53.6741 48.9653 53.6741 48.6499C53.6741 48.4576 53.5392 48.2999 53.2692 48.1768C53.0135 48.0537 52.6938 47.9576 52.3101 47.8883C51.9265 47.8191 51.3724 47.7306 50.6478 47.6229C49.5963 47.4768 48.7296 47.3306 48.0476 47.1844C47.3656 47.0383 46.776 46.8075 46.2787 46.4921C45.7956 46.1767 45.5541 45.7536 45.5541 45.2228C45.5541 44.5997 45.959 44.0651 46.7689 43.6189C47.593 43.1727 48.6657 42.8881 49.9871 42.765V42.1073C49.9871 41.8996 50.1078 41.7342 50.3494 41.6111C50.5909 41.4803 50.8964 41.4149 51.2658 41.4149C51.6494 41.4149 51.9549 41.4803 52.1823 41.6111C52.4238 41.7342 52.5446 41.8996 52.5446 42.1073V42.7419C53.8233 42.8342 55.0239 43.0958 56.1464 43.5266C56.3595 43.6035 56.5087 43.692 56.594 43.792C56.6934 43.892 56.7431 44.0112 56.7431 44.1497C56.7431 44.342 56.6295 44.5112 56.4021 44.6574C56.189 44.8036 55.9404 44.8766 55.6562 44.8766C55.4999 44.8766 55.3507 44.8651 55.2086 44.842C55.0808 44.8189 54.8961 44.7689 54.6545 44.692C54.072 44.492 53.5463 44.342 53.0774 44.242C52.6227 44.142 52.0615 44.092 51.3937 44.092C50.6264 44.092 50.0084 44.1843 49.5395 44.3689C49.0848 44.5535 48.8575 44.7997 48.8575 45.1074C48.8575 45.3228 48.9925 45.4997 49.2624 45.6382C49.5324 45.769 49.8734 45.8728 50.2854 45.9498C50.6975 46.0267 51.2729 46.1152 52.0118 46.2152C53.049 46.3536 53.8944 46.4959 54.548 46.6421C55.2157 46.7806 55.7841 47.0075 56.253 47.3229C56.736 47.6306 56.9776 48.046 56.9776 48.5691Z" fill="#5236FF"/>
<path d="M71.2381 38.3269C71.2381 45.1283 59.5962 50.642 45.2352 50.642C30.8743 50.642 19.2324 45.1283 19.2324 38.3269C19.2324 31.5254 30.8743 26.0118 45.2352 26.0118C59.5962 26.0118 71.2381 31.5254 71.2381 38.3269Z" fill="#836FFD"/>
<path d="M71.2381 37.6025C71.2381 44.4039 59.5962 49.9176 45.2352 49.9176C30.8743 49.9176 19.2324 44.4039 19.2324 37.6025C19.2324 30.801 30.8743 25.2873 45.2352 25.2873C59.5962 25.2873 71.2381 30.801 71.2381 37.6025Z" fill="#836FFD"/>
<path d="M71.2381 36.878C71.2381 43.6795 59.5962 49.1932 45.2352 49.1932C30.8743 49.1932 19.2324 43.6795 19.2324 36.878C19.2324 30.0766 30.8743 24.5629 45.2352 24.5629C59.5962 24.5629 71.2381 30.0766 71.2381 36.878Z" fill="#836FFD"/>
<path d="M71.2381 36.1536C71.2381 42.9551 59.5962 48.4687 45.2352 48.4687C30.8743 48.4687 19.2324 42.9551 19.2324 36.1536C19.2324 29.3522 30.8743 23.8385 45.2352 23.8385C59.5962 23.8385 71.2381 29.3522 71.2381 36.1536Z" fill="#836FFD"/>
<path d="M71.2381 35.4292C71.2381 42.2307 59.5962 47.7443 45.2352 47.7443C30.8743 47.7443 19.2324 42.2307 19.2324 35.4292C19.2324 28.6278 30.8743 23.1141 45.2352 23.1141C59.5962 23.1141 71.2381 28.6278 71.2381 35.4292Z" fill="#836FFD"/>
<path d="M71.2381 34.7048C71.2381 41.5062 59.5962 47.0199 45.2352 47.0199C30.8743 47.0199 19.2324 41.5062 19.2324 34.7048C19.2324 27.9033 30.8743 22.3897 45.2352 22.3897C59.5962 22.3897 71.2381 27.9033 71.2381 34.7048Z" fill="#836FFD"/>
<path d="M71.2381 33.9804C71.2381 40.7818 59.5962 46.2955 45.2352 46.2955C30.8743 46.2955 19.2324 40.7818 19.2324 33.9804C19.2324 27.1789 30.8743 21.6653 45.2352 21.6653C59.5962 21.6653 71.2381 27.1789 71.2381 33.9804Z" fill="#836FFD"/>
<path d="M71.2381 33.256C71.2381 40.0574 59.5962 45.5711 45.2352 45.5711C30.8743 45.5711 19.2324 40.0574 19.2324 33.256C19.2324 26.4545 30.8743 20.9408 45.2352 20.9408C59.5962 20.9408 71.2381 26.4545 71.2381 33.256Z" fill="#836FFD"/>
<path d="M71.2381 32.5315C71.2381 39.333 59.5962 44.8467 45.2352 44.8467C30.8743 44.8467 19.2324 39.333 19.2324 32.5315C19.2324 25.7301 30.8743 20.2164 45.2352 20.2164C59.5962 20.2164 71.2381 25.7301 71.2381 32.5315Z" fill="#836FFD"/>
<path d="M71.2381 31.8071C71.2381 38.6086 59.5962 44.1222 45.2352 44.1222C30.8743 44.1222 19.2324 38.6086 19.2324 31.8071C19.2324 25.0057 30.8743 19.492 45.2352 19.492C59.5962 19.492 71.2381 25.0057 71.2381 31.8071Z" fill="#836FFD"/>
<path d="M71.2381 31.0827C71.2381 37.8841 59.5962 43.3978 45.2352 43.3978C30.8743 43.3978 19.2324 37.8841 19.2324 31.0827C19.2324 24.2812 30.8743 18.7676 45.2352 18.7676C59.5962 18.7676 71.2381 24.2812 71.2381 31.0827Z" fill="#836FFD"/>
<ellipse cx="45.2352" cy="30.5108" rx="26.0028" ry="11.7432" fill="white"/>
<path d="M51.1065 32.6321C51.1065 33.2552 50.7087 33.7822 49.913 34.213C49.1315 34.6361 48.073 34.9092 46.7374 35.0322V35.69C46.7374 35.8977 46.6166 36.0631 46.3751 36.1862C46.1478 36.3169 45.8423 36.3823 45.4587 36.3823C45.0893 36.3823 44.7838 36.3169 44.5422 36.1862C44.3007 36.0631 44.1799 35.8977 44.1799 35.69V35.0669C43.3985 35.0284 42.6383 34.9399 41.8995 34.8015C41.1748 34.663 40.5355 34.4861 39.9813 34.2707C39.754 34.1937 39.5906 34.1091 39.4912 34.0168C39.4059 33.9168 39.3633 33.7937 39.3633 33.6476C39.3633 33.4552 39.4698 33.286 39.683 33.1398C39.9103 32.9937 40.1661 32.9206 40.4502 32.9206C40.7202 32.9206 41.0541 32.9821 41.4519 33.1052C42.1055 33.3129 42.7236 33.4668 43.3061 33.5668C43.9029 33.6591 44.5209 33.7053 45.1603 33.7053C46.0128 33.7053 46.6664 33.6206 47.121 33.4514C47.5757 33.2745 47.803 33.0283 47.803 32.7129C47.803 32.5206 47.6681 32.3629 47.3981 32.2398C47.1424 32.1167 46.8227 32.0206 46.439 31.9513C46.0554 31.8821 45.5013 31.7936 44.7767 31.6859C43.7252 31.5398 42.8585 31.3936 42.1765 31.2474C41.4945 31.1013 40.9049 30.8705 40.4076 30.5551C39.9245 30.2397 39.683 29.8166 39.683 29.2858C39.683 28.6627 40.0879 28.128 40.8978 27.6819C41.7219 27.2357 42.7946 26.9511 44.116 26.828V26.1702C44.116 25.9625 44.2367 25.7972 44.4783 25.6741C44.7198 25.5433 45.0253 25.4779 45.3947 25.4779C45.7784 25.4779 46.0838 25.5433 46.3112 25.6741C46.5527 25.7972 46.6735 25.9625 46.6735 26.1702V26.8049C47.9522 26.8972 49.1528 27.1588 50.2753 27.5896C50.4884 27.6665 50.6376 27.7549 50.7229 27.855C50.8223 27.955 50.8721 28.0742 50.8721 28.2127C50.8721 28.405 50.7584 28.5742 50.5311 28.7204C50.3179 28.8665 50.0693 28.9396 49.7851 28.9396C49.6288 28.9396 49.4796 28.9281 49.3375 28.905C49.2097 28.8819 49.025 28.8319 48.7834 28.755C48.2009 28.555 47.6752 28.405 47.2063 28.305C46.7516 28.205 46.1904 28.155 45.5226 28.155C44.7554 28.155 44.1373 28.2473 43.6684 28.4319C43.2137 28.6165 42.9864 28.8627 42.9864 29.1704C42.9864 29.3858 43.1214 29.5627 43.3914 29.7012C43.6613 29.832 44.0023 29.9358 44.4144 30.0128C44.8264 30.0897 45.4018 30.1781 46.1407 30.2782C47.1779 30.4166 48.0233 30.5589 48.6769 30.7051C49.3447 30.8436 49.913 31.0705 50.3819 31.3859C50.8649 31.6936 51.1065 32.109 51.1065 32.6321Z" fill="#5236FF"/>
</g>
</svg>
