<svg width="164" height="37" viewBox="0 0 164 37" fill="none" xmlns="http://www.w3.org/2000/svg">
<path fill-rule="evenodd" clip-rule="evenodd" d="M48.9936 13.6441C54.4754 14.4655 58.679 19.1943 58.679 24.9049C58.679 31.1938 53.5809 36.292 47.292 36.292H31.9474C31.9222 36.2921 31.8971 36.2921 31.872 36.2921C31.8468 36.2921 31.8217 36.2921 31.7966 36.292H11.7074C5.41847 36.292 0.320312 31.1938 0.320312 24.9049C0.320312 18.616 5.41848 13.5178 11.7074 13.5178H14.7866C16.9412 6.11624 23.7749 0.70752 31.872 0.70752C40.015 0.70752 46.8803 6.17785 48.9936 13.6441Z" fill="#5236FF"/>
<mask id="mask0_1009_37" style="mask-type:alpha" maskUnits="userSpaceOnUse" x="0" y="0" width="59" height="37">
<path fill-rule="evenodd" clip-rule="evenodd" d="M48.9936 13.6446C54.4754 14.466 58.679 19.1948 58.679 24.9054C58.679 31.1943 53.5809 36.2924 47.292 36.2924H31.9474C31.9222 36.2925 31.8971 36.2926 31.872 36.2926C31.8468 36.2926 31.8217 36.2925 31.7966 36.2924H11.7074C5.41847 36.2924 0.320312 31.1943 0.320312 24.9054C0.320312 18.6165 5.41848 13.5183 11.7074 13.5183H14.7866C16.9412 6.11673 23.7749 0.708008 31.872 0.708008C40.015 0.708008 46.8803 6.17833 48.9936 13.6446Z" fill="#5236FF"/>
</mask>
<g mask="url(#mask0_1009_37)">
<path d="M27.9333 11.0489L-2.05273 41.0371L62.474 40.4683L33.0425 10.9438" fill="#644AFF"/>
</g>
<path d="M30.5398 31.1784C29.4469 31.1784 28.5605 30.2856 28.5605 29.1838V11.2426C28.5609 10.1409 29.4469 9.24805 30.5398 9.24805C31.6328 9.24805 32.5191 10.1409 32.5191 11.2426V29.1838C32.5191 30.2852 31.6332 31.1784 30.5398 31.1784Z" fill="white"/>
<path d="M38.8715 19.6366C39.6443 18.8578 39.6443 17.5947 38.8715 16.8159L31.9413 9.83217C31.1684 9.05334 29.915 9.05334 29.1422 9.83217C28.3693 10.611 28.3693 11.8741 29.1422 12.6529L36.0723 19.6366C36.8456 20.4154 38.0986 20.4154 38.8715 19.6366Z" fill="white"/>
<path d="M22.2105 19.6366C21.4376 18.8578 21.4376 17.5947 22.2105 16.8159L29.1407 9.83217C29.9136 9.05334 31.1669 9.05334 31.9398 9.83217C32.7127 10.611 32.7127 11.8741 31.9398 12.6529L25.0096 19.6366C24.2364 20.4154 22.9834 20.4154 22.2105 19.6366Z" fill="white"/>
<path d="M76.19 26.9C76.92 26.9 77.575 26.78 78.155 26.54C78.735 26.29 79.225 25.94 79.625 25.49C80.025 25.04 80.33 24.495 80.54 23.855C80.75 23.215 80.855 22.495 80.855 21.695V8.735H85.355V21.695C85.355 23.015 85.14 24.23 84.71 25.34C84.29 26.44 83.685 27.39 82.895 28.19C82.105 28.99 81.145 29.615 80.015 30.065C78.885 30.515 77.61 30.74 76.19 30.74C74.77 30.74 73.49 30.515 72.35 30.065C71.22 29.615 70.26 28.99 69.47 28.19C68.68 27.39 68.07 26.44 67.64 25.34C67.22 24.23 67.01 23.015 67.01 21.695V8.735H71.51V21.695C71.51 22.495 71.615 23.215 71.825 23.855C72.035 24.495 72.34 25.04 72.74 25.49C73.14 25.94 73.63 26.29 74.21 26.54C74.79 26.78 75.45 26.9 76.19 26.9ZM92.7055 26.42C93.0955 26.87 93.5155 27.185 93.9655 27.365C94.4255 27.545 94.9155 27.635 95.4355 27.635C95.9355 27.635 96.3905 27.54 96.8005 27.35C97.2105 27.16 97.5605 26.865 97.8505 26.465C98.1505 26.055 98.3805 25.535 98.5405 24.905C98.7005 24.275 98.7805 23.525 98.7805 22.655C98.7805 21.795 98.7105 21.065 98.5705 20.465C98.4405 19.865 98.2505 19.38 98.0005 19.01C97.7605 18.64 97.4655 18.375 97.1155 18.215C96.7655 18.045 96.3755 17.96 95.9455 17.96C95.2155 17.96 94.6005 18.105 94.1005 18.395C93.6105 18.675 93.1455 19.09 92.7055 19.64V26.42ZM92.4655 17.06C92.7755 16.72 93.1055 16.41 93.4555 16.13C93.8055 15.84 94.1805 15.595 94.5805 15.395C94.9805 15.185 95.4105 15.025 95.8705 14.915C96.3305 14.795 96.8305 14.735 97.3705 14.735C98.2005 14.735 98.9605 14.915 99.6505 15.275C100.35 15.625 100.95 16.14 101.45 16.82C101.95 17.49 102.34 18.315 102.62 19.295C102.9 20.275 103.04 21.395 103.04 22.655C103.04 23.815 102.88 24.89 102.56 25.88C102.25 26.86 101.805 27.71 101.225 28.43C100.645 29.15 99.9455 29.715 99.1255 30.125C98.3155 30.525 97.4105 30.725 96.4105 30.725C95.5705 30.725 94.8555 30.6 94.2655 30.35C93.6855 30.1 93.1655 29.76 92.7055 29.33V35.495H88.5655V15.035H91.1155C91.6355 15.035 91.9805 15.275 92.1505 15.755L92.4655 17.06ZM106.507 30.5V18.005L105.307 17.795C104.997 17.735 104.742 17.625 104.542 17.465C104.352 17.305 104.257 17.075 104.257 16.775V15.125H106.507V14.525C106.507 13.715 106.637 12.935 106.897 12.185C107.157 11.435 107.552 10.77 108.082 10.19C108.622 9.61 109.302 9.145 110.122 8.795C110.952 8.445 111.932 8.27 113.062 8.27C114.002 8.27 114.887 8.305 115.717 8.375C116.557 8.435 117.402 8.465 118.252 8.465H120.577V30.5H116.467V11.27C115.947 11.25 115.437 11.23 114.937 11.21C114.447 11.18 114.042 11.165 113.722 11.165C112.682 11.165 111.887 11.455 111.337 12.035C110.787 12.605 110.512 13.435 110.512 14.525V15.125H114.022V18.005H110.647V30.5H106.507ZM130.99 14.795C132.15 14.795 133.205 14.98 134.155 15.35C135.105 15.72 135.92 16.25 136.6 16.94C137.28 17.62 137.805 18.45 138.175 19.43C138.545 20.41 138.73 21.515 138.73 22.745C138.73 23.975 138.545 25.085 138.175 26.075C137.805 27.055 137.28 27.89 136.6 28.58C135.92 29.27 135.105 29.8 134.155 30.17C133.205 30.54 132.15 30.725 130.99 30.725C129.82 30.725 128.755 30.54 127.795 30.17C126.845 29.8 126.03 29.27 125.35 28.58C124.67 27.89 124.14 27.055 123.76 26.075C123.39 25.085 123.205 23.975 123.205 22.745C123.205 21.515 123.39 20.41 123.76 19.43C124.14 18.45 124.67 17.62 125.35 16.94C126.03 16.25 126.845 15.72 127.795 15.35C128.755 14.98 129.82 14.795 130.99 14.795ZM130.99 27.62C132.17 27.62 133.045 27.215 133.615 26.405C134.185 25.585 134.47 24.37 134.47 22.76C134.47 21.16 134.185 19.955 133.615 19.145C133.045 18.325 132.17 17.915 130.99 17.915C129.78 17.915 128.89 18.325 128.32 19.145C127.75 19.955 127.465 21.16 127.465 22.76C127.465 24.37 127.75 25.585 128.32 26.405C128.89 27.215 129.78 27.62 130.99 27.62ZM163.46 15.035L158.6 30.5H155.255C155.085 30.5 154.93 30.445 154.79 30.335C154.66 30.225 154.56 30.04 154.49 29.78L151.97 21.41C151.87 21.09 151.78 20.775 151.7 20.465C151.63 20.145 151.565 19.825 151.505 19.505C151.435 19.825 151.36 20.15 151.28 20.48C151.21 20.8 151.125 21.12 151.025 21.44L148.475 29.78C148.335 30.26 148.035 30.5 147.575 30.5H144.395L139.535 15.035H142.835C143.135 15.035 143.385 15.105 143.585 15.245C143.795 15.385 143.935 15.565 144.005 15.785L145.91 23.435C146.03 23.925 146.135 24.4 146.225 24.86C146.315 25.32 146.4 25.775 146.48 26.225C146.6 25.775 146.725 25.32 146.855 24.86C146.995 24.4 147.14 23.925 147.29 23.435L149.555 15.755C149.625 15.545 149.76 15.37 149.96 15.23C150.16 15.09 150.395 15.02 150.665 15.02H152.495C152.785 15.02 153.03 15.09 153.23 15.23C153.44 15.37 153.58 15.545 153.65 15.755L155.84 23.435C155.98 23.915 156.115 24.39 156.245 24.86C156.375 25.32 156.495 25.785 156.605 26.255C156.685 25.795 156.77 25.335 156.86 24.875C156.96 24.405 157.075 23.925 157.205 23.435L159.2 15.785C159.27 15.565 159.405 15.385 159.605 15.245C159.805 15.105 160.04 15.035 160.31 15.035H163.46Z" fill="#242331"/>
</svg>
