<svg width="97" height="97" viewBox="0 0 97 97" fill="none" xmlns="http://www.w3.org/2000/svg">
<rect width="97" height="97" rx="20" fill="#FED9D1"/>
<circle cx="49" cy="48" r="32" fill="#FCCDC3"/>
<mask id="mask0_1009_31" style="mask-type:alpha" maskUnits="userSpaceOnUse" x="17" y="16" width="64" height="64">
<circle cx="49" cy="48" r="32" fill="url(#paint0_linear_1009_31)"/>
</mask>
<g mask="url(#mask0_1009_31)">
<path d="M74.3177 87.1891C74.3477 83.0948 73.7095 79.0357 72.4397 75.2435C71.1699 71.4514 69.2932 68.0004 66.9169 65.0878C64.5406 62.1751 61.7111 59.8577 58.5901 58.268C55.4691 56.6782 52.1176 55.8472 48.727 55.8224C45.3364 55.7975 41.9731 56.5794 38.8291 58.1233C35.6851 59.6672 32.822 61.9428 30.4033 64.8204C27.9846 67.698 26.0576 71.121 24.7324 74.8942C23.4072 78.6673 22.7097 82.7167 22.6797 86.811L74.3177 87.1891Z" fill="#F7E9E6"/>
<path d="M60.9988 40.0001C60.9988 46.6275 55.6262 52.0001 48.9988 52.0001C42.3713 52.0001 36.9988 46.6275 36.9988 40.0001C36.9988 33.3727 42.3713 28.0001 48.9988 28.0001C55.6262 28.0001 60.9988 33.3727 60.9988 40.0001Z" fill="#F7E9E6"/>
</g>
<defs>
<linearGradient id="paint0_linear_1009_31" x1="22" y1="22.5" x2="79" y2="81.5" gradientUnits="userSpaceOnUse">
<stop stop-color="#5860C2"/>
<stop offset="1" stop-color="#292F8D"/>
</linearGradient>
</defs>
</svg>
